<svg width="172" height="37" viewBox="0 0 172 37" fill="none" xmlns="http://www.w3.org/2000/svg">
<path d="M44.2912 24V10.9091H46.6626V16.924H46.8224L51.9297 10.9091H54.8253L49.7628 16.7834L54.87 24H52.0192L48.1136 18.3878L46.6626 20.1009V24H44.2912ZM57.0881 27.6818C56.7727 27.6818 56.4808 27.6563 56.2124 27.6051C55.9482 27.5582 55.7372 27.5028 55.5795 27.4389L56.1165 25.6364C56.4531 25.7344 56.7536 25.7813 57.0178 25.777C57.282 25.7727 57.5142 25.6896 57.7145 25.5277C57.919 25.37 58.0916 25.1058 58.2322 24.7351L58.4304 24.2045L54.87 14.1818H57.3246L59.5874 21.5966H59.6896L61.9588 14.1818H64.4197L60.4886 25.1889C60.3054 25.7088 60.0625 26.1541 59.7599 26.5249C59.4574 26.8999 59.0866 27.1854 58.6477 27.3814C58.2131 27.5817 57.6932 27.6818 57.0881 27.6818ZM68.3349 10.9091V24H66.021V10.9091H68.3349ZM75.0609 24.1918C74.0765 24.1918 73.2264 23.9872 72.5105 23.5781C71.7988 23.1648 71.2512 22.581 70.8677 21.8267C70.4842 21.0682 70.2924 20.1754 70.2924 19.1484C70.2924 18.1385 70.4842 17.2521 70.8677 16.4893C71.2555 15.7223 71.7967 15.1257 72.4913 14.6996C73.1859 14.2692 74.002 14.054 74.9395 14.054C75.5446 14.054 76.1156 14.152 76.6525 14.348C77.1937 14.5398 77.671 14.8381 78.0843 15.2429C78.502 15.6477 78.8301 16.1634 79.0687 16.7898C79.3074 17.4119 79.4267 18.1534 79.4267 19.0142V19.7237H71.3791V18.1641H77.2086C77.2044 17.7209 77.1085 17.3267 76.921 16.9815C76.7335 16.6321 76.4714 16.3572 76.1348 16.157C75.8024 15.9567 75.4146 15.8565 74.9714 15.8565C74.4984 15.8565 74.0829 15.9716 73.725 16.2017C73.367 16.4276 73.0879 16.7259 72.8876 17.0966C72.6916 17.4631 72.5914 17.8658 72.5872 18.3047V19.6662C72.5872 20.2372 72.6916 20.7273 72.9004 21.1364C73.1092 21.5412 73.4011 21.8523 73.7761 22.0696C74.1511 22.2827 74.59 22.3892 75.0929 22.3892C75.4295 22.3892 75.7342 22.3423 76.0069 22.2486C76.2797 22.1506 76.5162 22.0078 76.7164 21.8203C76.9167 21.6328 77.068 21.4006 77.1703 21.1236L79.3308 21.3665C79.1944 21.9375 78.9345 22.4361 78.551 22.8622C78.1717 23.2841 77.6859 23.6122 77.0936 23.8466C76.5012 24.0767 75.8237 24.1918 75.0609 24.1918ZM85.9513 10.9091H88.8533L92.7397 20.3949H92.8931L96.7795 10.9091H99.6815V24H97.4059V15.0064H97.2844L93.6665 23.9616H91.9663L88.3484 14.9872H88.2269V24H85.9513V10.9091ZM106.444 24.1918C105.464 24.1918 104.623 23.9766 103.919 23.5462C103.221 23.1158 102.681 22.5213 102.302 21.7628C101.927 21 101.74 20.1222 101.74 19.1293C101.74 18.1321 101.931 17.2521 102.315 16.4893C102.699 15.7223 103.24 15.1257 103.939 14.6996C104.642 14.2692 105.473 14.054 106.431 14.054C107.228 14.054 107.934 14.201 108.547 14.495C109.165 14.7848 109.657 15.196 110.024 15.7287C110.39 16.2571 110.599 16.875 110.65 17.5824H108.439C108.349 17.1094 108.136 16.7152 107.799 16.3999C107.467 16.0803 107.022 15.9205 106.463 15.9205C105.99 15.9205 105.575 16.0483 105.217 16.304C104.859 16.5554 104.58 16.9176 104.38 17.3906C104.184 17.8636 104.086 18.4304 104.086 19.0909C104.086 19.7599 104.184 20.3352 104.38 20.8168C104.576 21.294 104.85 21.6626 105.204 21.9226C105.562 22.1783 105.982 22.3061 106.463 22.3061C106.804 22.3061 107.109 22.2422 107.377 22.1143C107.65 21.9822 107.878 21.7926 108.061 21.5455C108.245 21.2983 108.37 20.9979 108.439 20.6442H110.65C110.595 21.3388 110.39 21.9545 110.037 22.4915C109.683 23.0241 109.201 23.4418 108.592 23.7443C107.983 24.0426 107.267 24.1918 106.444 24.1918ZM121.422 15.0895C121.316 14.7443 121.169 14.4354 120.981 14.1626C120.798 13.8857 120.577 13.6491 120.317 13.4531C120.061 13.2571 119.767 13.1101 119.434 13.0121C119.102 12.9098 118.74 12.8587 118.348 12.8587C117.645 12.8587 117.018 13.0355 116.469 13.3892C115.919 13.7429 115.486 14.2628 115.171 14.9489C114.86 15.6307 114.704 16.4616 114.704 17.4418C114.704 18.4304 114.86 19.2678 115.171 19.9538C115.482 20.6399 115.915 21.1619 116.469 21.5199C117.023 21.8736 117.666 22.0504 118.399 22.0504C119.064 22.0504 119.639 21.9226 120.125 21.6669C120.615 21.4112 120.992 21.049 121.256 20.5803C121.52 20.1072 121.653 19.5533 121.653 18.9183L122.189 19.0014H118.635V17.1477H123.947V18.7202C123.947 19.8409 123.709 20.8104 123.231 21.6286C122.754 22.4467 122.098 23.0774 121.263 23.5206C120.427 23.9595 119.469 24.179 118.386 24.179C117.18 24.179 116.121 23.9084 115.209 23.3672C114.302 22.8217 113.592 22.0483 113.081 21.0469C112.574 20.0412 112.32 18.848 112.32 17.4673C112.32 16.4105 112.469 15.4666 112.768 14.6357C113.07 13.8047 113.492 13.0994 114.033 12.5199C114.574 11.9361 115.209 11.4929 115.938 11.1903C116.667 10.8835 117.459 10.7301 118.316 10.7301C119.04 10.7301 119.716 10.8366 120.342 11.0497C120.969 11.2585 121.525 11.5568 122.01 11.9446C122.501 12.3324 122.903 12.7926 123.219 13.3253C123.534 13.858 123.741 14.446 123.839 15.0895H121.422ZM126.138 24V14.1818H128.382V15.8182H128.484C128.663 15.2514 128.97 14.8146 129.404 14.5078C129.843 14.1967 130.344 14.0412 130.907 14.0412C131.034 14.0412 131.177 14.0476 131.335 14.0604C131.497 14.0689 131.631 14.0838 131.738 14.1051V16.2337C131.64 16.1996 131.484 16.1697 131.271 16.1442C131.062 16.1143 130.86 16.0994 130.664 16.0994C130.242 16.0994 129.863 16.1911 129.526 16.3743C129.194 16.5533 128.931 16.8026 128.74 17.1222C128.548 17.4418 128.452 17.8104 128.452 18.228V24H126.138ZM135.924 24.1982C135.302 24.1982 134.742 24.0874 134.243 23.8658C133.749 23.6399 133.357 23.3075 133.067 22.8686C132.782 22.4297 132.639 21.8885 132.639 21.245C132.639 20.6911 132.741 20.233 132.946 19.8707C133.15 19.5085 133.429 19.2188 133.783 19.0014C134.137 18.7841 134.535 18.62 134.978 18.5092C135.426 18.3942 135.888 18.3111 136.365 18.2599C136.941 18.2003 137.407 18.147 137.765 18.1001C138.123 18.049 138.383 17.9723 138.545 17.87C138.711 17.7635 138.794 17.5994 138.794 17.3778V17.3395C138.794 16.858 138.652 16.4851 138.366 16.2209C138.081 15.9567 137.669 15.8246 137.132 15.8246C136.566 15.8246 136.116 15.9482 135.784 16.1953C135.456 16.4425 135.234 16.7344 135.119 17.071L132.958 16.7642C133.129 16.1676 133.41 15.669 133.802 15.2685C134.194 14.8636 134.674 14.5611 135.24 14.3608C135.807 14.1562 136.434 14.054 137.12 14.054C137.593 14.054 138.064 14.1094 138.532 14.2202C139.001 14.331 139.429 14.5142 139.817 14.7699C140.205 15.0213 140.516 15.3643 140.75 15.799C140.989 16.2337 141.108 16.777 141.108 17.429V24H138.884V22.6513H138.807C138.667 22.924 138.468 23.1797 138.213 23.4183C137.961 23.6527 137.644 23.8423 137.26 23.9872C136.881 24.1278 136.436 24.1982 135.924 24.1982ZM136.525 22.4979C136.99 22.4979 137.392 22.4062 137.733 22.223C138.074 22.0355 138.336 21.7884 138.52 21.4815C138.707 21.1747 138.801 20.8402 138.801 20.478V19.321C138.728 19.3807 138.605 19.4361 138.43 19.4872C138.26 19.5384 138.068 19.5831 137.855 19.6214C137.642 19.6598 137.431 19.6939 137.222 19.7237C137.013 19.7536 136.832 19.7791 136.679 19.8004C136.333 19.8473 136.025 19.924 135.752 20.0305C135.479 20.1371 135.264 20.2862 135.106 20.478C134.949 20.6655 134.87 20.9084 134.87 21.2067C134.87 21.6328 135.025 21.9545 135.336 22.1719C135.647 22.3892 136.044 22.4979 136.525 22.4979ZM145.461 24L142.687 14.1818H145.046L146.772 21.0852H146.861L148.625 14.1818H150.958L152.723 21.0469H152.819L154.519 14.1818H156.884L154.103 24H151.694L149.853 17.3651H149.718L147.877 24H145.461Z" fill="#1F2937"/>
<mask id="path-2-inside-1_1726_221" fill="white">
<path d="M4 13C4 7.47715 8.47715 3 14 3H23C28.5228 3 33 7.47715 33 13V22C33 27.5228 28.5228 32 23 32H14C8.47715 32 4 27.5228 4 22V13Z"/>
</mask>
<path d="M4 13C4 7.47715 8.47715 3 14 3H23C28.5228 3 33 7.47715 33 13V22C33 27.5228 28.5228 32 23 32H14C8.47715 32 4 27.5228 4 22V13Z" fill="url(#paint0_linear_1726_221)"/>
<path d="M14 3C15.6472 3.06667 17.2945 3.13 18.9417 3.19C20.2945 3.23927 21.6472 3.2863 23 3.33108C28.1575 3.39664 32.4815 8.08883 32.25 13C32.1893 16 32.1396 19 32.101 22C32.1434 26.8458 27.7864 31.1141 23 31C20 31 17 31.0111 14 31.0332C9.19908 31.1893 4.74761 26.9284 4.75 22C4.68929 19 4.61753 16 4.53471 13C4.39907 9.58982 6.28466 6.13605 9.34661 4.36171C10.7392 3.5394 12.3508 3.06434 14 3C12.3515 2.93073 10.6714 3.28041 9.1661 4.02733C5.86157 5.62499 3.52541 9.197 3.46529 13C3.38247 16 3.31071 19 3.25 22C2.99336 27.7248 8.14769 33.0697 14 32.9668C17 32.9889 20 33 23 33C28.8669 33.145 34.1156 27.8075 33.899 22C33.8604 19 33.8107 16 33.75 13C33.7775 7.25794 28.4958 2.34433 23 2.66892C21.6472 2.7137 20.2945 2.76073 18.9417 2.81C17.2945 2.87 15.6472 2.93333 14 3Z" fill="#059669" mask="url(#path-2-inside-1_1726_221)"/>
<path d="M18.2883 10.8382V17.7717L16.7081 16.8687C13.9024 15.2563 12.161 12.2571 12.161 9H11V16.9332C11 19.5132 12.4834 21.8996 14.8376 23.0283L18.3205 24.7052V17.7717L19.9007 18.6747C22.7064 20.2871 24.4478 23.2863 24.4478 26.5434H25.6088V18.6102C25.6088 16.0303 24.1253 13.6438 21.7711 12.5151L18.2883 10.8382Z" fill="url(#paint1_linear_1726_221)"/>
<path d="M51.9756 32.984C52.0474 32.9815 52.3361 32.9877 52.461 32.9866C52.3194 33.0134 51.7167 32.9932 51.9756 32.984ZM64.795 31.0358C64.6913 31.0425 64.5876 31.0491 64.4839 31.0557C64.7786 31.06 65.1747 31.0552 65.4481 31.0615C65.4928 31.0625 65.3768 31.0817 65.4826 31.0826C65.5885 31.0834 65.5681 31.0572 65.722 31.0544C65.8947 31.0513 66.6855 31.0696 66.9593 31.0692C67.9835 31.0674 69.0164 31.0524 70.0427 31.0633C68.9832 31.0827 70.0508 31.1025 70.3476 31.0941C70.4133 31.0921 70.4028 31.0433 71.4658 31.0556C72.1413 31.0634 71.5174 31.1332 72.6446 31.0982C71.7778 31.0494 72.6302 31.0528 73.3097 31.0512C73.4268 31.0509 74.3729 31.0583 74.7908 31.0561C74.9337 31.0553 75.1516 31.0298 75.3412 31.0291C75.4718 31.0287 75.5705 31.0427 75.7643 31.0419C76.6678 31.0388 77.5563 31.0377 78.4614 31.0424C77.9324 31.1081 78.8765 31.0704 78.9189 31.0736C79.1345 31.0914 78.1593 31.0965 78.545 31.1076C79.084 31.1056 79.6229 31.1035 80.1619 31.1015C79.7196 31.0934 80.7475 31.0462 80.9367 31.0677C80.8534 31.0097 83.3932 31.1182 83.7798 31.0988C83.8603 31.0947 83.3333 31.0661 84.556 31.0792C84.6884 31.0806 84.6383 31.0981 84.7078 31.0965C84.7494 31.0955 85.0011 31.0399 85.2693 31.0706C85.3673 31.0819 84.7407 31.1184 86.1167 31.1037C85.5687 31.0471 88.0247 31.073 88.4766 31.0872C88.3863 31.0796 88.296 31.072 88.2058 31.0644C88.6525 31.0849 88.7331 31.0657 88.8337 31.0667C89.2392 31.0709 89.7967 31.0903 90.1745 31.0886C90.6165 31.0865 90.618 31.0513 91.1334 31.065C91.0111 31.0572 90.8888 31.0495 90.7666 31.0417C91.1225 31.0436 91.4784 31.0454 91.8343 31.0473C91.0101 31.0939 92.0121 31.0495 92.0781 31.0485C92.1834 31.0468 92.0322 31.0659 92.2082 31.0635C92.2265 31.0632 92.2001 31.0452 92.4715 31.0432C93.0386 31.039 92.949 31.0616 93.1871 31.0614C93.2089 31.0612 93.1325 31.045 93.5437 31.0412C94.8507 31.029 93.5372 31.0536 93.4871 31.0559C93.4212 31.0588 93.8694 31.1265 92.7592 31.1025C93.1319 31.1101 93.1694 31.1401 93.2114 31.1408C93.2486 31.1414 93.8944 31.1372 93.93 31.1362C94.2475 31.126 93.9682 31.1055 94.03 31.1019C94.0807 31.0989 94.8588 31.1256 95.0412 31.064C95.4135 31.1208 94.827 31.1156 94.2026 31.1243C94.1115 31.136 94.7972 31.1473 94.8332 31.1473C95.7176 31.1472 95.2279 31.1005 95.4213 31.0706C95.5228 31.055 95.8832 31.0869 95.5505 31.045C96.3532 31.0406 95.8664 31.0648 95.9182 31.0684C95.9965 31.0737 96.2773 31.0617 96.3125 31.0633C96.3641 31.0657 96.1847 31.0802 96.3882 31.0853C96.422 31.086 96.7498 31.0611 96.3271 31.0491C96.8919 31.0527 96.8453 31.0314 97.0369 31.0743C97.4259 30.9932 97.3191 31.1222 97.4723 31.1268C97.8796 31.1388 97.7614 31.0751 97.7829 31.072C97.9311 31.0521 99.0587 31.0739 99.3379 31.0648C99.2277 31.1106 98.444 31.0653 98.2688 31.0742C97.6846 31.1038 99.0922 31.0971 98.6679 31.1547C98.8458 31.1389 99.0237 31.1231 99.2016 31.1073C99.5278 31.1443 99.0651 31.1605 99.9428 31.1469C100.086 31.1149 99.3222 31.152 99.4755 31.1268C99.5659 31.112 100.075 31.1088 100.085 31.101C100.095 31.0916 99.6349 31.1028 99.7074 31.0883C99.8657 31.0572 101.543 31.0868 100.266 31.1038C100.623 31.1033 100.806 31.1653 101.115 31.1459C101.315 31.1334 100.191 31.0479 101.877 31.0635C101.913 31.0928 101.203 31.0722 101.184 31.0744C101.159 31.0777 101.287 31.1437 101.309 31.1469C101.388 31.1577 103.11 31.1223 103.474 31.1555C103.33 31.1173 104.775 31.1487 104.932 31.137C104.974 31.1338 104.817 31.1105 104.862 31.108C105.142 31.0933 105.897 31.135 106.248 31.1361C106.64 31.1373 106.591 31.1171 106.613 31.1171C106.785 31.1183 106.647 31.1319 106.753 31.1319C106.912 31.1318 108.008 31.1346 108.063 31.1318C108.079 31.1309 107.9 31.1078 108.139 31.1035C108.181 31.1027 108.155 31.13 108.862 31.1182C109.714 31.104 108.27 31.0842 108.624 31.0556C109.172 31.0964 109.154 31.056 109.302 31.0592C109.354 31.0603 109.736 31.0947 110.151 31.0925C109.853 31.0981 109.555 31.1036 109.257 31.1092C109.55 31.1152 110.119 31.1078 110.361 31.1146C110.478 31.1179 110.381 31.1461 110.637 31.1453C110.692 31.145 110.907 31.0763 110.237 31.1071C110.183 31.0826 110.502 31.0986 110.65 31.0916C110.672 31.0905 110.761 31.0495 110.95 31.075C110.995 31.0813 110.501 31.2009 111.775 31.1143C111.816 31.1115 111.673 31.0966 111.713 31.0935C111.741 31.0914 112.066 31.0974 112.102 31.0953C112.139 31.093 111.982 31.0767 112.025 31.0734C112.25 31.0569 112.544 31.1217 112.082 31.1168C112.236 31.1248 112.391 31.1328 112.545 31.1408C112.38 31.0919 112.788 31.1271 113.002 31.1256C114.373 31.1159 113.455 31.0841 113.691 31.0677C114.07 31.0413 113.78 31.1249 114.343 31.0998C114.395 31.0975 113.715 31.0619 115.043 31.082C114.847 31.0834 114.651 31.0848 114.455 31.0861C114.568 31.1334 115.163 31.0829 115.208 31.0822C115.73 31.0757 115.377 31.0928 116.152 31.0684C116.221 31.0662 116.372 31.0779 116.52 31.0721C117.133 31.0481 115.711 31.0575 115.672 31.0384C115.653 31.029 117.183 31.0314 117.235 31.0358C117.458 31.0556 116.542 31.0445 116.716 31.069C116.78 31.0777 118.96 31.0599 119.397 31.0694C119.902 31.0805 120.129 31.1446 120.132 31.0726C120.275 31.1433 120.4 31.095 120.465 31.0955C121.245 31.1021 121.247 31.1028 121.916 31.096C122.064 31.0946 122.188 31.116 122.241 31.1124C122.271 31.1102 122.214 31.0872 122.363 31.0802C122.57 31.0705 123.814 31.0941 123.907 31.1068C123.999 31.1195 123.381 31.1123 123.492 31.1331C123.939 31.1352 124.368 31.1301 124.818 31.1323C125.005 31.1333 124.909 31.1479 124.99 31.1481C125.024 31.1483 125.67 31.1355 125.643 31.1301C125.579 31.1176 123.585 31.126 124.11 31.1004C124.211 31.0955 124.569 31.1291 124.512 31.0882C126.293 31.0975 128.075 31.1068 129.856 31.116C128.832 31.1467 127.681 31.1193 126.609 31.1221C126.462 31.1225 125.965 31.1186 126.025 31.1392C126.937 31.1446 128.07 31.1338 128.946 31.1473C128.974 31.1477 128.871 31.1663 128.976 31.1693C129.172 31.1748 129.81 31.1448 129.918 31.1525C129.936 31.1543 129.573 31.1788 129.683 31.1944C129.967 31.2344 130.039 31.1459 130.283 31.1469C130.471 31.1478 131.739 31.1906 132.055 31.1635C132.39 31.1347 131.12 31.1468 131.214 31.1232C132.073 31.0996 132.943 31.1249 133.755 31.1219C133.769 31.1218 133.645 31.1034 133.826 31.1008C134.142 31.0963 134.224 31.1225 134.378 31.1267C134.543 31.1311 135.128 31.1274 135.207 31.1369C135.217 31.1382 135.098 31.1641 135.08 31.1649C134.825 31.1756 134.735 31.1419 134.711 31.1414C134.624 31.1402 134.539 31.1531 134.459 31.1523C134.328 31.151 134.256 31.1391 134.083 31.138C133.964 31.1372 134.079 31.1602 133.964 31.1591C133.922 31.1587 133.467 31.1063 133.425 31.1597C133.412 31.1766 137.131 31.1983 137.503 31.1848C137.184 31.1783 136.865 31.1719 136.546 31.1655C137.194 31.1811 137.972 31.1384 138.027 31.2016C140.429 31.2068 142.83 31.212 145.232 31.2171C145.66 31.2225 145.425 31.2631 146.131 31.2513C145.948 31.2384 145.766 31.2254 145.584 31.2125C145.945 31.2216 147.548 31.2393 147.807 31.2309C147.84 31.2298 147.887 31.1931 148.287 31.1899C148.643 31.1871 148.7 31.2147 148.89 31.2199C149.049 31.2243 149.228 31.2171 149.276 31.2186C149.312 31.2198 149.326 31.2366 149.414 31.2396C149.689 31.2487 149.466 31.2012 149.74 31.2557C149.673 31.2578 149.606 31.2598 149.54 31.2619C149.873 31.2698 150.328 31.2945 149.837 31.3067C149.753 31.3088 149.825 31.2925 149.762 31.2926C147.3 31.2956 149.266 31.3273 150.129 31.302C150.351 31.3261 151.593 31.3114 151.634 31.3161C151.692 31.323 151.479 31.3423 151.758 31.359C151.816 31.3625 153.477 31.349 152.879 31.3811C152.756 31.3877 151.959 31.3807 151.767 31.3817C152.219 31.4329 153.278 31.3595 153.397 31.3614C153.877 31.3694 152.474 31.4058 153.556 31.4117C154.388 31.4163 153.607 31.3821 153.927 31.3675C154.107 31.3593 155.048 31.397 155.022 31.3482C155.346 31.343 155.156 31.3688 155.196 31.3707C155.235 31.3723 155.871 31.3577 156.077 31.368C156.102 31.3693 156.023 31.3946 156.049 31.3967C156.099 31.4002 156.712 31.3952 156.737 31.393C156.752 31.3915 156.606 31.3694 156.666 31.364C156.736 31.3578 157.326 31.363 157.358 31.3567C157.404 31.3471 156.676 31.3534 156.798 31.3286C157.133 31.3348 157.68 31.3183 157.901 31.2983C157.847 31.304 157.522 31.3048 157.409 31.3028C157.462 31.2665 158.161 31.267 157.922 31.2957C158.073 31.2803 157.97 31.2721 158.055 31.2575C158.078 31.2538 158.293 31.2531 158.335 31.2468C158.34 31.2455 158.118 31.2318 158.162 31.2244C158.243 31.2111 158.897 31.2141 158.951 31.2176C159.101 31.2275 158.568 31.2395 158.524 31.2548C158.517 31.2572 158.971 31.2872 158.978 31.2899C159.004 31.3183 158.499 31.2978 158.557 31.3235C158.682 31.3289 158.807 31.3343 158.932 31.3397C158.45 31.3656 157.56 31.3523 157.33 31.3818C158.044 31.373 158.791 31.3741 158.789 31.4405C158.789 31.4685 158.481 31.4849 158.493 31.492C158.538 31.5175 158.965 31.4898 158.981 31.4912C158.994 31.4927 159 31.4942 159 31.4957C159 31.4957 159 31.4957 159 31.4957C159 31.5106 158.391 31.5214 158.36 31.5282C158.309 31.5403 158.58 31.59 158.58 31.601C158.57 31.6033 158.136 31.615 158.283 31.6343C158.431 31.6537 158.811 31.6541 158.824 31.6561C158.897 31.6677 158.232 31.6783 158.212 31.6852C158.202 31.6886 158.559 31.7099 158.569 31.716C158.578 31.7222 158.307 31.7356 158.2 31.755C158.12 31.7694 158.352 31.7804 158.312 31.7827C158.282 31.7842 157.655 31.7839 157.624 31.7865C157.578 31.7902 157.725 31.8074 157.704 31.8118C157.673 31.8179 157.471 31.8117 157.497 31.8181C157.517 31.8228 158.302 31.8822 158.297 31.8981C158.288 31.9251 157.456 31.8629 158.231 31.9696C158.236 31.9703 158.424 31.9627 158.43 31.9634C158.546 31.983 157.942 32.0132 158.681 32.0079C157.306 32.042 158.51 32.0486 158.306 32.0941C158.228 32.1116 157.695 32.1188 157.692 32.1215C157.744 32.1437 157.914 32.1264 157.972 32.1373C158.003 32.1434 157.527 32.1669 157.634 32.1821C157.69 32.19 158.196 32.1872 158.216 32.1887C158.417 32.2032 158.171 32.2187 158.215 32.229C158.244 32.2359 158.55 32.2364 158.558 32.2377C158.57 32.2402 158.156 32.2681 158.07 32.2778C158.004 32.2854 158.25 32.2971 158.204 32.3004C157.928 32.32 157.341 32.27 157.907 32.3401C157.942 32.3444 158.156 32.3427 158.162 32.3435C158.294 32.3634 157.9 32.3651 157.83 32.3814C157.709 32.4094 158.275 32.3938 157.804 32.4135C158.157 32.4318 158.354 32.431 158.768 32.4259C157.623 32.4402 157.219 32.5127 158.49 32.5109C158.086 32.5097 158.13 32.5507 158.01 32.5514C157.935 32.5518 157.348 32.5111 157.617 32.6024C157.651 32.6138 158.007 32.5993 157.896 32.6227C157.041 32.6167 157.877 32.6376 157.878 32.6406C157.867 32.6944 155.779 32.6504 155.42 32.6565C155.003 32.6636 154.633 32.706 154.543 32.7061C154.245 32.7061 154.492 32.6846 154.425 32.6767C154.358 32.6688 153.511 32.71 153.469 32.7078C153.305 32.6987 153.471 32.6732 153.454 32.6719C153.251 32.6563 152.114 32.6762 151.795 32.6703C151.805 32.6869 152.444 32.6882 152.045 32.7147C151.58 32.7457 151.554 32.6728 151.542 32.6696C149.412 32.6703 147.282 32.671 145.153 32.6716C145.179 32.7105 146.572 32.6812 146.603 32.6863C146.789 32.7165 144.437 32.716 144.149 32.7023C144.368 32.7107 144.587 32.7191 144.806 32.7274C144.432 32.772 143.604 32.7141 143.062 32.7338C142.887 32.7402 143.223 32.7574 143.216 32.7586C143.02 32.7759 142.704 32.7625 142.94 32.7393C142.46 32.7616 142.53 32.737 142.162 32.7351C142.143 32.735 142.301 32.7531 142.01 32.7605C141.874 32.764 141.146 32.7641 141.048 32.7798C141.008 32.7864 141.377 32.8563 141.423 32.7962C142.215 32.8255 141.676 32.7688 141.984 32.7702C142.031 32.7705 141.922 32.804 142.697 32.7882C142.549 32.8487 141.657 32.8035 141.504 32.8108C141.189 32.8259 142.488 32.8571 142.727 32.81C142.616 32.8572 142.819 32.8163 143.109 32.8183C143.426 32.8204 143.288 32.8344 143.459 32.8345C143.929 32.8348 143.734 32.8015 144.121 32.8316C143.744 32.7386 144.783 32.8193 145.086 32.8436C144.593 32.8484 144.1 32.8531 143.608 32.8578C143.636 32.8627 143.664 32.8676 143.692 32.8725C143.562 32.8718 143.432 32.8711 143.303 32.8704C143.323 32.8657 143.344 32.861 143.365 32.8563C142.696 32.8868 142.532 32.8526 142.478 32.8522C141.775 32.8482 140.964 32.8485 140.253 32.8484C140.147 32.8484 140.22 32.8788 139.443 32.855C139.195 32.8474 139.429 32.8237 139.148 32.8273C138.797 32.8916 138.804 32.8403 138.699 32.8402C138.4 32.8402 138.216 32.8562 138.189 32.8563C137.818 32.8588 137.276 32.8562 136.869 32.8585C136.861 32.8588 137.073 32.8786 136.809 32.8727C136.716 32.8706 135.884 32.7862 135.156 32.8137C135.345 32.8194 135.535 32.8251 135.724 32.8308C135.501 32.8229 133.942 32.8441 134.323 32.8667C134.557 32.8805 135.128 32.8261 135.19 32.8784C134.671 32.8628 131.806 32.8862 131.582 32.874C131.552 32.8723 131.741 32.8553 131.699 32.8532C131.666 32.8515 131.009 32.8555 130.922 32.849C130.87 32.8451 131.16 32.8347 131.137 32.8286C131.116 32.8243 130.296 32.817 130.25 32.8383C130.451 32.8297 131.017 32.8372 130.72 32.8551C130.682 32.8573 130.484 32.8436 130.438 32.8465C130.007 32.8725 131.293 32.8663 131.492 32.8665C130.684 32.8936 129.435 32.8616 128.499 32.8793C128.121 32.8616 129.06 32.8522 128.632 32.8375C127.745 32.8071 128.396 32.862 128.369 32.8643C128.148 32.8821 127.397 32.7864 127.397 32.8593C127.075 32.8483 127.179 32.8391 126.725 32.8487C126.785 32.8537 126.845 32.8587 126.904 32.8638C126.4 32.906 125.333 32.7995 125.413 32.7914C125.628 32.7697 126.184 32.8036 126.231 32.8028C126.301 32.8015 126.496 32.7276 127.264 32.7937C127.579 32.7441 126.046 32.7603 126.744 32.7265C126.272 32.732 124.334 32.6975 124.055 32.7193C124.022 32.7221 124.177 32.7715 123.698 32.7464C123.471 32.7344 124.019 32.7338 123.915 32.7225C123.595 32.688 119.241 32.7101 118.414 32.7119C118.36 32.712 118.38 32.6967 118.327 32.6968C118.165 32.6972 117.575 32.7201 117.285 32.713C117.885 32.7414 116.719 32.7436 116.422 32.7405C115.971 32.7357 115.999 32.7088 115.804 32.703C115.054 32.6809 113.892 32.745 113.309 32.6851C113.341 32.7445 112.301 32.6559 111.828 32.6554C111.458 32.655 110.92 32.6943 111.42 32.7183C110.78 32.7155 110.107 32.7266 109.507 32.7302C109.408 32.7308 109.544 32.7133 109.375 32.7149C109.36 32.7151 109.339 32.7324 109.193 32.7341C107.994 32.7492 108.578 32.7126 108.353 32.7018C108.227 32.6958 108.135 32.6928 108.067 32.6918C108.766 32.6884 109.572 32.6817 109.788 32.6812C109.604 32.6431 108.238 32.6885 107.838 32.6782C107.825 32.6779 107.873 32.6569 107.859 32.6567C107.859 32.6567 107.858 32.6567 107.858 32.6567C107.708 32.6551 106.753 32.6629 106.95 32.6879C107.003 32.6946 107.442 32.6945 107.963 32.6923C107.822 32.697 107.927 32.7204 107.903 32.7214C107.601 32.7331 106.861 32.7101 106.599 32.707C106.539 32.7064 106.543 32.7214 106.533 32.7214C106.295 32.718 106.393 32.6751 106.148 32.7194C105.716 32.6658 106.958 32.7114 106.87 32.6766C106.803 32.6499 104.045 32.6643 104.053 32.7064C104.044 32.7019 104.006 32.6963 103.928 32.69C103.756 32.6758 102.988 32.6802 102.855 32.688C102.833 32.6895 102.842 32.7305 102.814 32.7308C102.745 32.7318 101.807 32.6997 101.456 32.7239C101.645 32.7296 101.835 32.7354 102.024 32.7411C100.881 32.7415 101.058 32.7536 101.438 32.7659C101.458 32.766 101.476 32.7675 101.494 32.7677C101.789 32.7768 102.168 32.7855 102.173 32.7887C102.195 32.801 100.256 32.8079 100.629 32.7699C100.681 32.7647 101.578 32.7816 101.134 32.7545C101.056 32.7498 100.48 32.7575 100.45 32.7545C100.247 32.7347 101.506 32.7083 101.352 32.6801C101.046 32.7069 100.655 32.6928 100.304 32.6997C100.145 32.7029 100.106 32.7234 100.086 32.7238C99.7924 32.7291 99.9573 32.7076 99.8592 32.7081C99.8066 32.7085 99.2276 32.7543 99.337 32.6912C97.4294 32.7376 98.8093 32.7376 99.9795 32.734C99.6098 32.757 98.8848 32.7459 98.5595 32.7512C98.4428 32.7532 98.512 32.7742 98.3148 32.7785C97.909 32.7871 95.9716 32.7629 95.4669 32.7572C95.7768 32.7498 95.6862 32.7268 95.4469 32.7284C95.2077 32.73 95.4087 32.7606 95.362 32.7639C95.312 32.7673 94.1894 32.7529 94.0026 32.7568C94.8477 32.7458 94.6571 32.7229 93.9398 32.7205C94.0435 32.7139 94.1472 32.7073 94.2509 32.7007C93.8304 32.71 92.9465 32.675 92.7034 32.6854C92.6653 32.6871 92.8023 32.7063 92.7808 32.7073C92.5677 32.7155 91.8424 32.6958 91.8087 32.7024C91.7801 32.7079 92.0894 32.724 91.9746 32.7319C91.9506 32.7336 91.6524 32.7076 91.3586 32.714C91.2496 32.7164 91.3153 32.7346 91.2878 32.7356C91.059 32.7444 91.1941 32.7137 90.7759 32.7186C90.4695 32.7223 90.2413 32.7522 89.8178 32.7423C91.2081 32.7805 90.0394 32.7646 89.4581 32.7761C89.3649 32.778 89.4448 32.811 88.8881 32.7949C90.0727 32.7352 88.5504 32.7634 88.239 32.7627C88.2219 32.7625 88.216 32.7407 88.0633 32.7404C88.0504 32.7404 88.0689 32.7551 87.927 32.7562C86.5807 32.7669 87.4416 32.7502 87.1858 32.7357C87.0769 32.7295 86.4222 32.7504 86.2459 32.7509C86.2054 32.7509 86.224 32.7356 86.0671 32.7362C85.7896 32.7373 85.541 32.7536 85.3578 32.7549C85.3364 32.755 85.3355 32.7308 84.9883 32.7387C84.8907 32.7408 84.7811 32.7494 84.9197 32.7564C85.3796 32.7792 86.2519 32.7397 86.7716 32.7625C87.2456 32.7832 85.7511 32.7852 85.6733 32.7853C85.6448 32.7854 85.9367 32.7734 85.6401 32.771C85.3869 32.769 84.9241 32.8107 84.5467 32.8017C84.5179 32.801 84.2164 32.7656 84.2303 32.7636C84.2429 32.7621 84.706 32.7544 84.6387 32.7442C84.6307 32.743 84.3364 32.7432 84.298 32.7356C84.251 32.7263 84.1241 32.6353 84.0613 32.6331C83.9 32.6274 84.005 32.6482 83.9006 32.6467C83.6769 32.6437 82.901 32.6168 82.8758 32.6483C83.004 32.6502 83.1322 32.6521 83.2603 32.6539C82.5472 32.6572 82.8512 32.6706 82.7501 32.6765C82.6413 32.6829 82.6719 32.6552 82.4315 32.6526C82.3792 32.652 81.3733 32.6578 81.3916 32.6694C81.9479 32.6509 81.7416 32.6852 81.7673 32.6858C81.8648 32.688 81.9893 32.6688 82.12 32.6692C83.0397 32.6722 82.1122 32.7025 82.3293 32.7103C82.404 32.713 82.5529 32.6966 82.5846 32.6974C82.6877 32.7001 82.6894 32.7216 82.7581 32.7199C82.9185 32.7158 82.7312 32.6854 82.7439 32.6838C82.8872 32.6648 83.4489 32.6885 83.0993 32.7216C83.3091 32.7335 83.3337 32.6933 83.5002 32.7094C83.8311 32.7412 83.3353 32.733 83.201 32.7383C82.7192 32.7574 82.5763 32.7419 81.8943 32.7472C81.6487 32.7491 81.3578 32.7686 81.2438 32.7697C81.172 32.7703 80.4943 32.7024 80.4743 32.8087C80.2108 32.7984 79.7975 32.7284 79.526 32.7316C79.2823 32.7345 79.3598 32.7721 79.3371 32.7736C79.3022 32.7759 79.0075 32.7729 78.9078 32.7782C78.791 32.7845 78.8493 32.7988 78.664 32.8047C78.2028 32.8192 78.2149 32.7808 78.1675 32.7783C77.6172 32.7495 77.8582 32.8041 77.7361 32.8085C77.6225 32.8125 76.0297 32.7915 75.6944 32.8053C75.8308 32.7976 75.9672 32.7899 76.1037 32.7822C75.8595 32.7583 75.6007 32.7974 75.5961 32.7544C75.5466 32.8237 75.0426 32.7774 74.8912 32.7792C74.8316 32.7799 74.8362 32.7917 74.7616 32.7922C74.4699 32.7943 73.8122 32.7849 73.654 32.7909C72.9697 32.8167 74.7194 32.8596 74.8571 32.8622C74.5814 32.8614 73.0214 32.877 73.7385 32.9103C73.8493 32.9154 74.0457 32.8844 74.108 32.8832C74.5293 32.8752 74.198 32.903 74.231 32.9057C74.2872 32.9099 74.5645 32.883 74.6377 32.8862C74.6621 32.8873 74.5049 32.9125 74.9067 32.913C74.7091 32.9374 73.5796 32.9175 73.4314 32.9232C73.3786 32.9253 73.7095 32.9774 72.7428 32.9268C72.7541 32.9316 72.7653 32.9365 72.7765 32.9413C72.2382 32.9433 71.7 32.9453 71.1618 32.9473C71.2203 32.9361 71.5225 32.9137 71.1419 32.9185C70.9227 32.9212 71.0849 32.9461 71.0649 32.9468C70.8682 32.9536 67.3878 32.9454 66.7133 32.9481C66.4838 32.949 65.8443 32.969 65.7955 32.9694C65.5039 32.9714 64.4713 32.9584 64.2653 32.9612C64.1367 32.963 64.259 32.9838 64.1441 32.9828C64.0373 32.9819 64.1479 32.9618 64.1162 32.961C63.8534 32.9537 61.8573 32.98 61.3833 32.9611C61.673 32.9668 63.1187 32.9266 63.0896 32.9125C63.0833 32.9106 62.7319 32.8953 62.6595 32.9027C62.5397 32.8853 62.1286 32.9383 61.905 32.9279C61.8797 32.9267 61.9793 32.897 61.5802 32.8916C61.4427 32.8898 61.0827 32.9129 60.7204 32.887C60.1959 32.8994 57.4381 32.8609 57.2489 32.8928C57.2433 32.8945 57.6317 32.9055 57.3693 32.9186C57.0205 32.936 57.3337 32.8774 56.9272 32.8723C56.866 32.8716 55.735 32.8775 55.698 32.8811C55.3554 32.914 56.3437 32.9273 56.3299 32.9312C56.2954 32.9408 55.4742 32.9466 55.4409 32.9444C55.4091 32.942 56.0788 32.8984 55.274 32.9149C55.3662 32.9201 55.4584 32.9254 55.5506 32.9306C55.1721 32.9407 55.1361 32.9105 55.0444 32.9087C54.7593 32.9029 54.451 32.9487 53.9943 32.8921C53.8736 32.8771 54.074 32.8604 54.0589 32.8582C53.9138 32.838 53.7288 32.892 53.5106 32.8517C53.4942 32.8487 54.0019 32.8245 53.1146 32.8245C53.1757 32.8283 53.2367 32.8322 53.2978 32.8361C53.1727 32.8447 52.2743 32.8498 52.1535 32.8478C51.8004 32.8418 52.1083 32.8141 51.7535 32.8174C51.9811 32.8554 50.902 32.8604 50.964 32.8276C50.8133 32.8688 49.8966 32.837 49.4657 32.8361C49.1938 32.8355 48.6392 32.8534 48.5528 32.8513C48.4476 32.8488 48.4795 32.8207 48.2895 32.8145C48.2353 32.8127 47.6696 32.8332 47.1731 32.8042C47.0768 32.7986 46.8747 32.751 47.0536 32.7391C47.3598 32.7188 47.9389 32.7571 47.9315 32.729C47.9228 32.6989 47.1428 32.7168 46.9328 32.7129C45.9634 32.6947 46.5232 32.6628 46.4983 32.6531C46.4336 32.6296 45.9039 32.6303 45.8818 32.6282C45.7902 32.6188 46.1656 32.6002 46.1712 32.5858C46.1781 32.5671 45.6675 32.5334 45.7836 32.5271C45.9497 32.5182 46.4189 32.5463 46.4487 32.5449C46.8359 32.5268 46.3051 32.4836 46.1589 32.4624C46.1145 32.4559 46.2912 32.4451 46.2544 32.4432C45.6932 32.4142 46.1361 32.5039 45.7628 32.4979C45.4297 32.4926 45.8583 32.4642 45.8456 32.4626C45.8291 32.4609 45.4309 32.4594 45.3685 32.4493C45.3378 32.4443 46.3729 32.3891 46.3297 32.3644C45.9994 32.3698 45.6691 32.3753 45.3389 32.3807C45.313 32.3485 45.788 32.3722 45.8372 32.3689C45.9361 32.3622 45.6603 32.3459 45.6721 32.3357C45.6784 32.3292 46.0021 32.306 45.7097 32.2965C45.6092 32.2932 45.3983 32.3158 45.0322 32.2927C46.3061 32.2632 45.4233 32.2451 45.3858 32.2336C45.349 32.2222 45.9572 32.1953 45.219 32.2001C45.187 32.1373 45.2349 32.1802 45.4446 32.1692C45.7016 32.1556 45.1077 32.1349 46.0469 32.1506C45.9935 32.1212 45.2386 32.1233 45.1986 32.121C45.1641 32.1188 45.3319 32.1044 45.2721 32.0995C44.5644 32.0427 45.0505 32.0686 44.8455 32.0323C44.8273 32.0291 44.1584 32.0156 44.6676 32.0104C45.5953 32.0008 45.983 32.0424 46.1389 31.9533C45.4527 31.9147 44.6213 31.9721 44.4127 31.9731C44.0934 31.9745 44.4242 31.9564 44.3848 31.9513C44.3712 31.9496 44.096 31.9511 44.0923 31.9497C43.8962 31.8818 45.3172 31.9486 45.7646 31.9367C45.6447 31.9266 45.5247 31.9164 45.4048 31.9062C45.5675 31.9058 45.7302 31.9054 45.8929 31.905C45.1178 31.8846 45.8656 31.8973 46.0588 31.8423C46.1022 31.8299 45.593 31.8511 46.1739 31.8167C45.7455 31.8088 45.8821 31.7976 45.4942 31.8131C45.5042 31.791 46.377 31.7662 46.7213 31.7549C45.5051 31.7301 46.1986 31.8109 45.1473 31.7682C44.9523 31.7955 45.4542 31.7901 45.4132 31.7947C45.2664 31.8109 44.9222 31.7851 44.507 31.8419C44.4394 31.8512 44.7255 31.8799 44.3021 31.8785C44.2553 31.8783 43.9855 31.8538 43.9892 31.852C44.025 31.8328 44.292 31.84 44.303 31.832C44.3133 31.8244 44.0155 31.829 44.0145 31.8269C44.0053 31.8028 44.263 31.8177 44.2255 31.8102C44.1447 31.7938 43.0734 31.742 44.4716 31.7572C43.3103 31.7844 44.3229 31.7837 44.7751 31.7733C44.8905 31.7707 44.9197 31.7563 45.084 31.7513C45.2954 31.7449 45.5428 31.7518 45.6522 31.7491C45.7698 31.7462 45.1014 31.7122 46.0681 31.7224C45.5761 31.6886 44.7071 31.7246 44.2238 31.7009C43.2487 31.653 44.9036 31.6427 45.076 31.638C45.122 31.6368 44.968 31.6174 44.9986 31.6162C45.0487 31.6144 45.9879 31.6233 46.0805 31.6073C46.1729 31.5912 45.7365 31.608 45.7075 31.5913C45.6878 31.58 46.8209 31.56 46.2075 31.5523C45.7848 31.5471 45.0055 31.5923 44.8743 31.5437C45.496 31.5396 46.1177 31.5356 46.7394 31.5316C46.3991 31.5131 46.0588 31.4945 45.7186 31.476C46.4164 31.4702 47.0196 31.4911 47.6824 31.4646C46.0898 31.4052 48.1995 31.4172 48.2227 31.41C48.2305 31.4057 47.6036 31.3575 47.5027 31.3487C48.0582 31.3302 49.7461 31.3211 48.7586 31.2617C48.9378 31.2751 49.3719 31.242 49.3661 31.2395C49.311 31.2132 48.3643 31.2302 48.5187 31.2065C48.6977 31.179 48.9484 31.2163 49.2236 31.2133C50.6361 31.1978 50.2486 31.0606 51.665 31.0823C51.6368 31.0775 51.6086 31.0726 51.5804 31.0677C53.1199 31.0755 54.6594 31.0832 56.1989 31.091C56.8012 31.0491 58.4042 31.0236 59.1915 31.0283C59.3501 31.0292 60.1285 31.0511 60.1872 31.055C60.296 31.0624 59.6979 31.0652 59.9681 31.079C60.0252 31.0819 61.343 31.0911 61.2488 31.0677C61.1011 31.065 60.6389 31.0768 60.5633 31.0712C60.032 31.0318 64.0946 31.0633 64.2958 31.0474C64.2059 31.0398 64.1159 31.0322 64.0259 31.0246C64.2823 31.0283 64.5386 31.0321 64.795 31.0358ZM53.015 32.9176C52.8612 32.9411 52.4756 32.9235 52.2477 32.9301C51.9329 32.9393 51.3978 33.0298 51.6282 32.9391C52.0905 32.9319 52.5528 32.9248 53.015 32.9176ZM59.7712 32.9527C59.4612 32.94 59.7017 32.8894 59.9557 32.9104C59.9839 32.9128 60.1906 32.9697 59.7712 32.9527ZM56.5215 32.9286C56.5345 32.9279 56.8024 32.9293 56.8117 32.9301C57.052 32.9504 56.2443 32.9463 56.5215 32.9286ZM72.2202 32.9026C71.8787 32.9048 72.126 32.9509 72.3384 32.9319C72.3518 32.9307 72.2427 32.9025 72.2202 32.9026ZM71.9773 32.9014C71.712 32.8601 71.1778 32.9437 71.6025 32.9353C71.6437 32.9345 71.9896 32.9034 71.9773 32.9014ZM58.6663 32.9325C58.7012 32.9167 59.0209 32.9243 59.1575 32.9281C59.1537 32.9426 58.8002 32.9307 58.6663 32.9325ZM66.7734 32.9281C66.787 32.9157 65.6756 32.9164 65.5999 32.9328C65.7753 32.9258 66.7607 32.9393 66.7734 32.9281ZM69.6236 32.9107C69.5955 32.9085 69.2115 32.9118 69.2227 32.9227C69.4101 32.9371 69.7505 32.9204 69.6236 32.9107ZM75.2886 32.9114C75.3094 32.9086 75.0219 32.8388 75.7032 32.8848C75.8032 32.8915 75.446 32.9097 75.4815 32.9122C75.556 32.9171 75.6148 32.9194 75.6621 32.9198C75.3448 32.9256 75.0151 32.9283 74.9833 32.9241C74.8335 32.9041 75.2794 32.9125 75.2886 32.9114ZM78.2627 32.8594C78.3281 32.848 78.7456 32.8541 78.8406 32.8588C78.8569 32.8597 78.7858 32.8896 78.9738 32.8873C79.1247 32.8855 78.8992 32.8549 79.1933 32.8598C79.4904 32.8647 79.0934 32.8865 79.1194 32.8881C79.1541 32.8901 79.6138 32.8764 79.5995 32.8942C79.5888 32.9074 79.0964 32.8985 78.9747 32.9013C78.8188 32.9049 79.0078 32.9269 78.7472 32.9221C78.5835 32.9192 78.6742 32.8805 78.6397 32.8786C78.6107 32.877 78.0384 32.8992 78.2635 32.8595C78.2633 32.8595 78.263 32.8594 78.2627 32.8594ZM75.7479 32.9181C75.724 32.9194 75.696 32.9201 75.6621 32.9198C75.6909 32.9193 75.7195 32.9187 75.7479 32.9181ZM53.9107 32.9007C54.0718 32.9126 53.5935 32.9279 53.4124 32.9122C53.4093 32.8996 53.885 32.8988 53.9107 32.9007ZM76.0422 32.8866C76.5135 32.8963 76.1668 32.9096 75.7479 32.9181C75.8809 32.9108 75.8839 32.8834 76.0422 32.8866ZM62.6595 32.9027C62.6793 32.9056 62.6919 32.9101 62.6935 32.9175C62.6413 32.9094 62.6366 32.9051 62.6595 32.9027ZM63.7591 32.9159C64.1361 32.8934 63.3701 32.8943 63.375 32.9104C63.3773 32.9165 63.744 32.9168 63.7591 32.9159ZM72.6583 32.9048C72.6239 32.9026 73.1595 32.8346 72.3818 32.8856C72.7969 32.8936 72.3589 32.901 72.3654 32.907C72.3823 32.9241 73.0796 32.9077 73.234 32.9151C73.3549 32.8844 72.7722 32.9121 72.6592 32.9048C72.6589 32.9048 72.6586 32.9048 72.6583 32.9048ZM83.6227 32.8759C83.5283 32.8938 83.2285 32.888 83.0262 32.887C83.1207 32.869 83.4205 32.8748 83.6227 32.8759ZM136.552 32.8784C135.166 32.895 134.987 32.822 136.255 32.8509C136.28 32.8515 136.636 32.871 136.552 32.8784ZM124.658 32.8595C124.527 32.8277 124.959 32.8226 125.243 32.8357C125.307 32.8387 125.545 32.8709 125.274 32.8772C125.282 32.8386 124.863 32.8239 124.658 32.8595ZM76.3086 32.8662C76.4458 32.845 76.8683 32.8601 77.0909 32.8633C76.9551 32.8808 76.5054 32.8729 76.3086 32.8662ZM131.998 32.8404C131.852 32.8379 131.753 32.8656 131.778 32.8679C131.891 32.8785 132.164 32.8561 131.998 32.8404ZM74.9448 32.8629C74.9254 32.8502 75.485 32.838 75.524 32.8694C75.4044 32.8671 74.9586 32.8709 74.9448 32.8629ZM83.2413 32.8663C83.1544 32.8599 83.6044 32.8484 83.7404 32.8548C83.7295 32.8683 83.2983 32.8705 83.2413 32.8663ZM129.646 32.8498C129.515 32.8473 129.188 32.8466 129.152 32.8578C129.107 32.8718 129.586 32.867 129.646 32.8498ZM153.987 32.8256C154.003 32.8306 153.497 32.8669 153.272 32.8577C152.845 32.8401 153.969 32.822 153.987 32.8256ZM133.381 32.8261C133.793 32.8524 133.335 32.8269 133.353 32.8546C133.631 32.8556 134.321 32.857 133.847 32.8297C133.754 32.8245 133.51 32.8279 133.381 32.8261ZM133 32.8168C132.956 32.8258 132.659 32.8541 132.916 32.8521C133.035 32.8511 133.226 32.8196 133 32.8168ZM150.85 32.8379C150.481 32.8134 152.176 32.8265 152.224 32.8308C152.25 32.8331 152.267 32.8352 152.277 32.8371C152.339 32.8293 152.659 32.8279 152.696 32.8476C152.6 32.8459 152.338 32.8477 152.308 32.8455C152.295 32.8446 152.285 32.8437 152.278 32.8428C152.165 32.8599 150.921 32.8426 150.85 32.8379ZM148.042 32.8126C148.465 32.7764 148.54 32.838 148.503 32.84C148.043 32.8652 148.343 32.8198 148.329 32.8176C148.297 32.8141 147.97 32.8352 148.043 32.8126C148.043 32.8126 148.042 32.8126 148.042 32.8126ZM150.275 32.8278C150.292 32.827 150.647 32.8289 150.662 32.8299C150.953 32.8506 149.948 32.8453 150.275 32.8278ZM80.5044 32.8163C80.7587 32.8224 80.5092 32.8451 80.3402 32.8369C80.3264 32.8361 80.2801 32.8109 80.5044 32.8163ZM132.797 32.8229C132.738 32.8186 131.23 32.8025 131.32 32.8367C131.449 32.8327 133.163 32.8503 132.797 32.8229ZM121.525 32.8146C121.791 32.8149 121.501 32.8471 121.359 32.8351C121.307 32.8306 121.458 32.8145 121.525 32.8146ZM74.1903 32.8336C73.9141 32.8514 73.9712 32.7919 74.2106 32.8123C74.22 32.8131 74.2011 32.8329 74.1903 32.8336ZM123.65 32.8331C122.733 32.8527 122.95 32.7504 124.143 32.7849C124.105 32.7895 124.068 32.794 124.031 32.7986C125.407 32.814 124.125 32.8058 123.788 32.8115C123.66 32.8137 123.767 32.8308 123.651 32.8333C123.651 32.8332 123.65 32.8332 123.65 32.8331ZM120.126 32.8126C119.243 32.74 120.929 32.7873 121.413 32.7778C120.944 32.8078 120.334 32.8033 121.164 32.834C119.95 32.8399 120.455 32.811 120.407 32.8086C120.35 32.8059 120.164 32.8158 120.126 32.8126ZM122.457 32.8122C122.508 32.81 122.892 32.8248 123.031 32.8224C122.837 32.8472 122.118 32.8266 122.457 32.8122ZM145.097 32.8295C145.129 32.8101 145.208 32.7957 145.512 32.803C145.418 32.8128 145.224 32.8212 145.097 32.8295ZM52.723 32.8153C52.5139 32.8139 52.0975 32.8066 52.2252 32.827C52.2391 32.8288 52.7224 32.8268 52.723 32.8153ZM128.416 32.8071C128.372 32.8048 127.222 32.8032 127.619 32.8246C127.739 32.8311 128.785 32.8283 128.416 32.8071ZM134.372 32.8096C134.276 32.8094 133.885 32.813 133.877 32.8176C133.85 32.8335 134.33 32.8248 134.372 32.8096ZM51.6681 32.7954C51.6405 32.7934 51.0018 32.797 51.072 32.8064C51.2053 32.8242 51.7624 32.8024 51.6681 32.7954ZM81.4297 32.7708C81.4831 32.77 81.5537 32.7912 81.5722 32.7914C81.6156 32.7917 82.593 32.7836 82.2196 32.8107C82.1573 32.8152 80.751 32.8048 80.5681 32.8021C80.4974 32.7732 81.0981 32.8007 81.2443 32.7977C81.27 32.7972 81.2865 32.7729 81.4292 32.7709C81.4294 32.7708 81.4295 32.7708 81.4297 32.7708ZM146.679 32.809C146.723 32.7906 147.872 32.7783 147.858 32.8007C147.465 32.8034 147.072 32.8062 146.679 32.809ZM146.096 32.8059C145.851 32.7929 146.425 32.7886 146.594 32.7943C146.596 32.8067 146.131 32.8078 146.096 32.8059ZM132.193 32.7407C132.078 32.7452 132.433 32.7721 132.353 32.7774C132.302 32.7806 132.044 32.7705 131.962 32.7789C131.939 32.7816 132.202 32.8069 132.278 32.8058C132.386 32.8043 132.281 32.7845 132.399 32.7843C132.791 32.7839 133.138 32.7981 133.506 32.7977C133.539 32.7977 133.282 32.7836 133.564 32.7838C133.608 32.7838 133.871 32.8048 134.209 32.8017C134.956 32.7369 135.505 32.8005 136.454 32.7771C136.418 32.771 135.709 32.7547 135.667 32.754C134.874 32.7434 133.454 32.7422 132.624 32.7421C132.411 32.742 132.514 32.7557 132.422 32.7562C132.35 32.7566 132.436 32.7312 132.193 32.7407ZM52.8341 32.8013C52.7344 32.7759 52.3848 32.792 52.1614 32.7907C52.2401 32.8135 52.6158 32.7957 52.8341 32.8013ZM140.937 32.7863C140.825 32.7873 140.478 32.7796 140.449 32.7873C140.412 32.7972 140.913 32.8035 140.937 32.7863ZM86.9407 32.778C86.9515 32.7773 87.2208 32.7786 87.2309 32.7794C87.4715 32.7998 86.6638 32.7956 86.9407 32.778ZM93.3822 32.7829C93.5864 32.7797 93.7924 32.7718 93.861 32.7924C93.7309 32.7892 93.3583 32.7972 93.3822 32.7829ZM102.269 32.7822C102.227 32.7553 102.842 32.7727 102.958 32.7752C102.915 32.7871 102.3 32.8017 102.269 32.7822ZM145.053 32.7449C145.429 32.7465 145.35 32.7057 145.588 32.7241C145.627 32.7273 145.753 32.8123 145.34 32.7804C145.266 32.7747 145.556 32.7545 145.053 32.7449ZM124.337 32.7858C124.432 32.768 124.731 32.7732 124.933 32.7747C124.888 32.7879 124.48 32.7845 124.337 32.7858ZM50.5144 32.775C50.3382 32.7499 49.524 32.7685 49.7255 32.7852C49.7541 32.7873 50.4002 32.7741 50.5144 32.775ZM77.2639 32.7849C77.5989 32.7651 76.9051 32.759 76.686 32.7783C76.7852 32.7771 77.2413 32.7862 77.2639 32.7849ZM100.134 32.7676C100.15 32.7668 100.506 32.7687 100.522 32.7697C100.813 32.7904 99.8076 32.7851 100.134 32.7676ZM91.2639 32.7501C91.3919 32.7338 92.2334 32.747 92.422 32.7633C92.2405 32.7872 91.1051 32.7705 91.2639 32.7501ZM143.507 32.7565C143.775 32.7556 144.029 32.7607 144.276 32.7677C144.224 32.7815 143.535 32.7667 143.507 32.7565ZM101.438 32.7659C101.458 32.766 101.476 32.7675 101.494 32.7677C101.475 32.7671 101.457 32.7665 101.438 32.7659ZM137.507 32.7468C137.282 32.7414 137.329 32.7666 137.343 32.7674C137.512 32.7755 137.761 32.753 137.507 32.7468ZM52.5774 32.7639C52.4995 32.7412 52.1217 32.7588 51.9044 32.7534C51.9674 32.7714 52.4023 32.7663 52.5774 32.7639ZM119.18 32.7661C118.898 32.7415 120.046 32.7129 120.288 32.7288C120.306 32.744 119.222 32.7695 119.18 32.7661ZM76.2236 32.7509C76.2011 32.7331 75.7189 32.7545 75.8214 32.763C75.8862 32.7683 76.2371 32.7619 76.2236 32.7509ZM120.866 32.7392C120.974 32.7337 121.225 32.7513 121.137 32.762C121.023 32.7757 120.838 32.7407 120.866 32.7392ZM130.546 32.7249C130.498 32.7222 129.864 32.7404 130.126 32.7586C130.308 32.7712 130.337 32.7455 130.38 32.7454C130.427 32.7455 131.446 32.7769 130.546 32.7249ZM112.749 32.7506C112.988 32.7438 113.278 32.7517 113.528 32.7512C113.426 32.7622 112.851 32.7652 112.749 32.7506ZM78.083 32.7461C78.0249 32.7389 76.4414 32.7346 77.3409 32.7567C77.3934 32.758 78.2596 32.7679 78.083 32.7461ZM145.053 32.7449C145.006 32.7447 144.951 32.7438 144.888 32.7421C144.951 32.7428 145.005 32.744 145.053 32.7449ZM140.786 32.7422C140.872 32.7293 140.436 32.7258 140.308 32.7327C140.268 32.7485 140.774 32.744 140.786 32.7422ZM113.547 32.7332C113.692 32.7258 113.953 32.7337 114.132 32.7328C114.102 32.7448 113.61 32.7454 113.547 32.7332ZM103.412 32.7196C103.698 32.7268 104.051 32.7235 104.056 32.7088C104.062 32.7111 104.076 32.7135 104.099 32.716C104.123 32.7184 104.43 32.7115 104.563 32.7166C105.362 32.7464 101.479 32.7341 103.729 32.6925C103.623 32.7016 103.518 32.7106 103.412 32.7196ZM90.1254 32.7155C89.9627 32.6975 89.5071 32.72 89.6253 32.7271C89.7077 32.7319 90.2882 32.7335 90.1254 32.7155ZM96.3851 32.7048C96.3364 32.7016 95.8916 32.7142 95.8802 32.7236C96.1359 32.7336 96.6066 32.7197 96.3851 32.7048ZM88.8748 32.6945C88.7728 32.6918 88.6425 32.7207 88.6545 32.7219C88.7582 32.7325 89.0463 32.7106 88.8748 32.6945ZM144.275 32.667C144.123 32.6587 143.639 32.6797 143.533 32.6987C143.514 32.6951 143.461 32.6902 143.364 32.6845C143.364 32.6845 143.364 32.6845 143.365 32.6845C143.234 32.6768 139.32 32.6683 141.945 32.7051C142.027 32.7063 141.915 32.6891 142.249 32.6922C142.272 32.6924 142.283 32.7064 142.351 32.707C142.508 32.7085 143.345 32.7173 143.513 32.7061C143.514 32.7087 143.525 32.7111 143.548 32.7134C143.754 32.7336 144.393 32.6734 144.275 32.667ZM97.267 32.7023C97.1775 32.6971 96.8941 32.702 96.8647 32.7144C97.0053 32.7204 97.4747 32.7144 97.267 32.7023ZM78.0339 32.6954C77.8515 32.6853 77.3893 32.7043 77.529 32.7144C77.6147 32.7206 78.2442 32.7071 78.0339 32.6954ZM94.4287 32.7089C95.4745 32.7235 94.6783 32.7077 94.8385 32.6896C94.7019 32.696 94.5653 32.7024 94.4287 32.7089ZM149.115 32.7138C148.948 32.7096 149.144 32.6739 149.328 32.6933C149.385 32.6994 149.208 32.716 149.115 32.7138ZM156.645 32.7027C156.503 32.671 157.198 32.6896 156.927 32.7113C156.914 32.7121 156.655 32.7039 156.645 32.7027ZM151.383 32.6897C151.27 32.7113 151.196 32.7138 150.877 32.7085C151.35 32.7024 150.912 32.6834 151.383 32.6897ZM104.053 32.7064C104.055 32.7073 104.057 32.7079 104.056 32.7088C104.054 32.708 104.053 32.7072 104.053 32.7064ZM87.8916 32.7001C87.7607 32.6818 87.3938 32.6832 87.5031 32.7015C87.5136 32.7033 87.8379 32.7136 87.8916 32.7001ZM143.533 32.6987C143.551 32.702 143.542 32.7041 143.513 32.7061C143.511 32.7036 143.519 32.7013 143.533 32.6987ZM89.8616 32.6852C89.8485 32.6988 90.407 32.7041 90.4294 32.7025C90.7499 32.6789 90.0922 32.6844 89.8616 32.6852ZM74.3416 32.6763C74.3128 32.6777 74.4986 32.7129 74.6124 32.6991C74.7006 32.6884 74.4495 32.6709 74.3416 32.6763ZM152.466 32.6809C152.643 32.6809 152.892 32.6809 152.938 32.6976C152.819 32.6951 152.462 32.6932 152.466 32.6809ZM156.373 32.6797C156.164 32.6994 155.687 32.6993 155.382 32.6961C155.376 32.6702 156.177 32.6858 156.373 32.6797ZM144.755 32.6767C144.74 32.6756 144.297 32.6679 144.357 32.6852C144.446 32.7106 144.88 32.6861 144.755 32.6767ZM75.2027 32.695C75.401 32.683 74.9447 32.6464 74.7355 32.6747C74.628 32.6892 75.1693 32.697 75.2027 32.695ZM86.7459 32.6762C86.4842 32.6862 87.1328 32.704 87.2234 32.6859C87.1029 32.6845 86.8389 32.6726 86.7459 32.6762ZM95.6496 32.6578C94.825 32.6056 95.2741 32.7009 95.4204 32.6925C95.441 32.6913 95.6698 32.6591 95.6496 32.6578ZM48.4683 32.6707C48.3516 32.6779 48.7868 32.7042 48.8431 32.6869C48.8779 32.6761 48.5429 32.666 48.4683 32.6707ZM108.067 32.6918C108.032 32.692 107.997 32.6921 107.963 32.6923C107.989 32.6914 108.023 32.6911 108.067 32.6918ZM84.3706 32.6062C84.951 32.6799 84.8901 32.6231 84.9405 32.6234C85.0495 32.6242 85.3029 32.6442 85.5083 32.6409C85.273 32.6492 85.0377 32.6575 84.8025 32.6658C84.9883 32.6711 86.6028 32.6982 86.6367 32.6863C86.6851 32.6693 86.1771 32.6746 86.1623 32.6731C86.141 32.671 86.0616 32.6236 86.0145 32.6218C85.937 32.619 84.5869 32.618 84.3706 32.6062ZM93.9252 32.666C94.0578 32.6717 94.0955 32.6904 94.157 32.6859C94.178 32.6844 94.1814 32.6665 94.2531 32.6619C94.1438 32.6633 94.0345 32.6646 93.9252 32.666ZM83.3311 32.6725C83.1668 32.6506 83.9036 32.6589 83.9272 32.6614C84.0532 32.6762 83.4654 32.6904 83.3311 32.6725ZM89.5829 32.6693C89.556 32.668 88.9902 32.6612 88.9948 32.6733C89.1444 32.6826 89.9009 32.6853 89.5829 32.6693ZM94.3416 32.6607C94.5403 32.6627 94.9161 32.6808 94.873 32.6538C94.8727 32.6538 94.8724 32.6538 94.8721 32.6538C94.6953 32.6561 94.5184 32.6584 94.3416 32.6607ZM75.8815 32.6381C75.5132 32.5952 75.6877 32.6494 76.0139 32.6632C76.1126 32.644 75.9419 32.645 75.8815 32.6381ZM74.7027 32.6061C74.6002 32.5984 73.5442 32.6068 73.7053 32.6295C73.7626 32.6376 74.3698 32.6172 74.3978 32.6188C74.4402 32.6211 74.2465 32.6462 74.5704 32.6412C74.5515 32.6327 74.7378 32.6087 74.7027 32.6061ZM75.5767 32.6106C75.2106 32.578 75.1284 32.6381 75.4036 32.6383C75.5112 32.6384 75.6289 32.6153 75.5767 32.6106ZM77.0719 32.6157C76.9402 32.61 76.5893 32.6017 76.3475 32.6217C76.6711 32.6234 76.9947 32.6251 77.3184 32.6268C77.3557 32.6155 77.1871 32.6207 77.071 32.6157C77.0713 32.6157 77.0716 32.6157 77.0719 32.6157ZM158.573 32.5255C158.282 32.5085 158.952 32.5019 158.98 32.5061C159.064 32.52 158.703 32.5331 158.573 32.5255ZM46.1965 32.124C46.1157 32.1172 46.0628 32.0948 45.8849 32.1066C46.0639 32.1231 46.2428 32.1396 46.4217 32.1561C46.5607 32.1183 46.2848 32.1315 46.1965 32.124ZM45.5132 31.9857C45.5385 31.9848 45.4004 31.9266 45.727 31.9654C45.9476 31.9917 44.7479 32.0172 44.5313 31.9914C44.7706 31.9794 45.2957 31.9932 45.5132 31.9857ZM43.4118 31.7337C43.3979 31.7291 43.8537 31.7223 43.9065 31.7256C44.1835 31.7428 43.4866 31.7586 43.4118 31.7337ZM44.8658 31.7448C44.6521 31.7335 45.1256 31.7263 45.2668 31.7328C45.2804 31.7436 44.8989 31.7465 44.8658 31.7448ZM155.627 31.6825C155.396 31.6429 155.189 31.7281 155.545 31.7109C155.562 31.7101 155.637 31.6844 155.627 31.6825ZM43.8574 31.675C44.0711 31.6863 43.5976 31.6936 43.4565 31.6871C43.4433 31.6763 43.8248 31.6734 43.8574 31.675ZM155.464 31.5882C155.157 31.5598 155.265 31.6553 155.304 31.6592C155.462 31.6744 156.004 31.6369 156.115 31.6275C155.303 31.6419 155.609 31.6016 155.464 31.5882ZM154.048 31.6456C153.763 31.6558 154.491 31.6753 154.63 31.6487C154.488 31.6499 154.129 31.6427 154.048 31.6456ZM152.318 31.615C152.165 31.6115 151.709 31.6034 151.632 31.6184C151.8 31.6157 152.253 31.6304 152.318 31.615ZM151.971 31.5699C151.731 31.5495 151.674 31.609 151.95 31.5913C151.961 31.5906 151.98 31.5711 151.971 31.5699ZM150.624 31.5484C150.467 31.5248 150.288 31.5824 150.542 31.584C150.618 31.5843 150.641 31.5511 150.624 31.5484ZM155.08 31.4854C154.855 31.4753 154.565 31.5166 155.045 31.5211C154.877 31.5274 154.708 31.5337 154.539 31.54C155.168 31.5631 155.122 31.5059 155.303 31.5083C155.555 31.5116 155.536 31.5589 155.485 31.5737C155.692 31.5448 156.571 31.5443 157.08 31.5388C156.633 31.5266 155.908 31.5056 155.467 31.4979C155.341 31.4957 155.219 31.5086 155.112 31.5072C154.94 31.5048 155.093 31.4861 155.081 31.4854C155.081 31.4854 155.08 31.4854 155.08 31.4854ZM148.854 31.5476C148.392 31.5208 148.685 31.5787 148.945 31.5683C148.957 31.5675 148.866 31.5482 148.854 31.5476ZM43.245 31.4991C43.862 31.5233 43.4135 31.5554 44.7043 31.5067C44.162 31.5411 44.6743 31.5315 44.5685 31.5454C44.4836 31.5564 44.1654 31.5473 44.3503 31.5694C44.1072 31.5453 43.0517 31.552 43.0047 31.5481C43.0051 31.5481 43.0056 31.5481 43.006 31.5481C42.9777 31.5457 43.048 31.4914 43.245 31.4991ZM152.316 31.4636C152.162 31.3934 152.101 31.5048 151.798 31.4466C151.395 31.5312 152.912 31.4466 153.096 31.518C151.448 31.5097 154.184 31.5888 153.034 31.4819C153.982 31.5207 153.345 31.4687 153.491 31.455C153.647 31.4405 154.183 31.4563 154.156 31.4301C154.156 31.4301 154.155 31.4301 154.155 31.4301C153.827 31.432 153.5 31.4338 153.172 31.4356C153.493 31.4921 152.823 31.4752 152.596 31.4292C152.502 31.4406 152.409 31.4521 152.316 31.4636ZM154.171 31.5166C154.138 31.5153 153.425 31.5232 153.471 31.5345C153.567 31.5417 154.578 31.5331 154.171 31.5166ZM157.308 31.5042C157.052 31.5041 156.656 31.4931 156.517 31.5144C156.773 31.5145 157.169 31.5255 157.308 31.5042ZM144.128 31.5002C143.802 31.5177 144.806 31.5228 144.516 31.5022C144.501 31.5012 144.144 31.4994 144.128 31.5002ZM151.574 31.4742C151.242 31.4527 151.399 31.5211 151.644 31.5033C151.659 31.5022 151.589 31.4752 151.574 31.4742ZM43.745 31.4908C43.7672 31.4741 44.6625 31.4858 44.8212 31.4857C44.731 31.5012 43.7195 31.51 43.745 31.4908ZM157.758 31.4416C157.249 31.3814 156.558 31.451 156.482 31.4494C156.407 31.4479 156.525 31.4216 156.508 31.4209C156.469 31.4194 155.666 31.4216 155.627 31.4234C155.6 31.4249 155.745 31.4618 155.579 31.4735C155.902 31.4525 157.369 31.4656 157.446 31.4615C157.505 31.4582 157.06 31.4194 157.758 31.4416C157.758 31.4416 157.758 31.4416 157.758 31.4416ZM156.293 31.4414C156.493 31.4569 155.931 31.4588 155.795 31.4531C155.493 31.4403 156.267 31.4395 156.293 31.4414ZM154.941 31.4271C154.876 31.4236 154.297 31.4205 154.248 31.4377C154.522 31.4601 155.086 31.4352 154.941 31.4271ZM148.492 31.4294C148.342 31.4316 147.928 31.4184 147.904 31.4334C148.055 31.4312 148.469 31.4445 148.492 31.4294ZM46.7996 31.3592C46.5496 31.3466 47.1289 31.3414 47.2979 31.3475C47.307 31.3575 46.8209 31.3603 46.7996 31.3592ZM151.517 31.33C151.428 31.3255 149.61 31.3369 149.355 31.344C149.605 31.3554 151.406 31.3562 151.488 31.3507C151.512 31.349 151.529 31.3308 151.517 31.33ZM155.449 31.3231C155.616 31.3009 155.724 31.3275 155.745 31.3278C155.952 31.3312 156.379 31.3262 156.285 31.3476C155.922 31.339 155.117 31.3672 155.449 31.3231ZM148.363 31.3289C147.746 31.3372 148.932 31.3606 148.776 31.3374C148.766 31.336 148.427 31.3281 148.363 31.3289ZM151.72 31.3236C151.857 31.3056 153.675 31.3211 153.967 31.3211C153.706 31.3542 153.495 31.3291 153.144 31.3308C153.049 31.3313 153.074 31.345 153.064 31.3451C152.9 31.3457 153.023 31.3298 152.921 31.3296C152.857 31.3294 151.529 31.3489 151.72 31.3236ZM155.544 31.3077C155.646 31.295 156.781 31.2895 156.827 31.2929C157.169 31.3181 155.632 31.3121 155.544 31.3077ZM151.554 31.2942C151.749 31.2557 152.652 31.2814 152.034 31.3006C151.975 31.3024 151.725 31.2857 151.554 31.2942ZM148.429 31.2923C148.399 31.2912 147.755 31.2835 147.744 31.2957C147.837 31.3005 148.775 31.3048 148.429 31.2923ZM148.763 31.2509C148.747 31.2512 148.898 31.2748 148.596 31.2718C148.571 31.2715 148.524 31.245 148.145 31.2547C148.068 31.2567 147.949 31.2743 147.957 31.2754C148.352 31.317 149.542 31.2373 148.763 31.2509ZM155.565 31.2862C155.504 31.275 155.651 31.2418 155.784 31.2586C155.841 31.2659 155.735 31.2858 155.565 31.2862ZM146.388 31.2816C146.762 31.2614 145.588 31.2576 145.528 31.2628C145.566 31.2753 146.351 31.2835 146.388 31.2816ZM47.385 31.2037C47.3847 31.2037 47.3844 31.2037 47.3842 31.2037C47.6989 31.2083 47.5039 31.225 47.5187 31.2255C48.189 31.2502 48.0112 31.2122 48.1161 31.2077C48.3408 31.198 48.3046 31.2442 48.6838 31.225C48.057 31.2533 48.6275 31.2415 48.6453 31.2579C48.7155 31.3249 47.8108 31.2265 47.4983 31.2406C47.4548 31.2425 47.7763 31.2639 47.6647 31.27C47.302 31.2897 46.1774 31.1862 47.385 31.2037ZM155.887 31.2557C156.033 31.236 157.14 31.2551 156.847 31.2713C156.8 31.2739 155.672 31.2844 155.887 31.2557ZM104.154 31.2266C104.42 31.2096 103.803 31.1896 103.689 31.2028C103.632 31.2094 104.037 31.2341 104.154 31.2266ZM99.8286 31.1538C99.5124 31.1572 99.179 31.2283 99.5724 31.2172C99.6142 31.216 99.8649 31.1636 99.8286 31.1538ZM120.596 31.1903C120.266 31.1649 120.286 31.212 120.528 31.2114C120.614 31.2112 120.607 31.1911 120.596 31.1903ZM107.992 31.1964C107.959 31.1947 107.577 31.1977 107.591 31.2086C107.732 31.2151 108.206 31.2077 107.992 31.1964ZM120.701 31.1836C120.505 31.1921 120.842 31.2262 121.082 31.1928C120.96 31.1956 120.721 31.1827 120.701 31.1836ZM150.871 31.1899C150.707 31.2093 150.243 31.2034 149.977 31.2067C149.948 31.1817 150.681 31.1945 150.871 31.1899ZM101.171 31.1823C100.872 31.2 101.513 31.2145 101.454 31.1911C101.446 31.1898 101.183 31.1816 101.171 31.1823ZM131.251 31.181C131.033 31.196 131.724 31.2161 131.534 31.1898C131.525 31.1887 131.263 31.1802 131.251 31.181ZM134.268 31.1897C134.103 31.1846 133.399 31.1862 133.673 31.2008C133.716 31.203 134.256 31.2034 134.268 31.1897ZM48.1346 31.1896C48.0457 31.1639 48.5621 31.17 48.636 31.1745C48.665 31.1764 48.2507 31.2232 48.1346 31.1896ZM118.452 31.1862C118.281 31.1895 117.837 31.1833 117.759 31.1969C117.968 31.1941 118.508 31.2132 118.452 31.1862ZM102.536 31.1822C102.276 31.1542 101.83 31.157 101.94 31.1936C102.432 31.1911 101.879 31.1607 102.536 31.1822ZM121.802 31.1534C121.665 31.1513 121.56 31.1864 121.575 31.1881C121.724 31.2038 121.938 31.1671 121.802 31.1534ZM111.519 31.1823C111.511 31.1673 111.072 31.1741 111.131 31.1838C111.15 31.187 111.526 31.1945 111.519 31.1823ZM145.119 31.1814C144.917 31.1676 145.532 31.1542 145.714 31.1702C145.802 31.1933 145.144 31.1829 145.119 31.1814ZM125.602 31.1622C125.622 31.1399 124.935 31.1525 125.206 31.171C125.274 31.1756 125.594 31.1696 125.602 31.1622ZM132.174 31.1355C131.714 31.162 133.647 31.1809 133.139 31.1478C133.103 31.1454 132.214 31.1332 132.174 31.1355ZM135.332 31.1521C135.253 31.1491 135.292 31.0742 135.621 31.1031C135.664 31.1069 135.462 31.1267 135.498 31.1312C135.518 31.1338 136.233 31.1443 136.266 31.1425C136.302 31.1405 136.26 31.1165 136.296 31.1138C136.336 31.1108 136.777 31.1319 137.007 31.1322C137.441 31.1326 137.488 31.1126 137.524 31.1125C137.628 31.1124 137.802 31.1266 138.012 31.1265C139.073 31.1264 140.694 31.1094 141.535 31.1518C140.787 31.1348 140.074 31.1528 139.33 31.1584C139.548 31.1167 138.235 31.1905 139.003 31.1424C138.649 31.1529 135.593 31.1612 135.333 31.1521C135.333 31.1521 135.333 31.1521 135.332 31.1521ZM98.5803 31.1328C98.7746 31.1072 97.7777 31.1129 97.6931 31.1425C97.8247 31.1466 98.5563 31.1357 98.5803 31.1328ZM103.18 31.0704C103.272 31.066 103.36 31.016 103.846 31.0413C103.846 31.0413 103.847 31.0413 103.847 31.0413C103.989 31.0487 103.827 31.0609 103.853 31.0653C103.863 31.067 104.305 31.0919 103.938 31.0959C103.377 31.102 103.885 31.0587 103.586 31.0582C103.549 31.0581 102.984 31.0852 103.016 31.0911C103.02 31.0918 103.19 31.0861 103.218 31.0886C103.324 31.0979 103.273 31.1135 103.288 31.1142C103.337 31.1161 104.232 31.0895 104.362 31.1127C104.404 31.1202 102.935 31.1375 102.878 31.1336C102.842 31.1312 102.857 31.0878 102.82 31.0836C102.8 31.0814 102.209 31.0977 102.133 31.0937C102.111 31.0925 102.093 31.0913 102.081 31.0903C102.17 31.1037 101.635 31.1027 101.652 31.0876C101.661 31.0817 102.029 31.0851 102.042 31.0861C102.048 31.0866 102.053 31.0872 102.058 31.0876C101.982 31.0713 103.229 31.072 102.959 31.0477C103.321 31.0344 102.908 31.0834 103.18 31.0704ZM104.917 31.0437C104.88 31.0482 104.842 31.0528 104.805 31.0573C105.438 31.0462 106.168 31.0681 106.897 31.0679C107.082 31.0679 106.869 31.0401 107.111 31.0477C107.306 31.0538 107.521 31.0796 107.415 31.0854C107.389 31.0868 106.994 31.07 106.796 31.0717C106.212 31.0768 106.359 31.1007 106.325 31.1014C106.287 31.1021 105.92 31.0853 105.719 31.086C105.214 31.0879 104.983 31.1026 104.294 31.0834C104.692 31.0677 104.474 31.0335 104.917 31.0437ZM128.501 31.0946C128.525 31.0795 128.939 31.0929 129.09 31.0907C129.066 31.1057 128.652 31.0923 128.501 31.0946ZM66.8 31.075C66.6728 31.0997 67.626 31.1058 67.3748 31.0853C67.3192 31.0807 66.9198 31.0752 66.8 31.075ZM71.0821 31.09C71.2096 31.0832 70.6962 31.0654 70.6971 31.0845C70.6979 31.0907 71.0657 31.0909 71.0821 31.09ZM113.096 31.0679C113.12 31.0672 113.471 31.0727 113.482 31.0739C113.714 31.1001 112.56 31.085 113.096 31.0679ZM76.2878 31.0596C75.8433 31.0758 77.1811 31.0828 76.7723 31.0622C76.7519 31.0612 76.3091 31.0589 76.2878 31.0596ZM78.1472 31.0551C78.0406 31.056 77.5675 31.048 77.5613 31.0555C77.5519 31.0676 78.0934 31.0759 78.1472 31.0551ZM121.894 31.0601C121.843 31.0323 122.467 31.0534 122.684 31.0499C122.735 31.0777 122.111 31.0566 121.894 31.0601ZM117.956 31.0396C120.586 31.0177 120.007 31.0771 117.8 31.0532C117.797 31.0353 117.79 31.041 117.956 31.0396ZM121.324 31.0429C121.229 31.0607 120.93 31.0555 120.728 31.054C120.764 31.0416 121.179 31.0461 121.324 31.0429ZM65.665 31.0368C65.8299 31.0143 66.5604 31.0421 66.4305 31.0513C66.4003 31.0533 65.6044 31.0492 65.665 31.0368ZM113.316 31.0441C113.255 31.0171 114.045 31.0281 114.105 31.0341C114.349 31.0583 113.38 31.0382 113.316 31.0441ZM125.627 31.0363C125.767 31.0151 126.163 31.026 126.417 31.0263C126.302 31.0444 125.843 31.0367 125.627 31.0363ZM123.788 31.0197C123.804 31.0189 124.159 31.0208 124.175 31.0218C124.466 31.0425 123.461 31.0372 123.788 31.0197ZM46.9487 31.0002C46.9606 30.9995 47.2296 31.0009 47.239 31.0017C47.4792 31.022 46.6716 31.0178 46.9487 31.0002Z" fill="url(#paint2_linear_1726_221)"/>
<defs>
<linearGradient id="paint0_linear_1726_221" x1="0.499999" y1="8.5" x2="42" y2="51.5" gradientUnits="userSpaceOnUse">
<stop stop-color="#34D399"/>
<stop offset="1" stop-color="#0FE999"/>
</linearGradient>
<linearGradient id="paint1_linear_1726_221" x1="18.3044" y1="9" x2="18.3044" y2="26.5434" gradientUnits="userSpaceOnUse">
<stop stop-color="#047857"/>
<stop offset="1" stop-color="#0B241D"/>
</linearGradient>
<linearGradient id="paint2_linear_1726_221" x1="43" y1="32.5" x2="159" y2="32.5" gradientUnits="userSpaceOnUse">
<stop stop-color="#34D399"/>
<stop offset="0.153846" stop-color="#35D298"/>
<stop offset="1" stop-color="#B1F7DE"/>
</linearGradient>
</defs>
</svg>
