<svg width="304" height="37" viewBox="0 0 304 37" fill="none" xmlns="http://www.w3.org/2000/svg">
<path d="M44.2912 24V10.9091H46.6626V16.924H46.8224L51.9297 10.9091H54.8253L49.7628 16.7834L54.87 24H52.0192L48.1136 18.3878L46.6626 20.1009V24H44.2912ZM57.0881 27.6818C56.7727 27.6818 56.4808 27.6563 56.2124 27.6051C55.9482 27.5582 55.7372 27.5028 55.5795 27.4389L56.1165 25.6364C56.4531 25.7344 56.7536 25.7813 57.0178 25.777C57.282 25.7727 57.5142 25.6896 57.7145 25.5277C57.919 25.37 58.0916 25.1058 58.2322 24.7351L58.4304 24.2045L54.87 14.1818H57.3246L59.5874 21.5966H59.6896L61.9588 14.1818H64.4197L60.4886 25.1889C60.3054 25.7088 60.0625 26.1541 59.7599 26.5249C59.4574 26.8999 59.0866 27.1854 58.6477 27.3814C58.2131 27.5817 57.6932 27.6818 57.0881 27.6818ZM68.3349 10.9091V24H66.021V10.9091H68.3349ZM75.0609 24.1918C74.0765 24.1918 73.2264 23.9872 72.5105 23.5781C71.7988 23.1648 71.2512 22.581 70.8677 21.8267C70.4842 21.0682 70.2924 20.1754 70.2924 19.1484C70.2924 18.1385 70.4842 17.2521 70.8677 16.4893C71.2555 15.7223 71.7967 15.1257 72.4913 14.6996C73.1859 14.2692 74.002 14.054 74.9395 14.054C75.5446 14.054 76.1156 14.152 76.6525 14.348C77.1937 14.5398 77.671 14.8381 78.0843 15.2429C78.502 15.6477 78.8301 16.1634 79.0687 16.7898C79.3074 17.4119 79.4267 18.1534 79.4267 19.0142V19.7237H71.3791V18.1641H77.2086C77.2044 17.7209 77.1085 17.3267 76.921 16.9815C76.7335 16.6321 76.4714 16.3572 76.1348 16.157C75.8024 15.9567 75.4146 15.8565 74.9714 15.8565C74.4984 15.8565 74.0829 15.9716 73.725 16.2017C73.367 16.4276 73.0879 16.7259 72.8876 17.0966C72.6916 17.4631 72.5914 17.8658 72.5872 18.3047V19.6662C72.5872 20.2372 72.6916 20.7273 72.9004 21.1364C73.1092 21.5412 73.4011 21.8523 73.7761 22.0696C74.1511 22.2827 74.59 22.3892 75.0929 22.3892C75.4295 22.3892 75.7342 22.3423 76.0069 22.2486C76.2797 22.1506 76.5162 22.0078 76.7164 21.8203C76.9167 21.6328 77.068 21.4006 77.1703 21.1236L79.3308 21.3665C79.1944 21.9375 78.9345 22.4361 78.551 22.8622C78.1717 23.2841 77.6859 23.6122 77.0936 23.8466C76.5012 24.0767 75.8237 24.1918 75.0609 24.1918ZM85.9513 10.9091H88.8533L92.7397 20.3949H92.8931L96.7795 10.9091H99.6815V24H97.4059V15.0064H97.2844L93.6665 23.9616H91.9663L88.3484 14.9872H88.2269V24H85.9513V10.9091ZM106.444 24.1918C105.464 24.1918 104.623 23.9766 103.919 23.5462C103.221 23.1158 102.681 22.5213 102.302 21.7628C101.927 21 101.74 20.1222 101.74 19.1293C101.74 18.1321 101.931 17.2521 102.315 16.4893C102.699 15.7223 103.24 15.1257 103.939 14.6996C104.642 14.2692 105.473 14.054 106.431 14.054C107.228 14.054 107.934 14.201 108.547 14.495C109.165 14.7848 109.657 15.196 110.024 15.7287C110.39 16.2571 110.599 16.875 110.65 17.5824H108.439C108.349 17.1094 108.136 16.7152 107.799 16.3999C107.467 16.0803 107.022 15.9205 106.463 15.9205C105.99 15.9205 105.575 16.0483 105.217 16.304C104.859 16.5554 104.58 16.9176 104.38 17.3906C104.184 17.8636 104.086 18.4304 104.086 19.0909C104.086 19.7599 104.184 20.3352 104.38 20.8168C104.576 21.294 104.85 21.6626 105.204 21.9226C105.562 22.1783 105.982 22.3061 106.463 22.3061C106.804 22.3061 107.109 22.2422 107.377 22.1143C107.65 21.9822 107.878 21.7926 108.061 21.5455C108.245 21.2983 108.37 20.9979 108.439 20.6442H110.65C110.595 21.3388 110.39 21.9545 110.037 22.4915C109.683 23.0241 109.201 23.4418 108.592 23.7443C107.983 24.0426 107.267 24.1918 106.444 24.1918ZM121.422 15.0895C121.316 14.7443 121.169 14.4354 120.981 14.1626C120.798 13.8857 120.577 13.6491 120.317 13.4531C120.061 13.2571 119.767 13.1101 119.434 13.0121C119.102 12.9098 118.74 12.8587 118.348 12.8587C117.645 12.8587 117.018 13.0355 116.469 13.3892C115.919 13.7429 115.486 14.2628 115.171 14.9489C114.86 15.6307 114.704 16.4616 114.704 17.4418C114.704 18.4304 114.86 19.2678 115.171 19.9538C115.482 20.6399 115.915 21.1619 116.469 21.5199C117.023 21.8736 117.666 22.0504 118.399 22.0504C119.064 22.0504 119.639 21.9226 120.125 21.6669C120.615 21.4112 120.992 21.049 121.256 20.5803C121.52 20.1072 121.653 19.5533 121.653 18.9183L122.189 19.0014H118.635V17.1477H123.947V18.7202C123.947 19.8409 123.709 20.8104 123.231 21.6286C122.754 22.4467 122.098 23.0774 121.263 23.5206C120.427 23.9595 119.469 24.179 118.386 24.179C117.18 24.179 116.121 23.9084 115.209 23.3672C114.302 22.8217 113.592 22.0483 113.081 21.0469C112.574 20.0412 112.32 18.848 112.32 17.4673C112.32 16.4105 112.469 15.4666 112.768 14.6357C113.07 13.8047 113.492 13.0994 114.033 12.5199C114.574 11.9361 115.209 11.4929 115.938 11.1903C116.667 10.8835 117.459 10.7301 118.316 10.7301C119.04 10.7301 119.716 10.8366 120.342 11.0497C120.969 11.2585 121.525 11.5568 122.01 11.9446C122.501 12.3324 122.903 12.7926 123.219 13.3253C123.534 13.858 123.741 14.446 123.839 15.0895H121.422ZM126.138 24V14.1818H128.382V15.8182H128.484C128.663 15.2514 128.97 14.8146 129.404 14.5078C129.843 14.1967 130.344 14.0412 130.907 14.0412C131.034 14.0412 131.177 14.0476 131.335 14.0604C131.497 14.0689 131.631 14.0838 131.738 14.1051V16.2337C131.64 16.1996 131.484 16.1697 131.271 16.1442C131.062 16.1143 130.86 16.0994 130.664 16.0994C130.242 16.0994 129.863 16.1911 129.526 16.3743C129.194 16.5533 128.931 16.8026 128.74 17.1222C128.548 17.4418 128.452 17.8104 128.452 18.228V24H126.138ZM135.924 24.1982C135.302 24.1982 134.742 24.0874 134.243 23.8658C133.749 23.6399 133.357 23.3075 133.067 22.8686C132.782 22.4297 132.639 21.8885 132.639 21.245C132.639 20.6911 132.741 20.233 132.946 19.8707C133.15 19.5085 133.429 19.2188 133.783 19.0014C134.137 18.7841 134.535 18.62 134.978 18.5092C135.426 18.3942 135.888 18.3111 136.365 18.2599C136.941 18.2003 137.407 18.147 137.765 18.1001C138.123 18.049 138.383 17.9723 138.545 17.87C138.711 17.7635 138.794 17.5994 138.794 17.3778V17.3395C138.794 16.858 138.652 16.4851 138.366 16.2209C138.081 15.9567 137.669 15.8246 137.132 15.8246C136.566 15.8246 136.116 15.9482 135.784 16.1953C135.456 16.4425 135.234 16.7344 135.119 17.071L132.958 16.7642C133.129 16.1676 133.41 15.669 133.802 15.2685C134.194 14.8636 134.674 14.5611 135.24 14.3608C135.807 14.1562 136.434 14.054 137.12 14.054C137.593 14.054 138.064 14.1094 138.532 14.2202C139.001 14.331 139.429 14.5142 139.817 14.7699C140.205 15.0213 140.516 15.3643 140.75 15.799C140.989 16.2337 141.108 16.777 141.108 17.429V24H138.884V22.6513H138.807C138.667 22.924 138.468 23.1797 138.213 23.4183C137.961 23.6527 137.644 23.8423 137.26 23.9872C136.881 24.1278 136.436 24.1982 135.924 24.1982ZM136.525 22.4979C136.99 22.4979 137.392 22.4062 137.733 22.223C138.074 22.0355 138.336 21.7884 138.52 21.4815C138.707 21.1747 138.801 20.8402 138.801 20.478V19.321C138.728 19.3807 138.605 19.4361 138.43 19.4872C138.26 19.5384 138.068 19.5831 137.855 19.6214C137.642 19.6598 137.431 19.6939 137.222 19.7237C137.013 19.7536 136.832 19.7791 136.679 19.8004C136.333 19.8473 136.025 19.924 135.752 20.0305C135.479 20.1371 135.264 20.2862 135.106 20.478C134.949 20.6655 134.87 20.9084 134.87 21.2067C134.87 21.6328 135.025 21.9545 135.336 22.1719C135.647 22.3892 136.044 22.4979 136.525 22.4979ZM145.461 24L142.687 14.1818H145.046L146.772 21.0852H146.861L148.625 14.1818H150.958L152.723 21.0469H152.819L154.519 14.1818H156.884L154.103 24H151.694L149.853 17.3651H149.718L147.877 24H145.461Z" fill="#F3F4F6"/>
<path d="M173.585 24V10.9091H178.009C179.036 10.9091 179.875 11.0945 180.527 11.4652C181.183 11.8317 181.669 12.3281 181.984 12.9545C182.3 13.581 182.457 14.2798 182.457 15.0511C182.457 15.8224 182.3 16.5234 181.984 17.1541C181.673 17.7848 181.192 18.2876 180.54 18.6626C179.888 19.0334 179.053 19.2188 178.034 19.2188H174.864V17.8125H177.983C178.686 17.8125 179.251 17.6911 179.677 17.4482C180.103 17.2053 180.412 16.8771 180.604 16.4638C180.8 16.0462 180.898 15.5753 180.898 15.0511C180.898 14.527 180.8 14.0582 180.604 13.6449C180.412 13.2315 180.101 12.9077 179.67 12.6733C179.24 12.4347 178.669 12.3153 177.957 12.3153H175.17V24H173.585ZM184.806 24V14.1818H186.264V15.6648H186.366C186.545 15.179 186.869 14.7848 187.338 14.4822C187.806 14.1797 188.335 14.0284 188.923 14.0284C189.034 14.0284 189.172 14.0305 189.338 14.0348C189.505 14.0391 189.63 14.0455 189.716 14.054V15.5881C189.664 15.5753 189.547 15.5561 189.364 15.5305C189.185 15.5007 188.995 15.4858 188.795 15.4858C188.318 15.4858 187.892 15.5859 187.517 15.7862C187.146 15.9822 186.852 16.255 186.635 16.6044C186.422 16.9496 186.315 17.3437 186.315 17.7869V24H184.806ZM195.194 24.2045C194.307 24.2045 193.529 23.9936 192.86 23.5717C192.196 23.1499 191.676 22.5597 191.301 21.8011C190.93 21.0426 190.745 20.1562 190.745 19.142C190.745 18.1193 190.93 17.2266 191.301 16.4638C191.676 15.701 192.196 15.1087 192.86 14.6868C193.529 14.2649 194.307 14.054 195.194 14.054C196.08 14.054 196.855 14.2649 197.52 14.6868C198.189 15.1087 198.709 15.701 199.08 16.4638C199.455 17.2266 199.642 18.1193 199.642 19.142C199.642 20.1562 199.455 21.0426 199.08 21.8011C198.709 22.5597 198.189 23.1499 197.52 23.5717C196.855 23.9936 196.08 24.2045 195.194 24.2045ZM195.194 22.8494C195.867 22.8494 196.421 22.6768 196.855 22.3317C197.29 21.9865 197.612 21.5327 197.821 20.9702C198.029 20.4077 198.134 19.7983 198.134 19.142C198.134 18.4858 198.029 17.8743 197.821 17.3075C197.612 16.7408 197.29 16.2827 196.855 15.9332C196.421 15.5838 195.867 15.4091 195.194 15.4091C194.52 15.4091 193.966 15.5838 193.532 15.9332C193.097 16.2827 192.775 16.7408 192.566 17.3075C192.358 17.8743 192.253 18.4858 192.253 19.142C192.253 19.7983 192.358 20.4077 192.566 20.9702C192.775 21.5327 193.097 21.9865 193.532 22.3317C193.966 22.6768 194.52 22.8494 195.194 22.8494ZM205.653 24.2045C204.834 24.2045 204.112 23.9979 203.486 23.5845C202.859 23.1669 202.369 22.5788 202.015 21.8203C201.662 21.0575 201.485 20.1562 201.485 19.1165C201.485 18.0852 201.662 17.1903 202.015 16.4318C202.369 15.6733 202.861 15.0874 203.492 14.674C204.123 14.2607 204.851 14.054 205.678 14.054C206.317 14.054 206.822 14.1605 207.193 14.3736C207.568 14.5824 207.854 14.821 208.05 15.0895C208.25 15.3537 208.405 15.571 208.516 15.7415H208.644V10.9091H210.153V24H208.695V22.4915H208.516C208.405 22.6705 208.248 22.8963 208.043 23.169C207.839 23.4375 207.547 23.6783 207.167 23.8913C206.788 24.1001 206.283 24.2045 205.653 24.2045ZM205.857 22.8494C206.462 22.8494 206.974 22.6918 207.391 22.3764C207.809 22.0568 208.126 21.6158 208.344 21.0533C208.561 20.4865 208.67 19.8324 208.67 19.0909C208.67 18.358 208.563 17.7166 208.35 17.1669C208.137 16.6129 207.822 16.1825 207.404 15.8757C206.986 15.5646 206.471 15.4091 205.857 15.4091C205.218 15.4091 204.685 15.5732 204.259 15.9013C203.837 16.2251 203.52 16.6662 203.307 17.2244C203.098 17.7784 202.993 18.4006 202.993 19.0909C202.993 19.7898 203.1 20.4247 203.313 20.9957C203.53 21.5625 203.85 22.0142 204.272 22.3509C204.698 22.6832 205.226 22.8494 205.857 22.8494ZM219.312 19.9858V14.1818H220.821V24H219.312V22.3381H219.21C218.98 22.8366 218.622 23.2607 218.136 23.6101C217.65 23.9553 217.037 24.1278 216.295 24.1278C215.682 24.1278 215.136 23.9936 214.659 23.7251C214.182 23.4524 213.807 23.0433 213.534 22.4979C213.261 21.9482 213.125 21.2557 213.125 20.4205V14.1818H214.633V20.3182C214.633 21.0341 214.834 21.6051 215.234 22.0312C215.639 22.4574 216.155 22.6705 216.781 22.6705C217.156 22.6705 217.537 22.5746 217.925 22.3828C218.317 22.1911 218.645 21.897 218.91 21.5007C219.178 21.1044 219.312 20.5994 219.312 19.9858ZM227.572 24.2045C226.652 24.2045 225.859 23.9872 225.195 23.5526C224.53 23.1179 224.018 22.5192 223.661 21.7564C223.303 20.9936 223.124 20.1222 223.124 19.142C223.124 18.1449 223.307 17.2649 223.673 16.5021C224.044 15.7351 224.56 15.1364 225.22 14.706C225.885 14.2713 226.661 14.054 227.547 14.054C228.237 14.054 228.859 14.1818 229.413 14.4375C229.967 14.6932 230.421 15.0511 230.775 15.5114C231.129 15.9716 231.348 16.5085 231.433 17.1222H229.925C229.81 16.6747 229.554 16.2784 229.158 15.9332C228.766 15.5838 228.237 15.4091 227.572 15.4091C226.984 15.4091 226.469 15.5625 226.026 15.8693C225.587 16.1719 225.244 16.6001 224.996 17.1541C224.754 17.7038 224.632 18.3494 224.632 19.0909C224.632 19.8494 224.751 20.5099 224.99 21.0724C225.233 21.6349 225.574 22.0717 226.013 22.3828C226.456 22.6939 226.976 22.8494 227.572 22.8494C227.964 22.8494 228.32 22.7812 228.64 22.6449C228.96 22.5085 229.23 22.3125 229.452 22.0568C229.673 21.8011 229.831 21.4943 229.925 21.1364H231.433C231.348 21.7159 231.137 22.2379 230.8 22.7024C230.468 23.1626 230.027 23.5291 229.477 23.8018C228.932 24.0703 228.297 24.2045 227.572 24.2045ZM237.908 14.1818V15.4602H232.82V14.1818H237.908ZM234.303 11.8295H235.812V21.1875C235.812 21.6136 235.874 21.9332 235.997 22.1463C236.125 22.3551 236.287 22.4957 236.483 22.5682C236.683 22.6364 236.894 22.6705 237.116 22.6705C237.282 22.6705 237.418 22.6619 237.525 22.6449C237.631 22.6236 237.717 22.6065 237.781 22.5938L238.087 23.9489C237.985 23.9872 237.842 24.0256 237.659 24.0639C237.476 24.1065 237.244 24.1278 236.962 24.1278C236.536 24.1278 236.119 24.0362 235.71 23.853C235.305 23.6697 234.968 23.3906 234.7 23.0156C234.435 22.6406 234.303 22.1676 234.303 21.5966V11.8295ZM256.49 17.4545C256.49 18.8352 256.241 20.0284 255.742 21.0341C255.244 22.0398 254.56 22.8153 253.69 23.3608C252.821 23.9062 251.828 24.179 250.712 24.179C249.595 24.179 248.602 23.9062 247.733 23.3608C246.864 22.8153 246.18 22.0398 245.681 21.0341C245.183 20.0284 244.933 18.8352 244.933 17.4545C244.933 16.0739 245.183 14.8807 245.681 13.875C246.18 12.8693 246.864 12.0938 247.733 11.5483C248.602 11.0028 249.595 10.7301 250.712 10.7301C251.828 10.7301 252.821 11.0028 253.69 11.5483C254.56 12.0938 255.244 12.8693 255.742 13.875C256.241 14.8807 256.49 16.0739 256.49 17.4545ZM254.956 17.4545C254.956 16.321 254.766 15.3643 254.387 14.5845C254.012 13.8047 253.503 13.2145 252.859 12.8139C252.22 12.4134 251.504 12.2131 250.712 12.2131C249.919 12.2131 249.201 12.4134 248.558 12.8139C247.918 13.2145 247.409 13.8047 247.03 14.5845C246.655 15.3643 246.467 16.321 246.467 17.4545C246.467 18.5881 246.655 19.5447 247.03 20.3246C247.409 21.1044 247.918 21.6946 248.558 22.0952C249.201 22.4957 249.919 22.696 250.712 22.696C251.504 22.696 252.22 22.4957 252.859 22.0952C253.503 21.6946 254.012 21.1044 254.387 20.3246C254.766 19.5447 254.956 18.5881 254.956 17.4545ZM261.175 24L258.184 14.1818H259.769L261.891 21.6989H261.994L264.09 14.1818H265.701L267.772 21.6733H267.874L269.996 14.1818H271.582L268.59 24H267.107L264.96 16.4574H264.806L262.658 24H261.175ZM275.085 18.0938V24H273.576V14.1818H275.033V15.7159H275.161C275.391 15.2173 275.741 14.8168 276.21 14.5142C276.678 14.2074 277.283 14.054 278.025 14.054C278.69 14.054 279.271 14.1903 279.77 14.4631C280.268 14.7315 280.656 15.1406 280.933 15.6903C281.21 16.2358 281.349 16.9261 281.349 17.7614V24H279.84V17.8636C279.84 17.0923 279.64 16.4915 279.239 16.0611C278.839 15.6264 278.289 15.4091 277.59 15.4091C277.109 15.4091 276.678 15.5135 276.299 15.7223C275.924 15.9311 275.628 16.2358 275.411 16.6364C275.193 17.0369 275.085 17.5227 275.085 18.0938ZM288.222 24.2045C287.276 24.2045 286.46 23.9957 285.774 23.5781C285.092 23.1562 284.566 22.5682 284.195 21.8139C283.828 21.0554 283.645 20.1733 283.645 19.1676C283.645 18.1619 283.828 17.2756 284.195 16.5085C284.566 15.7372 285.081 15.1364 285.742 14.706C286.406 14.2713 287.182 14.054 288.068 14.054C288.58 14.054 289.085 14.1392 289.583 14.3097C290.082 14.4801 290.536 14.7571 290.945 15.1406C291.354 15.5199 291.68 16.0227 291.923 16.6491C292.166 17.2756 292.287 18.0469 292.287 18.9631V19.6023H284.719V18.2983H290.753C290.753 17.7443 290.642 17.25 290.421 16.8153C290.203 16.3807 289.892 16.0376 289.487 15.7862C289.087 15.5348 288.614 15.4091 288.068 15.4091C287.468 15.4091 286.948 15.5582 286.509 15.8565C286.074 16.1506 285.74 16.5341 285.505 17.0071C285.271 17.4801 285.154 17.9872 285.154 18.5284V19.3977C285.154 20.1392 285.281 20.7678 285.537 21.2834C285.797 21.7947 286.157 22.1847 286.617 22.4531C287.078 22.7173 287.612 22.8494 288.222 22.8494C288.618 22.8494 288.976 22.794 289.296 22.6832C289.619 22.5682 289.899 22.3977 290.133 22.1719C290.367 21.9418 290.548 21.6562 290.676 21.3153L292.134 21.7244C291.98 22.2188 291.722 22.6534 291.36 23.0284C290.998 23.3991 290.551 23.6889 290.018 23.8977C289.485 24.1023 288.887 24.2045 288.222 24.2045ZM294.582 24V14.1818H296.039V15.6648H296.142C296.32 15.179 296.644 14.7848 297.113 14.4822C297.582 14.1797 298.11 14.0284 298.698 14.0284C298.809 14.0284 298.948 14.0305 299.114 14.0348C299.28 14.0391 299.406 14.0455 299.491 14.054V15.5881C299.44 15.5753 299.323 15.5561 299.139 15.5305C298.96 15.5007 298.771 15.4858 298.57 15.4858C298.093 15.4858 297.667 15.5859 297.292 15.7862C296.921 15.9822 296.627 16.255 296.41 16.6044C296.197 16.9496 296.09 17.3437 296.09 17.7869V24H294.582Z" fill="#9CA3AF"/>
<path d="M172 34H300" stroke="#34D399" stroke-width="2"/>
<mask id="path-4-inside-1_1726_220" fill="white">
<path d="M4 13C4 7.47715 8.47715 3 14 3H23C28.5228 3 33 7.47715 33 13V22C33 27.5228 28.5228 32 23 32H14C8.47715 32 4 27.5228 4 22V13Z"/>
</mask>
<path d="M4 13C4 7.47715 8.47715 3 14 3H23C28.5228 3 33 7.47715 33 13V22C33 27.5228 28.5228 32 23 32H14C8.47715 32 4 27.5228 4 22V13Z" fill="url(#paint0_linear_1726_220)"/>
<path d="M14 3C15.6472 3.06667 17.2945 3.13 18.9417 3.19C20.2945 3.23927 21.6472 3.2863 23 3.33108C28.1575 3.39664 32.4815 8.08883 32.25 13C32.1893 16 32.1396 19 32.101 22C32.1434 26.8458 27.7864 31.1141 23 31C20 31 17 31.0111 14 31.0332C9.19908 31.1893 4.74761 26.9284 4.75 22C4.68929 19 4.61753 16 4.53471 13C4.39907 9.58982 6.28466 6.13605 9.34661 4.36171C10.7392 3.5394 12.3508 3.06434 14 3C12.3515 2.93073 10.6714 3.28041 9.1661 4.02733C5.86157 5.62499 3.52541 9.197 3.46529 13C3.38247 16 3.31071 19 3.25 22C2.99336 27.7248 8.14769 33.0697 14 32.9668C17 32.9889 20 33 23 33C23 33 23 33 23 33C28.8669 33.145 34.1156 27.8075 33.899 22C33.8604 19 33.8107 16 33.75 13C33.7775 7.25794 28.4958 2.34433 23 2.66892C21.6472 2.7137 20.2945 2.76073 18.9417 2.81C17.2945 2.87 15.6472 2.93333 14 3Z" fill="#059669" mask="url(#path-4-inside-1_1726_220)"/>
<path d="M18.2883 10.8382V17.7717L16.7081 16.8687C13.9024 15.2563 12.161 12.2571 12.161 9H11V16.9332C11 19.5132 12.4834 21.8996 14.8376 23.0283L18.3205 24.7052V17.7717L19.9007 18.6747C22.7064 20.2871 24.4478 23.2863 24.4478 26.5434H25.6088V18.6102C25.6088 16.0303 24.1253 13.6438 21.7711 12.5151L18.2883 10.8382Z" fill="url(#paint1_linear_1726_220)"/>
<defs>
<linearGradient id="paint0_linear_1726_220" x1="0.499999" y1="8.5" x2="42" y2="51.5" gradientUnits="userSpaceOnUse">
<stop stop-color="#34D399"/>
<stop offset="1" stop-color="#0FE999"/>
</linearGradient>
<linearGradient id="paint1_linear_1726_220" x1="18.3044" y1="9" x2="18.3044" y2="26.5434" gradientUnits="userSpaceOnUse">
<stop stop-color="#047857"/>
<stop offset="1" stop-color="#0B241D"/>
</linearGradient>
</defs>
</svg>
