<svg viewBox="0 0 590.7 130.8" xmlns="http://www.w3.org/2000/svg">
  <style>
    .st0 { fill: currentColor; }
  </style>
  <path class="st0" d="M53.3,0v108h-3.6V71.2c0-0.2-0.3-0.3-0.4,0l-8.4,35.3l-3.8-1.1l8.2-35.2c0-0.1-0.1-0.2-0.2-0.1l-15.7,32.1
		l-3.4-1.9l15.6-31.9c0-0.1-0.1-0.2-0.2-0.1L19.3,95.6L16.4,93l22-27.1c0.1-0.1,0-0.2-0.1-0.1L11,87l-2.3-3.2l27.1-21.1
		c0.1-0.1,0-0.2-0.1-0.2L5,76.9l-1.5-3.6l30.6-14.2c0.1,0,0-0.2-0.1-0.2L1.3,65.9l-0.7-3.8l32.6-6.9c0.1,0,0.1-0.2,0-0.2L0,54.5
		v-3.9l33.1,0.5c0.1,0,0.1-0.2,0-0.2L1.1,43.1L2,39.3L34,47.2c0.1,0,0.2-0.1,0.1-0.2L4.4,32.2c0,0,1.1-2.4,1.6-3.5l29.7,14.8
		c0.1,0,0.2-0.1,0.1-0.2L10,22.2l2.4-3.1l25.9,21.2c0.1,0.1,0.2,0,0.1-0.1L17.7,13.6c0,0,1.9-1.7,3-2.5l20.8,26.6
		c0.1,0.1,0.2,0,0.2-0.1L27,7.4l3.5-1.8L45.1,36c0,0.1,0.2,0,0.2-0.1L37.8,2.8l3.8-1l7.8,33.2c0.1,0.2,0.4,0.2,0.4,0V0H53.3z"></path>
  <path class="st0" d="M124.6,72.2H68.8v2.6l34.4,0c0.1,0,0.1,0.2,0,0.2l-34,4.9l0.3,2.7l34.1-4.9c0.1,0,0.1,0.1,0,0.2l-33.3,9.8
		l0.7,2.6l33.4-9.8c0.1,0,0.2,0.1,0.1,0.2L72.6,95.1l1,2.5L105.6,83c0.1,0,0.2,0.1,0.1,0.2L76,102.2l1.4,2.3l29.8-19.1
		c0.1-0.1,0.2,0.1,0.1,0.1l-26.9,23.3l1.7,2.1l27-23.4c0.1-0.1,0.2,0,0.1,0.1l-23.5,27.1l1.9,1.8l23.6-27.2c0.1-0.1,0.2,0,0.1,0.1
		L91.7,120l2.2,1.5L113.5,91c0.1-0.1,0.2,0,0.2,0.1l-15.2,33.2l2.4,1.2l15.2-33.3c0-0.1,0.2,0,0.2,0.1l-10.4,35.4l2.5,0.9L118.8,93
		c0-0.1,0.2-0.1,0.2,0l-5.3,36.8l2.6,0.5l5.3-36.9c0-0.1,0.2-0.1,0.2,0l0,37.4h2.8V72.2z"></path>
  <path class="st0" d="M68.9,59.6l55.5,0c0.1,0,0.1-0.1,0.1-0.1v-3c0-0.1-0.1-0.1-0.1-0.1l-32.4,0c-0.3,0-0.3-0.4,0-0.5l31.8-5.6
		c0.1,0,0.1-0.1,0.1-0.1l-0.4-3c0-0.1-0.1-0.1-0.1-0.1l-32,5.6c-0.3,0.1-0.4-0.4-0.1-0.5L121.9,41c0.1,0,0.1-0.1,0.1-0.1l-0.9-2.9
		c0-0.1-0.1-0.1-0.2-0.1L90.1,49.1c-0.3,0.1-0.5-0.3-0.2-0.4l28.7-16.6c0.1,0,0.1-0.1,0-0.2l-1.4-2.7c0-0.1-0.1-0.1-0.2,0L88.2,45.8
		c-0.3,0.2-0.5-0.2-0.3-0.4l25.7-21.6c0,0,0.1-0.1,0-0.2l-1.8-2.4c0-0.1-0.1-0.1-0.2,0L85.8,42.9c-0.2,0.2-0.5-0.1-0.3-0.3l21.9-26
		c0,0,0-0.1,0-0.2l-2.2-2.1c0,0-0.1,0-0.2,0L83,40.4c-0.2,0.2-0.6,0-0.4-0.3l17.2-29.8c0-0.1,0-0.1,0-0.2l-2.6-1.6
		c-0.1,0-0.1,0-0.2,0L79.8,38.5c-0.2,0.3-0.5,0.1-0.4-0.2L91.3,5.5c0-0.1,0-0.1-0.1-0.1l-2.8-1.2c-0.1,0-0.1,0-0.2,0.1l-12,32.9
		c-0.1,0.3-0.5,0.2-0.5-0.1l6.2-34.8c0-0.1,0-0.1-0.1-0.1l-3-0.7c-0.1,0-0.1,0-0.1,0.1l-6.2,34.9c-0.1,0.3-0.5,0.3-0.5,0l0-36.3
		C72.1,0.1,72,0,71.9,0h-3c-0.1,0-0.1,0.1-0.1,0.1v59.4C68.8,59.5,68.8,59.6,68.9,59.6z"></path>
  <path class="st0" d="M140.1,130.8h2.1l-0.1-37.9c0-0.1,0.2-0.1,0.2,0L148,129l2-0.5l-5.6-35.9c0-0.1,0.2-0.2,0.2,0l10.9,34.1l2-0.8
		l-10.9-33.9c0-0.1,0.1-0.2,0.2-0.1l15.7,31.4l1.8-1.1L148.7,91c-0.1-0.1,0.1-0.2,0.2-0.1l20,28.1l1.7-1.3l-19.9-27.9
		c-0.1-0.1,0.1-0.2,0.2-0.1l23.8,24.4l1.5-1.5l-23.6-24.2c-0.1-0.1,0-0.2,0.1-0.2l26.9,20.3l1.2-1.7L154,86.5
		c-0.1-0.1,0-0.2,0.1-0.2l29.4,15.9l1-1.9l-29.3-15.8c-0.1-0.1,0-0.2,0.1-0.2l31.3,11.3l0.8-2l-31.2-11.2c-0.1,0-0.1-0.2,0.1-0.2
		l32.7,6.5l0.5-2.1l-32.1-6.4c-0.1,0-0.1-0.2,0-0.2l32.9,1.6l0.2-2l-33-1.7c-0.1,0-0.1-0.2,0-0.2l33.2-3.1v-2.2l-33.1,3
		c-0.1,0-0.2-0.2,0-0.2l32.6-7.8l-0.3-2.1L157.3,73c-0.1,0-0.2-0.2-0.1-0.2l31.5-12.2l-0.6-2L156.3,71c-0.1,0-0.2-0.1-0.1-0.2
		l30.3-16.9l-0.9-1.9l-30.3,16.9c-0.1,0.1-0.2-0.1-0.1-0.2l28.1-21.1l-1.1-1.8l-28.2,21.1c-0.1,0.1-0.2-0.1-0.1-0.2l25.5-25.1
		c-0.4-0.6-1.3-1.7-1.3-1.7l-25.5,25.2c-0.1,0.1-0.2,0-0.2-0.1l22.3-28.8l-1.5-1.5l-22.4,28.9c-0.1,0.1-0.2,0-0.2-0.1l18.7-32.1
		l-1.7-1.3l-18.8,32.2c-0.1,0.1-0.2,0-0.2-0.1l14.6-35l-1.9-1.1l-14.7,35.2c0,0.1-0.2,0.1-0.2-0.1l10.1-37.4l-2-0.8l-10.1,37.6
		c0,0.1-0.2,0.1-0.2,0l5.2-39.2l-2.1-0.5l-5.2,39.3c0,0.1-0.2,0.1-0.2,0l0.1-40l-2.1,0V130.8z"></path>
  <polygon class="st0" points="247.8,52.9 247.8,73 221.2,73 221.2,52.9 215.2,52.9 215.2,99.9 221.2,99.9 221.2,78.4 247.8,78.4 
				247.8,99.9 253.8,99.9 253.8,52.9"></polygon>
  <path class="st0" d="M274.6,70.2c-6.1,0-9.8,5.2-9.8,12.6s3.7,12.6,9.8,12.6c6.1,0,9.8-5.2,9.8-12.6S280.7,70.2,274.6,70.2
					 M274.6,100.5c-9.3,0-15.6-7.3-15.6-17.7c0-10.4,6.3-17.7,15.6-17.7c9.3,0,15.6,7.3,15.6,17.7
					C290.2,93.3,283.9,100.5,274.6,100.5"></path>
  <path class="st0" d="M323,99.9h-5.8v-4.3c-1.9,2.7-5.5,5-9.9,5c-7.7,0-11.9-5-11.9-12.4V65.9h5.8v21.3c0,4.7,2.3,8,7.4,8
					c4,0,7.3-2.7,8.5-6.4v-23h5.8V99.9z"></path>
  <path class="st0" d="M328.1,91.1c3.1,2.9,7,4.6,11.2,4.6c3.8,0,7-1.4,7-4.7c0-2.5-1.9-3.9-4.9-4.9l-4.7-1.6
					c-5.1-1.7-8.6-4.1-8.6-9.6c0-6,5.3-9.6,12-9.6c3.8,0,7.3,1.1,10.1,3v6c-2.8-2.4-6-4.1-10.1-4.1c-3.5,0-6.4,1.5-6.4,4.4
					c0,2.8,1.8,3.7,5,4.8l5.2,1.8c5.1,1.8,8,4.7,8,9.6c0,6.3-5.6,9.9-12.7,9.9c-4.4,0-8.6-1.4-11.2-3.4V91.1z"></path>
  <polygon class="st0" points="368,99.9 362.3,99.9 362.3,70.8 355.2,70.8 355.2,65.9 362.3,65.9 362.3,56.9 368,56.9 368,65.9 
				375.9,65.9 375.9,70.8 368,70.8"></polygon>
  <path class="st0" d="M392.5,70.2c-6.1,0-9.8,5.2-9.8,12.6s3.7,12.6,9.8,12.6s9.8-5.2,9.8-12.6S398.6,70.2,392.5,70.2
					 M392.5,100.5c-9.3,0-15.6-7.3-15.6-17.7c0-10.4,6.3-17.7,15.6-17.7c9.3,0,15.6,7.3,15.6,17.7
					C408.1,93.3,401.8,100.5,392.5,100.5"></path>
  <path class="st0" d="M412.9,65.9h5.7v4.3c2-2.7,5.7-5,10-5c7.7,0,11.9,5,11.9,12.4v22.3h-5.8V78.5c0-4.7-2.4-8-7.5-8
					c-4,0-7.4,2.7-8.6,6.4v23h-5.7V65.9z"></path>
  <path class="st0" d="M453.5,96.3h12.2c7.3,0,11.2-3.7,11.2-9.5c0-5.7-3.8-9.5-11.2-9.5h-12.2V96.3z M464.1,74
					c7.2,0,11.2-2.9,11.2-8.8c0-5.9-4-8.8-11.2-8.8h-10.6V74H464.1z M480.8,86.9c0,8.3-5.7,12.9-15.3,12.9h-15.8v-47h14.4
					c9.6,0,15,4.4,15,12.2c0,6.2-3.7,9.3-7.7,10.5C477.1,76.5,480.8,81.3,480.8,86.9"></path>
  <path class="st0" d="M506.7,87.8c-1.1-2.9-4.9-5.1-9-5.1c-4.8,0-9.3,2.4-9.3,7.2s4.4,7.3,9.3,7.3c4.1,0,8-2.1,9-5.1V87.8z
					 M506.7,76.3c0-4.6-3.2-7.6-8.4-7.6c-3.9,0-7.1,1.1-9.9,3V68c2.3-1.5,6-2.8,10.3-2.8c7.2,0,11.7,4.1,11.7,10.9v23.8h-3.7v-3.2
					c-1.5,1.8-5.2,3.7-9.4,3.7c-6.9,0-12.5-4-12.5-10.5c0-6.3,5.7-10.4,12.7-10.4c4.1,0,7.7,1.9,9.3,3.6V76.3z"></path>
  <rect x="518.1" y="50.1" class="st0" width="3.8" height="49.7"></rect>
  <rect x="531.9" y="50.1" class="st0" width="3.8" height="49.7"></rect>
  <path class="st0" d="M545.4,80.4h20.6c-0.2-6-3.1-11.5-9.8-11.5C550.6,68.9,546.3,73,545.4,80.4 M557.6,97.5
					c3.8,0,6.7-0.9,9.6-3.4v3.7c-2.5,2.1-5.9,3-9.9,3c-9.5,0-15.8-6.7-15.8-17.4c0-10.5,5.7-18,14.7-18c8.9,0,13.5,6.7,13.5,16.6
					v1.4h-24.4C545.2,92.7,550.6,97.5,557.6,97.5"></path>
  <polygon class="st0" points="578.9,57.2 578.9,65.9 571.6,65.9 571.6,69.2 578.9,69.2 578.9,99.9 582.7,99.9 582.7,69.2 
				590.7,69.2 590.7,65.9 582.7,65.9 582.7,57.2"></polygon>
</svg>
