<svg width="324" height="37" viewBox="0 0 324 37" fill="none" xmlns="http://www.w3.org/2000/svg">
<path d="M44.2912 24V10.9091H46.6626V16.924H46.8224L51.9297 10.9091H54.8253L49.7628 16.7834L54.87 24H52.0192L48.1136 18.3878L46.6626 20.1009V24H44.2912ZM57.0881 27.6818C56.7727 27.6818 56.4808 27.6563 56.2124 27.6051C55.9482 27.5582 55.7372 27.5028 55.5795 27.4389L56.1165 25.6364C56.4531 25.7344 56.7536 25.7813 57.0178 25.777C57.282 25.7727 57.5142 25.6896 57.7145 25.5277C57.919 25.37 58.0916 25.1058 58.2322 24.7351L58.4304 24.2045L54.87 14.1818H57.3246L59.5874 21.5966H59.6896L61.9588 14.1818H64.4197L60.4886 25.1889C60.3054 25.7088 60.0625 26.1541 59.7599 26.5249C59.4574 26.8999 59.0866 27.1854 58.6477 27.3814C58.2131 27.5817 57.6932 27.6818 57.0881 27.6818ZM68.3349 10.9091V24H66.021V10.9091H68.3349ZM75.0609 24.1918C74.0765 24.1918 73.2264 23.9872 72.5105 23.5781C71.7988 23.1648 71.2512 22.581 70.8677 21.8267C70.4842 21.0682 70.2924 20.1754 70.2924 19.1484C70.2924 18.1385 70.4842 17.2521 70.8677 16.4893C71.2555 15.7223 71.7967 15.1257 72.4913 14.6996C73.1859 14.2692 74.002 14.054 74.9395 14.054C75.5446 14.054 76.1156 14.152 76.6525 14.348C77.1937 14.5398 77.671 14.8381 78.0843 15.2429C78.502 15.6477 78.8301 16.1634 79.0687 16.7898C79.3074 17.4119 79.4267 18.1534 79.4267 19.0142V19.7237H71.3791V18.1641H77.2086C77.2044 17.7209 77.1085 17.3267 76.921 16.9815C76.7335 16.6321 76.4714 16.3572 76.1348 16.157C75.8024 15.9567 75.4146 15.8565 74.9714 15.8565C74.4984 15.8565 74.0829 15.9716 73.725 16.2017C73.367 16.4276 73.0879 16.7259 72.8876 17.0966C72.6916 17.4631 72.5914 17.8658 72.5872 18.3047V19.6662C72.5872 20.2372 72.6916 20.7273 72.9004 21.1364C73.1092 21.5412 73.4011 21.8523 73.7761 22.0696C74.1511 22.2827 74.59 22.3892 75.0929 22.3892C75.4295 22.3892 75.7342 22.3423 76.0069 22.2486C76.2797 22.1506 76.5162 22.0078 76.7164 21.8203C76.9167 21.6328 77.068 21.4006 77.1703 21.1236L79.3308 21.3665C79.1944 21.9375 78.9345 22.4361 78.551 22.8622C78.1717 23.2841 77.6859 23.6122 77.0936 23.8466C76.5012 24.0767 75.8237 24.1918 75.0609 24.1918ZM85.9513 10.9091H88.8533L92.7397 20.3949H92.8931L96.7795 10.9091H99.6815V24H97.4059V15.0064H97.2844L93.6665 23.9616H91.9663L88.3484 14.9872H88.2269V24H85.9513V10.9091ZM106.444 24.1918C105.464 24.1918 104.623 23.9766 103.919 23.5462C103.221 23.1158 102.681 22.5213 102.302 21.7628C101.927 21 101.74 20.1222 101.74 19.1293C101.74 18.1321 101.931 17.2521 102.315 16.4893C102.699 15.7223 103.24 15.1257 103.939 14.6996C104.642 14.2692 105.473 14.054 106.431 14.054C107.228 14.054 107.934 14.201 108.547 14.495C109.165 14.7848 109.657 15.196 110.024 15.7287C110.39 16.2571 110.599 16.875 110.65 17.5824H108.439C108.349 17.1094 108.136 16.7152 107.799 16.3999C107.467 16.0803 107.022 15.9205 106.463 15.9205C105.99 15.9205 105.575 16.0483 105.217 16.304C104.859 16.5554 104.58 16.9176 104.38 17.3906C104.184 17.8636 104.086 18.4304 104.086 19.0909C104.086 19.7599 104.184 20.3352 104.38 20.8168C104.576 21.294 104.85 21.6626 105.204 21.9226C105.562 22.1783 105.982 22.3061 106.463 22.3061C106.804 22.3061 107.109 22.2422 107.377 22.1143C107.65 21.9822 107.878 21.7926 108.061 21.5455C108.245 21.2983 108.37 20.9979 108.439 20.6442H110.65C110.595 21.3388 110.39 21.9545 110.037 22.4915C109.683 23.0241 109.201 23.4418 108.592 23.7443C107.983 24.0426 107.267 24.1918 106.444 24.1918ZM121.422 15.0895C121.316 14.7443 121.169 14.4354 120.981 14.1626C120.798 13.8857 120.577 13.6491 120.317 13.4531C120.061 13.2571 119.767 13.1101 119.434 13.0121C119.102 12.9098 118.74 12.8587 118.348 12.8587C117.645 12.8587 117.018 13.0355 116.469 13.3892C115.919 13.7429 115.486 14.2628 115.171 14.9489C114.86 15.6307 114.704 16.4616 114.704 17.4418C114.704 18.4304 114.86 19.2678 115.171 19.9538C115.482 20.6399 115.915 21.1619 116.469 21.5199C117.023 21.8736 117.666 22.0504 118.399 22.0504C119.064 22.0504 119.639 21.9226 120.125 21.6669C120.615 21.4112 120.992 21.049 121.256 20.5803C121.52 20.1072 121.653 19.5533 121.653 18.9183L122.189 19.0014H118.635V17.1477H123.947V18.7202C123.947 19.8409 123.709 20.8104 123.231 21.6286C122.754 22.4467 122.098 23.0774 121.263 23.5206C120.427 23.9595 119.469 24.179 118.386 24.179C117.18 24.179 116.121 23.9084 115.209 23.3672C114.302 22.8217 113.592 22.0483 113.081 21.0469C112.574 20.0412 112.32 18.848 112.32 17.4673C112.32 16.4105 112.469 15.4666 112.768 14.6357C113.07 13.8047 113.492 13.0994 114.033 12.5199C114.574 11.9361 115.209 11.4929 115.938 11.1903C116.667 10.8835 117.459 10.7301 118.316 10.7301C119.04 10.7301 119.716 10.8366 120.342 11.0497C120.969 11.2585 121.525 11.5568 122.01 11.9446C122.501 12.3324 122.903 12.7926 123.219 13.3253C123.534 13.858 123.741 14.446 123.839 15.0895H121.422ZM126.138 24V14.1818H128.382V15.8182H128.484C128.663 15.2514 128.97 14.8146 129.404 14.5078C129.843 14.1967 130.344 14.0412 130.907 14.0412C131.034 14.0412 131.177 14.0476 131.335 14.0604C131.497 14.0689 131.631 14.0838 131.738 14.1051V16.2337C131.64 16.1996 131.484 16.1697 131.271 16.1442C131.062 16.1143 130.86 16.0994 130.664 16.0994C130.242 16.0994 129.863 16.1911 129.526 16.3743C129.194 16.5533 128.931 16.8026 128.74 17.1222C128.548 17.4418 128.452 17.8104 128.452 18.228V24H126.138ZM135.924 24.1982C135.302 24.1982 134.742 24.0874 134.243 23.8658C133.749 23.6399 133.357 23.3075 133.067 22.8686C132.782 22.4297 132.639 21.8885 132.639 21.245C132.639 20.6911 132.741 20.233 132.946 19.8707C133.15 19.5085 133.429 19.2188 133.783 19.0014C134.137 18.7841 134.535 18.62 134.978 18.5092C135.426 18.3942 135.888 18.3111 136.365 18.2599C136.941 18.2003 137.407 18.147 137.765 18.1001C138.123 18.049 138.383 17.9723 138.545 17.87C138.711 17.7635 138.794 17.5994 138.794 17.3778V17.3395C138.794 16.858 138.652 16.4851 138.366 16.2209C138.081 15.9567 137.669 15.8246 137.132 15.8246C136.566 15.8246 136.116 15.9482 135.784 16.1953C135.456 16.4425 135.234 16.7344 135.119 17.071L132.958 16.7642C133.129 16.1676 133.41 15.669 133.802 15.2685C134.194 14.8636 134.674 14.5611 135.24 14.3608C135.807 14.1562 136.434 14.054 137.12 14.054C137.593 14.054 138.064 14.1094 138.532 14.2202C139.001 14.331 139.429 14.5142 139.817 14.7699C140.205 15.0213 140.516 15.3643 140.75 15.799C140.989 16.2337 141.108 16.777 141.108 17.429V24H138.884V22.6513H138.807C138.667 22.924 138.468 23.1797 138.213 23.4183C137.961 23.6527 137.644 23.8423 137.26 23.9872C136.881 24.1278 136.436 24.1982 135.924 24.1982ZM136.525 22.4979C136.99 22.4979 137.392 22.4062 137.733 22.223C138.074 22.0355 138.336 21.7884 138.52 21.4815C138.707 21.1747 138.801 20.8402 138.801 20.478V19.321C138.728 19.3807 138.605 19.4361 138.43 19.4872C138.26 19.5384 138.068 19.5831 137.855 19.6214C137.642 19.6598 137.431 19.6939 137.222 19.7237C137.013 19.7536 136.832 19.7791 136.679 19.8004C136.333 19.8473 136.025 19.924 135.752 20.0305C135.479 20.1371 135.264 20.2862 135.106 20.478C134.949 20.6655 134.87 20.9084 134.87 21.2067C134.87 21.6328 135.025 21.9545 135.336 22.1719C135.647 22.3892 136.044 22.4979 136.525 22.4979ZM145.461 24L142.687 14.1818H145.046L146.772 21.0852H146.861L148.625 14.1818H150.958L152.723 21.0469H152.819L154.519 14.1818H156.884L154.103 24H151.694L149.853 17.3651H149.718L147.877 24H145.461Z" fill="#F3F4F6"/>
<path d="M173.585 24V10.9091H178.162C179.074 10.9091 179.826 11.0668 180.418 11.3821C181.011 11.6932 181.452 12.1129 181.741 12.6413C182.031 13.1655 182.176 13.7472 182.176 14.3864C182.176 14.9489 182.076 15.4134 181.876 15.7798C181.68 16.1463 181.42 16.4361 181.096 16.6491C180.776 16.8622 180.429 17.0199 180.054 17.1222V17.25C180.455 17.2756 180.857 17.4162 181.262 17.6719C181.667 17.9276 182.006 18.294 182.278 18.7713C182.551 19.2486 182.688 19.8324 182.688 20.5227C182.688 21.179 182.538 21.7692 182.24 22.2933C181.942 22.8175 181.471 23.233 180.827 23.5398C180.184 23.8466 179.347 24 178.315 24H173.585ZM175.17 22.5938H178.315C179.351 22.5938 180.086 22.3935 180.521 21.9929C180.96 21.5881 181.179 21.098 181.179 20.5227C181.179 20.0795 181.066 19.6705 180.84 19.2955C180.614 18.9162 180.293 18.6136 179.875 18.3878C179.457 18.1577 178.963 18.0426 178.392 18.0426H175.17V22.5938ZM175.17 16.6619H178.111C178.588 16.6619 179.018 16.5682 179.402 16.3807C179.79 16.1932 180.097 15.929 180.322 15.5881C180.553 15.2472 180.668 14.8466 180.668 14.3864C180.668 13.8111 180.467 13.3232 180.067 12.9226C179.666 12.5178 179.031 12.3153 178.162 12.3153H175.17V16.6619ZM185.829 24H184.167L188.974 10.9091H190.61L195.417 24H193.755L189.843 12.9801H189.741L185.829 24ZM186.443 18.8864H193.142V20.2926H186.443V18.8864ZM204.513 6.69034V28.2188H203.235V6.69034H204.513ZM222.061 10.9091H223.646V19.5767C223.646 20.4716 223.435 21.2706 223.013 21.9737C222.596 22.6726 222.006 23.2244 221.243 23.6293C220.48 24.0298 219.585 24.2301 218.558 24.2301C217.531 24.2301 216.636 24.0298 215.873 23.6293C215.111 23.2244 214.518 22.6726 214.096 21.9737C213.679 21.2706 213.47 20.4716 213.47 19.5767V10.9091H215.055V19.4489C215.055 20.0881 215.196 20.657 215.477 21.1555C215.758 21.6499 216.159 22.0398 216.679 22.3253C217.203 22.6065 217.829 22.7472 218.558 22.7472C219.287 22.7472 219.913 22.6065 220.437 22.3253C220.961 22.0398 221.362 21.6499 221.639 21.1555C221.92 20.657 222.061 20.0881 222.061 19.4489V10.9091ZM227.579 10.9091L230.954 16.3551H231.056L234.431 10.9091H236.298L232.181 17.4545L236.298 24H234.431L231.056 18.6562H230.954L227.579 24H225.712L229.931 17.4545L225.712 10.9091H227.579ZM247.463 24H243.423V10.9091H247.642C248.912 10.9091 249.998 11.1712 250.902 11.6953C251.805 12.2152 252.498 12.9631 252.979 13.9389C253.461 14.9105 253.702 16.0739 253.702 17.429C253.702 18.7926 253.459 19.9666 252.973 20.951C252.487 21.9311 251.78 22.6854 250.851 23.2138C249.922 23.7379 248.792 24 247.463 24ZM245.008 22.5938H247.361C248.443 22.5938 249.34 22.3849 250.052 21.9673C250.763 21.5497 251.294 20.9553 251.643 20.1839C251.993 19.4126 252.167 18.4943 252.167 17.429C252.167 16.3722 251.995 15.4624 251.65 14.6996C251.305 13.9325 250.789 13.3445 250.103 12.9354C249.417 12.522 248.562 12.3153 247.54 12.3153H245.008V22.5938ZM260.273 24.2045C259.327 24.2045 258.51 23.9957 257.824 23.5781C257.143 23.1562 256.616 22.5682 256.246 21.8139C255.879 21.0554 255.696 20.1733 255.696 19.1676C255.696 18.1619 255.879 17.2756 256.246 16.5085C256.616 15.7372 257.132 15.1364 257.792 14.706C258.457 14.2713 259.233 14.054 260.119 14.054C260.631 14.054 261.135 14.1392 261.634 14.3097C262.133 14.4801 262.586 14.7571 262.996 15.1406C263.405 15.5199 263.731 16.0227 263.974 16.6491C264.216 17.2756 264.338 18.0469 264.338 18.9631V19.6023H256.77V18.2983H262.804C262.804 17.7443 262.693 17.25 262.471 16.8153C262.254 16.3807 261.943 16.0376 261.538 15.7862C261.138 15.5348 260.665 15.4091 260.119 15.4091C259.518 15.4091 258.998 15.5582 258.559 15.8565C258.125 16.1506 257.79 16.5341 257.556 17.0071C257.322 17.4801 257.204 17.9872 257.204 18.5284V19.3977C257.204 20.1392 257.332 20.7678 257.588 21.2834C257.848 21.7947 258.208 22.1847 258.668 22.4531C259.128 22.7173 259.663 22.8494 260.273 22.8494C260.669 22.8494 261.027 22.794 261.346 22.6832C261.67 22.5682 261.949 22.3977 262.184 22.1719C262.418 21.9418 262.599 21.6562 262.727 21.3153L264.184 21.7244C264.031 22.2188 263.773 22.6534 263.411 23.0284C263.049 23.3991 262.601 23.6889 262.069 23.8977C261.536 24.1023 260.937 24.2045 260.273 24.2045ZM273.587 16.3807L272.232 16.7642C272.147 16.5384 272.021 16.3189 271.855 16.1058C271.693 15.8885 271.471 15.7095 271.19 15.5689C270.909 15.4283 270.549 15.358 270.11 15.358C269.509 15.358 269.008 15.4964 268.608 15.7734C268.211 16.0462 268.013 16.3935 268.013 16.8153C268.013 17.1903 268.15 17.4865 268.422 17.7038C268.695 17.9212 269.121 18.1023 269.701 18.2472L271.158 18.6051C272.036 18.8182 272.69 19.1442 273.121 19.5831C273.551 20.0178 273.766 20.5781 273.766 21.2642C273.766 21.8267 273.604 22.3295 273.28 22.7727C272.961 23.2159 272.513 23.5653 271.938 23.821C271.363 24.0767 270.694 24.2045 269.931 24.2045C268.93 24.2045 268.101 23.9872 267.444 23.5526C266.788 23.1179 266.373 22.483 266.198 21.6477L267.63 21.2898C267.766 21.8182 268.024 22.2145 268.403 22.4787C268.787 22.7429 269.287 22.875 269.905 22.875C270.608 22.875 271.167 22.7259 271.58 22.4276C271.998 22.125 272.206 21.7628 272.206 21.3409C272.206 21 272.087 20.7145 271.849 20.4844C271.61 20.25 271.243 20.0753 270.749 19.9602L269.113 19.5767C268.214 19.3636 267.553 19.0334 267.131 18.5859C266.714 18.1342 266.505 17.5696 266.505 16.892C266.505 16.3381 266.66 15.848 266.971 15.4219C267.287 14.9957 267.715 14.6612 268.256 14.4183C268.802 14.1754 269.42 14.054 270.11 14.054C271.081 14.054 271.844 14.267 272.398 14.6932C272.956 15.1193 273.353 15.6818 273.587 16.3807ZM276.037 24V14.1818H277.545V24H276.037ZM276.804 12.5455C276.51 12.5455 276.256 12.4453 276.043 12.245C275.835 12.0447 275.73 11.804 275.73 11.5227C275.73 11.2415 275.835 11.0007 276.043 10.8004C276.256 10.6001 276.51 10.5 276.804 10.5C277.098 10.5 277.349 10.6001 277.558 10.8004C277.771 11.0007 277.878 11.2415 277.878 11.5227C277.878 11.804 277.771 12.0447 277.558 12.245C277.349 12.4453 277.098 12.5455 276.804 12.5455ZM284.271 27.8864C283.543 27.8864 282.916 27.7926 282.392 27.6051C281.868 27.4219 281.431 27.179 281.082 26.8764C280.737 26.5781 280.462 26.2585 280.257 25.9176L281.459 25.0739C281.595 25.2528 281.768 25.4574 281.977 25.6875C282.186 25.9219 282.471 26.1243 282.833 26.2947C283.2 26.4695 283.679 26.5568 284.271 26.5568C285.064 26.5568 285.718 26.3651 286.234 25.9815C286.749 25.598 287.007 24.9972 287.007 24.179V22.1847H286.879C286.769 22.3636 286.611 22.5852 286.406 22.8494C286.206 23.1094 285.916 23.3416 285.537 23.5462C285.162 23.7464 284.655 23.8466 284.016 23.8466C283.223 23.8466 282.512 23.6591 281.881 23.2841C281.254 22.9091 280.758 22.3636 280.392 21.6477C280.029 20.9318 279.848 20.0625 279.848 19.0398C279.848 18.0341 280.025 17.1584 280.379 16.4126C280.732 15.6626 281.225 15.0831 281.855 14.674C282.486 14.2607 283.215 14.054 284.041 14.054C284.681 14.054 285.188 14.1605 285.563 14.3736C285.942 14.5824 286.232 14.821 286.432 15.0895C286.637 15.3537 286.794 15.571 286.905 15.7415H287.058V14.1818H288.516V24.2812C288.516 25.125 288.324 25.8111 287.941 26.3395C287.561 26.8722 287.05 27.2621 286.406 27.5092C285.767 27.7607 285.056 27.8864 284.271 27.8864ZM284.22 22.4915C284.825 22.4915 285.337 22.353 285.754 22.076C286.172 21.799 286.49 21.4006 286.707 20.8807C286.924 20.3608 287.033 19.7386 287.033 19.0142C287.033 18.3068 286.926 17.6825 286.713 17.1413C286.5 16.6001 286.185 16.1761 285.767 15.8693C285.35 15.5625 284.834 15.4091 284.22 15.4091C283.581 15.4091 283.048 15.571 282.622 15.8949C282.2 16.2187 281.883 16.6534 281.67 17.1989C281.461 17.7443 281.357 18.3494 281.357 19.0142C281.357 19.696 281.463 20.299 281.676 20.8232C281.894 21.343 282.213 21.7521 282.635 22.0504C283.061 22.3445 283.59 22.4915 284.22 22.4915ZM292.786 18.0938V24H291.277V14.1818H292.735V15.7159H292.862C293.093 15.2173 293.442 14.8168 293.911 14.5142C294.379 14.2074 294.985 14.054 295.726 14.054C296.391 14.054 296.972 14.1903 297.471 14.4631C297.97 14.7315 298.357 15.1406 298.634 15.6903C298.911 16.2358 299.05 16.9261 299.05 17.7614V24H297.541V17.8636C297.541 17.0923 297.341 16.4915 296.941 16.0611C296.54 15.6264 295.99 15.4091 295.291 15.4091C294.81 15.4091 294.379 15.5135 294 15.7223C293.625 15.9311 293.329 16.2358 293.112 16.6364C292.894 17.0369 292.786 17.5227 292.786 18.0938ZM305.923 24.2045C304.977 24.2045 304.161 23.9957 303.475 23.5781C302.793 23.1562 302.267 22.5682 301.896 21.8139C301.529 21.0554 301.346 20.1733 301.346 19.1676C301.346 18.1619 301.529 17.2756 301.896 16.5085C302.267 15.7372 302.782 15.1364 303.443 14.706C304.108 14.2713 304.883 14.054 305.77 14.054C306.281 14.054 306.786 14.1392 307.284 14.3097C307.783 14.4801 308.237 14.7571 308.646 15.1406C309.055 15.5199 309.381 16.0227 309.624 16.6491C309.867 17.2756 309.988 18.0469 309.988 18.9631V19.6023H302.42V18.2983H308.454C308.454 17.7443 308.343 17.25 308.122 16.8153C307.904 16.3807 307.593 16.0376 307.189 15.7862C306.788 15.5348 306.315 15.4091 305.77 15.4091C305.169 15.4091 304.649 15.5582 304.21 15.8565C303.775 16.1506 303.441 16.5341 303.206 17.0071C302.972 17.4801 302.855 17.9872 302.855 18.5284V19.3977C302.855 20.1392 302.983 20.7678 303.238 21.2834C303.498 21.7947 303.858 22.1847 304.319 22.4531C304.779 22.7173 305.314 22.8494 305.923 22.8494C306.319 22.8494 306.677 22.794 306.997 22.6832C307.321 22.5682 307.6 22.3977 307.834 22.1719C308.069 21.9418 308.25 21.6562 308.377 21.3153L309.835 21.7244C309.681 22.2188 309.424 22.6534 309.061 23.0284C308.699 23.3991 308.252 23.6889 307.719 23.8977C307.186 24.1023 306.588 24.2045 305.923 24.2045ZM312.283 24V14.1818H313.74V15.6648H313.843C314.022 15.179 314.346 14.7848 314.814 14.4822C315.283 14.1797 315.811 14.0284 316.4 14.0284C316.51 14.0284 316.649 14.0305 316.815 14.0348C316.981 14.0391 317.107 14.0455 317.192 14.054V15.5881C317.141 15.5753 317.024 15.5561 316.841 15.5305C316.662 15.5007 316.472 15.4858 316.272 15.4858C315.794 15.4858 315.368 15.5859 314.993 15.7862C314.623 15.9822 314.328 16.255 314.111 16.6044C313.898 16.9496 313.792 17.3437 313.792 17.7869V24H312.283Z" fill="#9CA3AF"/>
<path d="M52.3625 32.984C52.4373 32.9815 52.7385 32.9877 52.8688 32.9866C52.7211 33.0134 52.0924 32.9932 52.3625 32.984ZM65.7344 31.0358C65.6263 31.0425 65.5181 31.0491 65.4099 31.0557C65.7173 31.06 66.1305 31.0552 66.4157 31.0615C66.4624 31.0625 66.3413 31.0817 66.4517 31.0826C66.5622 31.0834 66.5409 31.0572 66.7014 31.0544C66.8816 31.0513 67.7064 31.0696 67.992 31.0692C69.0603 31.0674 70.1378 31.0524 71.2083 31.0633C70.1032 31.0827 71.2168 31.1025 71.5263 31.0941C71.5949 31.0921 71.584 31.0433 72.6927 31.0556C73.3974 31.0634 72.7466 31.1332 73.9224 31.0982C73.0182 31.0494 73.9074 31.0528 74.6161 31.0512C74.7383 31.0509 75.7252 31.0583 76.1611 31.0561C76.3102 31.0553 76.5374 31.0298 76.7353 31.0291C76.8714 31.0287 76.9744 31.0427 77.1765 31.0419C78.119 31.0388 79.0458 31.0377 79.9899 31.0424C79.4382 31.1081 80.4229 31.0704 80.4671 31.0736C80.692 31.0914 79.6748 31.0965 80.0771 31.1076C80.6393 31.1056 81.2015 31.1035 81.7637 31.1015C81.3023 31.0934 82.3746 31.0462 82.5719 31.0677C82.485 31.0097 85.1343 31.1182 85.5376 31.0988C85.6216 31.0947 85.0718 31.0661 86.3472 31.0792C86.4853 31.0806 86.4331 31.0981 86.5055 31.0965C86.5489 31.0955 86.8115 31.0399 87.0913 31.0706C87.1935 31.0819 86.5398 31.1184 87.9752 31.1037C87.4035 31.0471 89.9655 31.073 90.4368 31.0872C90.3426 31.0796 90.2485 31.072 90.1543 31.0644C90.6202 31.0849 90.7043 31.0657 90.8093 31.0667C91.2323 31.0709 91.8138 31.0903 92.2079 31.0886C92.669 31.0865 92.6705 31.0513 93.2081 31.065C93.0806 31.0572 92.953 31.0495 92.8255 31.0417C93.1967 31.0436 93.568 31.0454 93.9393 31.0473C93.0795 31.0939 94.1247 31.0495 94.1936 31.0485C94.3034 31.0468 94.1456 31.0659 94.3293 31.0635C94.3483 31.0632 94.3208 31.0452 94.6039 31.0432C95.1955 31.039 95.102 31.0616 95.3503 31.0614C95.3731 31.0612 95.2934 31.045 95.7223 31.0412C97.0857 31.029 95.7156 31.0536 95.6633 31.0559C95.5946 31.0588 96.062 31.1265 94.904 31.1025C95.2928 31.1101 95.3319 31.1401 95.3757 31.1408C95.4145 31.1414 96.0882 31.1372 96.1253 31.1362C96.4565 31.126 96.1651 31.1055 96.2296 31.1019C96.2824 31.0989 97.0941 31.1256 97.2843 31.064C97.6727 31.1208 97.0609 31.1156 96.4096 31.1243C96.3146 31.136 97.0298 31.1473 97.0674 31.1473C97.9899 31.1472 97.4791 31.1005 97.6808 31.0706C97.7867 31.055 98.1626 31.0869 97.8156 31.045C98.6529 31.0406 98.1451 31.0648 98.1992 31.0684C98.2808 31.0737 98.5738 31.0617 98.6104 31.0633C98.6643 31.0657 98.4772 31.0802 98.6894 31.0853C98.7246 31.086 99.0666 31.0611 98.6257 31.0491C99.2148 31.0527 99.1662 31.0314 99.366 31.0743C99.7718 30.9932 99.6605 31.1222 99.8202 31.1268C100.245 31.1388 100.122 31.0751 100.144 31.072C100.299 31.0521 101.475 31.0739 101.766 31.0648C101.651 31.1106 100.834 31.0653 100.651 31.0742C100.042 31.1038 101.51 31.0971 101.067 31.1547C101.253 31.1389 101.439 31.1231 101.624 31.1073C101.964 31.1443 101.482 31.1605 102.397 31.1469C102.547 31.1149 101.75 31.152 101.91 31.1268C102.004 31.112 102.535 31.1088 102.545 31.101C102.556 31.0916 102.076 31.1028 102.152 31.0883C102.317 31.0572 104.067 31.0868 102.735 31.1038C103.106 31.1033 103.298 31.1653 103.62 31.1459C103.828 31.1334 102.656 31.0479 104.415 31.0635C104.452 31.0928 103.712 31.0722 103.692 31.0744C103.665 31.0777 103.799 31.1437 103.823 31.1469C103.905 31.1577 105.701 31.1223 106.08 31.1555C105.93 31.1173 107.437 31.1487 107.602 31.137C107.645 31.1338 107.482 31.1105 107.529 31.108C107.82 31.0933 108.609 31.135 108.974 31.1361C109.384 31.1373 109.332 31.1171 109.355 31.1171C109.535 31.1183 109.391 31.1319 109.501 31.1319C109.667 31.1318 110.81 31.1346 110.868 31.1318C110.884 31.1309 110.698 31.1078 110.947 31.1035C110.99 31.1027 110.963 31.13 111.701 31.1182C112.59 31.104 111.084 31.0842 111.453 31.0556C112.024 31.0964 112.005 31.056 112.16 31.0592C112.214 31.0603 112.613 31.0947 113.046 31.0925C112.735 31.0981 112.424 31.1036 112.113 31.1092C112.419 31.1152 113.012 31.1078 113.264 31.1146C113.387 31.1179 113.286 31.1461 113.553 31.1453C113.609 31.145 113.834 31.0763 113.135 31.1071C113.079 31.0826 113.412 31.0986 113.566 31.0916C113.589 31.0905 113.681 31.0495 113.879 31.075C113.926 31.0813 113.411 31.2009 114.739 31.1143C114.782 31.1115 114.633 31.0966 114.675 31.0935C114.704 31.0914 115.043 31.0974 115.081 31.0953C115.119 31.093 114.955 31.0767 115.001 31.0734C115.235 31.0569 115.542 31.1217 115.059 31.1168C115.221 31.1248 115.382 31.1328 115.543 31.1408C115.37 31.0919 115.796 31.1271 116.019 31.1256C117.449 31.1159 116.492 31.0842 116.738 31.0677C117.133 31.0413 116.831 31.1249 117.418 31.0998C117.472 31.0975 116.763 31.0619 118.148 31.082C117.944 31.0834 117.739 31.0848 117.535 31.0861C117.653 31.1334 118.273 31.0829 118.321 31.0822C118.865 31.0757 118.497 31.0928 119.305 31.0684C119.377 31.0662 119.534 31.0779 119.688 31.0721C120.328 31.0481 118.845 31.0575 118.804 31.0384C118.785 31.029 120.38 31.0314 120.435 31.0358C120.667 31.0556 119.712 31.0445 119.894 31.069C119.96 31.0777 122.234 31.0599 122.69 31.0694C123.216 31.0805 123.453 31.1446 123.457 31.0726C123.605 31.1433 123.737 31.095 123.804 31.0955C124.618 31.1021 124.619 31.1028 125.317 31.096C125.472 31.0946 125.602 31.116 125.656 31.1124C125.688 31.1102 125.629 31.0872 125.784 31.0802C126 31.0705 127.298 31.0941 127.394 31.1068C127.491 31.1195 126.846 31.1123 126.962 31.1331C127.428 31.1352 127.875 31.1301 128.345 31.1323C128.54 31.1333 128.44 31.1479 128.524 31.1481C128.56 31.1483 129.233 31.1355 129.205 31.1301C129.138 31.1176 127.058 31.126 127.606 31.1004C127.712 31.0955 128.085 31.1291 128.026 31.0882C129.884 31.0975 131.742 31.1068 133.6 31.116C132.532 31.1467 131.331 31.1193 130.212 31.1221C130.059 31.1225 129.541 31.1186 129.604 31.1392C130.555 31.1446 131.737 31.1338 132.65 31.1473C132.679 31.1477 132.572 31.1663 132.681 31.1693C132.886 31.1748 133.552 31.1448 133.664 31.1525C133.683 31.1543 133.304 31.1788 133.42 31.1944C133.715 31.2344 133.791 31.1459 134.045 31.1469C134.242 31.1478 135.564 31.1906 135.893 31.1635C136.243 31.1347 134.919 31.1468 135.017 31.1232C135.913 31.0996 136.82 31.1249 137.667 31.1219C137.682 31.1218 137.552 31.1034 137.741 31.1008C138.07 31.0963 138.156 31.1225 138.316 31.1267C138.489 31.1311 139.099 31.1274 139.181 31.1369C139.191 31.1382 139.068 31.1641 139.049 31.1649C138.783 31.1756 138.689 31.1419 138.664 31.1414C138.574 31.1402 138.484 31.1531 138.401 31.1523C138.265 31.151 138.19 31.1391 138.009 31.138C137.885 31.1372 138.005 31.1602 137.885 31.1591C137.841 31.1587 137.367 31.1063 137.323 31.1597C137.309 31.1766 141.189 31.1983 141.577 31.1848C141.244 31.1783 140.911 31.1719 140.579 31.1655C141.254 31.1811 142.066 31.1384 142.123 31.2016C144.628 31.2068 147.133 31.212 149.638 31.2171C150.085 31.2225 149.84 31.2631 150.576 31.2513C150.386 31.2384 150.196 31.2254 150.005 31.2125C150.383 31.2216 152.054 31.2393 152.324 31.2309C152.359 31.2298 152.408 31.1931 152.826 31.1899C153.196 31.1871 153.256 31.2147 153.454 31.2199C153.62 31.2243 153.807 31.2171 153.856 31.2186C153.894 31.2198 153.909 31.2366 154 31.2396C154.288 31.2487 154.055 31.2012 154.341 31.2557C154.271 31.2578 154.202 31.2598 154.132 31.2619C154.479 31.2698 154.954 31.2945 154.442 31.3067C154.354 31.3088 154.43 31.2925 154.364 31.2926C151.796 31.2956 153.847 31.3273 154.747 31.302C154.978 31.3261 156.274 31.3114 156.317 31.3161C156.377 31.323 156.155 31.3423 156.445 31.359C156.507 31.3625 158.239 31.349 157.615 31.3811C157.486 31.3877 156.656 31.3807 156.456 31.3817C156.927 31.4329 158.031 31.3595 158.155 31.3614C158.656 31.3694 157.193 31.4058 158.321 31.4117C159.189 31.4163 158.374 31.3821 158.708 31.3675C158.896 31.3593 159.878 31.397 159.851 31.3482C160.188 31.343 159.991 31.3688 160.032 31.3707C160.073 31.3723 160.736 31.3577 160.951 31.368C160.977 31.3693 160.895 31.3946 160.922 31.3967C160.974 31.4002 161.613 31.3952 161.639 31.393C161.655 31.3915 161.503 31.3694 161.566 31.364C161.639 31.3578 162.254 31.363 162.288 31.3567C162.336 31.3471 161.576 31.3534 161.703 31.3286C162.053 31.3348 162.623 31.3183 162.854 31.2983C162.797 31.304 162.458 31.3048 162.34 31.3028C162.396 31.2665 163.124 31.267 162.875 31.2957C163.034 31.2803 162.925 31.2721 163.015 31.2575C163.038 31.2538 163.263 31.2531 163.306 31.2468C163.312 31.2455 163.08 31.2318 163.126 31.2244C163.211 31.2111 163.893 31.2141 163.948 31.2176C164.105 31.2275 163.549 31.2395 163.503 31.2548C163.496 31.2572 163.969 31.2872 163.977 31.2899C164.004 31.3183 163.478 31.2978 163.538 31.3235C163.668 31.3289 163.798 31.3343 163.929 31.3397C163.426 31.3656 162.498 31.3523 162.258 31.3818C163.002 31.373 163.782 31.3741 163.78 31.4405C163.779 31.4685 163.458 31.4849 163.471 31.492C163.518 31.5175 163.964 31.4898 163.98 31.4912C163.994 31.4927 164 31.4942 164 31.4957C164 31.4957 164 31.4957 164 31.4957C164 31.5106 163.364 31.5214 163.333 31.5282C163.279 31.5403 163.562 31.59 163.562 31.6011C163.552 31.6033 163.099 31.615 163.252 31.6343C163.406 31.6537 163.803 31.6541 163.816 31.6561C163.892 31.6677 163.199 31.6783 163.178 31.6852C163.168 31.6886 163.54 31.7099 163.551 31.716C163.56 31.7222 163.277 31.7356 163.166 31.755C163.082 31.7694 163.324 31.7804 163.282 31.7827C163.251 31.7842 162.597 31.7839 162.565 31.7865C162.517 31.7902 162.67 31.8074 162.648 31.8118C162.616 31.8179 162.405 31.8117 162.432 31.8181C162.453 31.8228 163.272 31.8822 163.267 31.8981C163.258 31.9251 162.39 31.8629 163.197 31.9696C163.203 31.9703 163.4 31.9627 163.405 31.9634C163.526 31.983 162.896 32.0132 163.667 32.0079C162.233 32.042 163.488 32.0486 163.276 32.0941C163.194 32.1116 162.639 32.1188 162.636 32.1215C162.69 32.1437 162.867 32.1264 162.927 32.1373C162.961 32.1434 162.463 32.1669 162.575 32.1821C162.633 32.19 163.161 32.1872 163.183 32.1887C163.392 32.2032 163.135 32.2187 163.181 32.229C163.212 32.2359 163.53 32.2364 163.539 32.2377C163.552 32.2402 163.119 32.2681 163.029 32.2778C162.961 32.2854 163.218 32.2971 163.17 32.3004C162.882 32.32 162.27 32.27 162.86 32.3401C162.896 32.3444 163.119 32.3427 163.126 32.3435C163.264 32.3634 162.853 32.3651 162.779 32.3814C162.653 32.4094 163.244 32.3938 162.752 32.4135C163.121 32.4318 163.326 32.431 163.758 32.4259C162.563 32.4402 162.142 32.5127 163.468 32.5109C163.046 32.5097 163.093 32.5507 162.967 32.5514C162.889 32.5518 162.277 32.5111 162.558 32.6024C162.593 32.6138 162.964 32.5993 162.848 32.6227C161.956 32.6167 162.829 32.6376 162.83 32.6406C162.818 32.6944 160.64 32.6504 160.265 32.6565C159.831 32.6636 159.445 32.706 159.351 32.7061C159.04 32.7061 159.298 32.6846 159.228 32.6767C159.158 32.6688 158.274 32.71 158.23 32.7078C158.059 32.6987 158.233 32.6732 158.215 32.6719C158.003 32.6563 156.817 32.6762 156.485 32.6703C156.495 32.6869 157.162 32.6882 156.745 32.7147C156.261 32.7457 156.233 32.6728 156.22 32.6696C153.999 32.6703 151.777 32.671 149.556 32.6716C149.584 32.7105 151.036 32.6812 151.069 32.6863C151.263 32.7165 148.81 32.716 148.509 32.7023C148.737 32.7107 148.966 32.7191 149.194 32.7274C148.804 32.772 147.94 32.7141 147.375 32.7338C147.193 32.7402 147.543 32.7574 147.536 32.7586C147.331 32.7759 147.002 32.7625 147.248 32.7393C146.747 32.7616 146.821 32.737 146.437 32.7351C146.417 32.735 146.582 32.7531 146.278 32.7605C146.135 32.764 145.376 32.7641 145.274 32.7798C145.232 32.7864 145.618 32.8563 145.665 32.7962C146.491 32.8255 145.929 32.7688 146.25 32.7702C146.299 32.7705 146.186 32.804 146.994 32.7882C146.84 32.8487 145.91 32.8035 145.75 32.8108C145.421 32.8259 146.777 32.8571 147.026 32.81C146.909 32.8572 147.122 32.8163 147.424 32.8183C147.755 32.8204 147.61 32.8344 147.789 32.8345C148.279 32.8348 148.076 32.8015 148.479 32.8316C148.086 32.7386 149.17 32.8193 149.486 32.8436C148.972 32.8484 148.458 32.8531 147.944 32.8578C147.973 32.8627 148.003 32.8676 148.032 32.8725C147.897 32.8718 147.761 32.8711 147.626 32.8704C147.648 32.8657 147.669 32.861 147.691 32.8563C146.993 32.8868 146.823 32.8526 146.766 32.8522C146.033 32.8482 145.186 32.8485 144.445 32.8484C144.334 32.8484 144.41 32.8788 143.6 32.855C143.342 32.8474 143.586 32.8237 143.293 32.8273C142.926 32.8916 142.933 32.8403 142.824 32.8402C142.512 32.8402 142.32 32.8562 142.292 32.8563C141.905 32.8588 141.339 32.8562 140.915 32.8585C140.907 32.8588 141.128 32.8786 140.852 32.8727C140.756 32.8706 139.887 32.7862 139.128 32.8137C139.326 32.8194 139.523 32.8251 139.721 32.8308C139.488 32.8229 137.862 32.8441 138.26 32.8667C138.503 32.8805 139.099 32.8261 139.164 32.8784C138.623 32.8628 135.633 32.8862 135.401 32.874C135.368 32.8723 135.566 32.8553 135.522 32.8532C135.488 32.8515 134.803 32.8555 134.712 32.849C134.658 32.8451 134.96 32.8347 134.936 32.8286C134.914 32.8243 134.059 32.817 134.01 32.8383C134.22 32.8297 134.811 32.8372 134.501 32.8551C134.461 32.8573 134.255 32.8436 134.207 32.8465C133.758 32.8725 135.099 32.8663 135.306 32.8665C134.464 32.8936 133.161 32.8616 132.185 32.8793C131.79 32.8616 132.77 32.8522 132.323 32.8375C131.397 32.8071 132.077 32.862 132.048 32.8643C131.818 32.8821 131.035 32.7864 131.035 32.8593C130.699 32.8483 130.808 32.8391 130.334 32.8487C130.396 32.8537 130.459 32.8587 130.521 32.8638C129.995 32.906 128.882 32.7995 128.965 32.7914C129.19 32.7697 129.769 32.8036 129.819 32.8028C129.892 32.8015 130.095 32.7276 130.897 32.7937C131.225 32.7441 129.625 32.7603 130.353 32.7265C129.862 32.732 127.84 32.6975 127.549 32.7193C127.514 32.7221 127.676 32.7715 127.176 32.7464C126.939 32.7344 127.511 32.7338 127.402 32.7225C127.069 32.688 122.527 32.7101 121.664 32.7119C121.609 32.712 121.629 32.6967 121.574 32.6968C121.405 32.6972 120.789 32.7201 120.487 32.713C121.113 32.7414 119.896 32.7436 119.586 32.7405C119.117 32.7357 119.146 32.7088 118.943 32.703C118.16 32.6809 116.948 32.745 116.34 32.6851C116.373 32.7445 115.288 32.6559 114.795 32.6554C114.408 32.655 113.848 32.6943 114.369 32.7183C113.702 32.7155 113 32.7266 112.374 32.7302C112.27 32.7308 112.413 32.7133 112.236 32.7149C112.22 32.7151 112.198 32.7324 112.047 32.7341C110.795 32.7492 111.404 32.7126 111.17 32.7018C111.039 32.6958 110.942 32.6928 110.871 32.6918C111.601 32.6884 112.442 32.6817 112.667 32.6812C112.475 32.6431 111.05 32.6885 110.633 32.6782C110.619 32.6779 110.669 32.6569 110.654 32.6567C110.654 32.6567 110.654 32.6567 110.654 32.6567C110.497 32.6551 109.501 32.6629 109.706 32.6879C109.761 32.6946 110.22 32.6945 110.763 32.6923C110.616 32.697 110.726 32.7204 110.7 32.7214C110.385 32.7331 109.614 32.7101 109.34 32.707C109.278 32.7064 109.282 32.7214 109.272 32.7214C109.023 32.718 109.125 32.6751 108.87 32.7194C108.419 32.6658 109.715 32.7114 109.623 32.6766C109.553 32.6499 106.676 32.6643 106.685 32.7064C106.675 32.7019 106.635 32.6963 106.554 32.69C106.374 32.6758 105.574 32.6802 105.435 32.688C105.412 32.6895 105.421 32.7305 105.392 32.7308C105.32 32.7318 104.341 32.6997 103.976 32.7239C104.173 32.7296 104.371 32.7354 104.568 32.7411C103.376 32.7415 103.56 32.7536 103.957 32.7659C103.977 32.766 103.997 32.7675 104.016 32.7677C104.323 32.7768 104.718 32.7855 104.724 32.7887C104.747 32.801 102.724 32.8079 103.113 32.7699C103.167 32.7647 104.103 32.7816 103.64 32.7545C103.559 32.7498 102.958 32.7575 102.926 32.7545C102.715 32.7347 104.027 32.7083 103.867 32.6801C103.548 32.7069 103.14 32.6928 102.774 32.6997C102.608 32.7029 102.567 32.7234 102.547 32.7238C102.24 32.7291 102.412 32.7076 102.31 32.7081C102.255 32.7085 101.651 32.7543 101.765 32.6912C99.7755 32.7376 101.215 32.7376 102.436 32.734C102.05 32.757 101.294 32.7459 100.954 32.7512C100.833 32.7532 100.905 32.7742 100.699 32.7785C100.276 32.7871 98.2549 32.7629 97.7284 32.7572C98.0517 32.7498 97.9571 32.7268 97.7076 32.7284C97.458 32.73 97.6676 32.7606 97.619 32.7639C97.5668 32.7673 96.3958 32.7529 96.201 32.7568C97.0826 32.7458 96.8837 32.7229 96.1354 32.7205C96.2436 32.7139 96.3518 32.7073 96.4599 32.7007C96.0214 32.71 95.0993 32.675 94.8458 32.6854C94.806 32.6871 94.9489 32.7063 94.9266 32.7073C94.7042 32.7155 93.9477 32.6958 93.9125 32.7024C93.8826 32.7079 94.2053 32.724 94.0856 32.7319C94.0606 32.7336 93.7495 32.7076 93.4431 32.714C93.3294 32.7164 93.3978 32.7346 93.3692 32.7356C93.1305 32.7444 93.2714 32.7137 92.8352 32.7186C92.5156 32.7223 92.2775 32.7522 91.8358 32.7423C93.286 32.7805 92.067 32.7646 91.4606 32.7761C91.3634 32.778 91.4467 32.811 90.8661 32.7949C92.1017 32.7352 90.5138 32.7634 90.1889 32.7627C90.1711 32.7625 90.165 32.7407 90.0057 32.7404C89.9922 32.7404 90.0116 32.7551 89.8635 32.7562C88.4592 32.7669 89.3571 32.7503 89.0904 32.7357C88.9768 32.7295 88.2939 32.7504 88.11 32.7509C88.0677 32.7509 88.0871 32.7356 87.9235 32.7362C87.634 32.7373 87.3746 32.7536 87.1836 32.7549C87.1613 32.755 87.1604 32.7308 86.7982 32.7387C86.6963 32.7408 86.582 32.7494 86.7266 32.7564C87.2063 32.7792 88.1162 32.7397 88.6583 32.7625C89.1527 32.7832 87.5938 32.7852 87.5127 32.7853C87.4829 32.7854 87.7874 32.7734 87.4781 32.771C87.2139 32.769 86.7312 32.8107 86.3375 32.8017C86.3075 32.801 85.993 32.7656 86.0075 32.7636C86.0206 32.7621 86.5037 32.7544 86.4335 32.7442C86.4251 32.743 86.1182 32.7432 86.0781 32.7356C86.029 32.7263 85.8967 32.6353 85.8311 32.6331C85.6629 32.6274 85.7724 32.6482 85.6636 32.6467C85.4303 32.6437 84.6209 32.6168 84.5946 32.6483C84.7283 32.6502 84.862 32.6521 84.9957 32.6539C84.2518 32.6572 84.5689 32.6706 84.4635 32.6765C84.35 32.6829 84.3819 32.6552 84.1311 32.6526C84.0766 32.652 83.0274 32.6578 83.0464 32.6694C83.6267 32.6509 83.4116 32.6852 83.4383 32.6858C83.54 32.688 83.6698 32.6688 83.8062 32.6692C84.7655 32.6722 83.7981 32.7025 84.0245 32.7103C84.1025 32.713 84.2578 32.6966 84.2909 32.6974C84.3983 32.7001 84.4001 32.7216 84.4718 32.7199C84.6391 32.7158 84.4438 32.6854 84.457 32.6838C84.6065 32.6648 85.1924 32.6885 84.8277 32.7216C85.0466 32.7335 85.0723 32.6933 85.2459 32.7094C85.591 32.7412 85.0739 32.733 84.9338 32.7383C84.4313 32.7574 84.2822 32.7419 83.5708 32.7472C83.3146 32.7491 83.0111 32.7686 82.8923 32.7697C82.8174 32.7703 82.1104 32.7024 82.0896 32.8087C81.8147 32.7984 81.3836 32.7284 81.1004 32.7316C80.8462 32.7345 80.927 32.7721 80.9033 32.7736C80.867 32.7759 80.5596 32.7729 80.4556 32.7782C80.3338 32.7845 80.3946 32.7988 80.2013 32.8047C79.7202 32.8192 79.7328 32.7808 79.6834 32.7783C79.1094 32.7495 79.3607 32.8041 79.2333 32.8085C79.1149 32.8125 77.4533 32.7915 77.1036 32.8053C77.2459 32.7976 77.3882 32.7899 77.5306 32.7822C77.2759 32.7583 77.0059 32.7974 77.0011 32.7544C76.9494 32.8237 76.4237 32.7774 76.2658 32.7792C76.2036 32.7799 76.2085 32.7917 76.1306 32.7922C75.8263 32.7943 75.1403 32.7849 74.9753 32.7909C74.2615 32.8167 76.0866 32.8596 76.2303 32.8622C75.9427 32.8614 74.3155 32.877 75.0634 32.9103C75.179 32.9154 75.3839 32.8844 75.4488 32.8832C75.8884 32.8752 75.5427 32.903 75.5772 32.9057C75.6357 32.9099 75.925 32.883 76.0014 32.8862C76.0268 32.8873 75.8628 32.9125 76.282 32.913C76.0758 32.9374 74.8977 32.9175 74.7431 32.9232C74.688 32.9253 75.0332 32.9774 74.0249 32.9268C74.0366 32.9316 74.0483 32.9365 74.0599 32.9413C73.4985 32.9433 72.9371 32.9453 72.3756 32.9473C72.4367 32.9361 72.7519 32.9137 72.3549 32.9185C72.1263 32.9212 72.2954 32.9461 72.2746 32.9468C72.0694 32.9536 68.439 32.9454 67.7354 32.9481C67.496 32.949 66.8289 32.969 66.7781 32.9694C66.4739 32.9714 65.3968 32.9584 65.1819 32.9612C65.0477 32.963 65.1753 32.9838 65.0554 32.9828C64.944 32.9819 65.0595 32.9618 65.0264 32.961C64.7523 32.9537 62.6701 32.98 62.1757 32.9611C62.4778 32.9668 63.9858 32.9267 63.9555 32.9125C63.9489 32.9106 63.5825 32.8953 63.5068 32.9027C63.3819 32.8853 62.9531 32.9383 62.7199 32.9279C62.6935 32.9267 62.7974 32.897 62.3811 32.8916C62.2377 32.8898 61.8621 32.9129 61.4842 32.887C60.9371 32.8994 58.0605 32.8609 57.8631 32.8928C57.8573 32.8945 58.2623 32.9055 57.9887 32.9186C57.6248 32.936 57.9516 32.8774 57.5275 32.8723C57.4636 32.8716 56.2839 32.8775 56.2453 32.8811C55.888 32.914 56.9189 32.9273 56.9044 32.9312C56.8685 32.9408 56.0119 32.9466 55.9771 32.9444C55.944 32.942 56.6425 32.8984 55.8031 32.9149C55.8993 32.9201 55.9954 32.9254 56.0916 32.9306C55.6968 32.9407 55.6592 32.9105 55.5635 32.9087C55.2662 32.9029 54.9446 32.9487 54.4682 32.8921C54.3422 32.8771 54.5514 32.8604 54.5356 32.8582C54.3843 32.838 54.1912 32.892 53.9637 32.8517C53.9466 32.8487 54.4761 32.8245 53.5506 32.8245C53.6143 32.8283 53.678 32.8322 53.7417 32.8361C53.6112 32.8447 52.6741 32.8498 52.548 32.8478C52.1798 32.8418 52.5009 32.8141 52.1308 32.8174C52.3682 32.8554 51.2426 32.8604 51.3073 32.8276C51.1501 32.8688 50.1939 32.837 49.7444 32.8361C49.4608 32.8355 48.8823 32.8534 48.7922 32.8513C48.6824 32.8488 48.7157 32.8207 48.5175 32.8145C48.461 32.8127 47.8709 32.8332 47.353 32.8042C47.2526 32.7986 47.0418 32.751 47.2283 32.7391C47.5477 32.7188 48.1518 32.7571 48.1441 32.729C48.135 32.6989 47.3213 32.7168 47.1023 32.7129C46.0912 32.6947 46.675 32.6628 46.649 32.6531C46.5816 32.6296 46.0291 32.6303 46.0061 32.6282C45.9105 32.6188 46.302 32.6002 46.3079 32.5858C46.3151 32.5671 45.7825 32.5334 45.9036 32.5271C46.0769 32.5182 46.5663 32.5463 46.5973 32.5449C47.0013 32.5268 46.4476 32.4836 46.295 32.4624C46.2488 32.4559 46.4331 32.4451 46.3947 32.4432C45.8093 32.4142 46.2713 32.5039 45.8819 32.4979C45.5345 32.4926 45.9815 32.4642 45.9682 32.4626C45.9511 32.4609 45.5357 32.4594 45.4706 32.4493C45.4386 32.4443 46.5183 32.3891 46.4732 32.3644C46.1287 32.3698 45.7842 32.3753 45.4397 32.3807C45.4127 32.3485 45.9082 32.3722 45.9594 32.3689C46.0626 32.3622 45.7749 32.3459 45.7873 32.3357C45.7939 32.3292 46.1315 32.306 45.8265 32.2965C45.7217 32.2932 45.5017 32.3158 45.1198 32.2927C46.4486 32.2632 45.5278 32.2451 45.4886 32.2336C45.4503 32.2222 46.0846 32.1953 45.3146 32.2001C45.2812 32.1373 45.3312 32.1802 45.55 32.1692C45.8181 32.1556 45.1986 32.1349 46.1782 32.1506C46.1225 32.1212 45.3351 32.1233 45.2934 32.121C45.2574 32.1188 45.4324 32.1044 45.37 32.0995C44.6318 32.0427 45.1388 32.0686 44.925 32.0323C44.906 32.0291 44.2083 32.0156 44.7395 32.0104C45.7072 32.0008 46.1116 32.0424 46.2742 31.9533C45.5585 31.9147 44.6912 31.9721 44.4736 31.9731C44.1406 31.9745 44.4856 31.9564 44.4445 31.9513C44.4303 31.9496 44.1433 31.9511 44.1394 31.9497C43.9348 31.8818 45.4171 31.9486 45.8837 31.9367C45.7587 31.9266 45.6336 31.9164 45.5085 31.9062C45.6782 31.9058 45.8479 31.9054 46.0176 31.905C45.2091 31.8846 45.9891 31.8973 46.1907 31.8423C46.236 31.8299 45.7048 31.8511 46.3107 31.8167C45.8638 31.8088 46.0064 31.7976 45.6017 31.8131C45.6122 31.791 46.5226 31.7662 46.8817 31.7549C45.6131 31.7301 46.3365 31.8109 45.2398 31.7682C45.0365 31.7955 45.5599 31.7901 45.5172 31.7947C45.3641 31.8109 45.0051 31.7851 44.5719 31.8419C44.5014 31.8512 44.7998 31.8799 44.3582 31.8785C44.3094 31.8783 44.028 31.8538 44.0319 31.852C44.0692 31.8328 44.3476 31.84 44.3591 31.832C44.3699 31.8244 44.0593 31.829 44.0582 31.8269C44.0486 31.8028 44.3174 31.8177 44.2784 31.8102C44.1941 31.7938 43.0766 31.742 44.535 31.7572C43.3237 31.7844 44.3799 31.7837 44.8517 31.7733C44.972 31.7707 45.0024 31.7563 45.1738 31.7513C45.3943 31.7449 45.6524 31.7518 45.7665 31.7491C45.8892 31.7462 45.192 31.7122 46.2004 31.7224C45.6872 31.6886 44.7807 31.7246 44.2765 31.7009C43.2594 31.653 44.9857 31.6427 45.1655 31.638C45.2134 31.6368 45.0528 31.6174 45.0847 31.6162C45.137 31.6144 46.1167 31.6233 46.2133 31.6073C46.3097 31.5912 45.8545 31.608 45.8242 31.5913C45.8037 31.58 46.9856 31.56 46.3458 31.5523C45.9048 31.5471 45.092 31.5923 44.955 31.5437C45.6036 31.5396 46.2521 31.5356 46.9006 31.5316C46.5456 31.5131 46.1907 31.4945 45.8357 31.476C46.5636 31.4702 47.1929 31.4911 47.8842 31.4646C46.223 31.4052 48.4236 31.4172 48.4478 31.41C48.4559 31.4057 47.802 31.3575 47.6968 31.3487C48.2762 31.3302 50.0368 31.3211 49.0068 31.2617C49.1938 31.2751 49.6465 31.242 49.6405 31.2395C49.583 31.2132 48.5956 31.2302 48.7566 31.2065C48.9433 31.179 49.2048 31.2163 49.4919 31.2133C50.9653 31.1978 50.5611 31.0606 52.0384 31.0823C52.0091 31.0775 51.9797 31.0726 51.9503 31.0677C53.5561 31.0755 55.162 31.0832 56.7678 31.091C57.3961 31.0491 59.0682 31.0236 59.8895 31.0283C60.0548 31.0292 60.8667 31.0511 60.928 31.055C61.0415 31.0624 60.4176 31.0652 60.6995 31.079C60.759 31.0819 62.1336 31.0911 62.0353 31.0677C61.8813 31.065 61.3992 31.0768 61.3203 31.0712C60.7661 31.0318 65.0038 31.0633 65.2138 31.0474C65.1199 31.0398 65.0261 31.0322 64.9322 31.0246C65.1996 31.0283 65.467 31.0321 65.7344 31.0358ZM53.4467 32.9176C53.2862 32.9411 52.884 32.9235 52.6463 32.9301C52.318 32.9393 51.7598 33.0298 52.0001 32.9391C52.4823 32.9319 52.9645 32.9248 53.4467 32.9176ZM60.4941 32.9527C60.1708 32.94 60.4216 32.8894 60.6866 32.9104C60.716 32.9128 60.9316 32.9697 60.4941 32.9527ZM57.1043 32.9286C57.1179 32.9279 57.3973 32.9293 57.4071 32.9301C57.6577 32.9504 56.8152 32.9463 57.1043 32.9286ZM73.4797 32.9026C73.1235 32.9048 73.3815 32.9509 73.603 32.9319C73.6169 32.9307 73.5032 32.9025 73.4797 32.9026ZM73.2263 32.9014C72.9496 32.8601 72.3923 32.9437 72.8354 32.9353C72.8784 32.9345 73.2391 32.9034 73.2263 32.9014ZM59.3416 32.9325C59.3779 32.9167 59.7115 32.9243 59.8539 32.9281C59.85 32.9426 59.4812 32.9307 59.3416 32.9325ZM67.7982 32.9281C67.8123 32.9157 66.653 32.9164 66.574 32.9328C66.757 32.9258 67.7848 32.9393 67.7982 32.9281ZM70.7712 32.9107C70.7418 32.9085 70.3413 32.9118 70.353 32.9227C70.5485 32.9371 70.9035 32.9204 70.7712 32.9107ZM76.6803 32.9114C76.7021 32.9086 76.4022 32.8388 77.1128 32.8848C77.2172 32.8915 76.8445 32.9097 76.8816 32.9122C76.9592 32.9171 77.0206 32.9194 77.0699 32.9198C76.7389 32.9256 76.3951 32.9283 76.3618 32.9241C76.2057 32.9041 76.6707 32.9125 76.6803 32.9114ZM79.7826 32.8594C79.8508 32.848 80.2863 32.8541 80.3854 32.8588C80.4025 32.8597 80.3283 32.8896 80.5244 32.8873C80.6818 32.8855 80.4466 32.8549 80.7533 32.8598C81.0633 32.8647 80.6492 32.8865 80.6762 32.8881C80.7125 32.8901 81.1919 32.8764 81.177 32.8942C81.1659 32.9074 80.6523 32.8985 80.5253 32.9013C80.3627 32.9049 80.5599 32.9269 80.288 32.9221C80.1172 32.9192 80.2119 32.8805 80.1759 32.8786C80.1457 32.877 79.5486 32.8992 79.7835 32.8595C79.7832 32.8595 79.7829 32.8594 79.7826 32.8594ZM77.1595 32.9181C77.1345 32.9194 77.1053 32.9201 77.0699 32.9198C77.0999 32.9193 77.1299 32.9187 77.1595 32.9181ZM54.381 32.9007C54.549 32.9126 54.0501 32.9279 53.8612 32.9122C53.858 32.8996 54.3542 32.8988 54.381 32.9007ZM77.4664 32.8866C77.9581 32.8963 77.5964 32.9096 77.1595 32.9181C77.2982 32.9108 77.3013 32.8834 77.4664 32.8866ZM63.5068 32.9027C63.5276 32.9056 63.5407 32.9101 63.5424 32.9175C63.4879 32.9094 63.483 32.9051 63.5068 32.9027ZM64.6539 32.9159C65.0471 32.8934 64.2482 32.8943 64.2532 32.9104C64.2556 32.9165 64.6381 32.9168 64.6539 32.9159ZM73.9367 32.9048C73.9007 32.9026 74.4595 32.8346 73.6482 32.8856C74.0812 32.8936 73.6244 32.901 73.6311 32.907C73.6488 32.9241 74.3762 32.9077 74.5372 32.9151C74.6633 32.8844 74.0555 32.9121 73.9376 32.9048C73.9373 32.9048 73.937 32.9048 73.9367 32.9048ZM85.3737 32.8759C85.2752 32.8938 84.9625 32.888 84.7515 32.887C84.8501 32.869 85.1627 32.8748 85.3737 32.8759ZM140.585 32.8784C139.139 32.895 138.952 32.822 140.274 32.8509C140.3 32.8515 140.672 32.871 140.585 32.8784ZM128.177 32.8595C128.041 32.8277 128.492 32.8226 128.788 32.8357C128.855 32.8387 129.103 32.8709 128.82 32.8772C128.829 32.8386 128.391 32.8239 128.177 32.8595ZM77.7443 32.8662C77.8875 32.845 78.3281 32.8601 78.5603 32.8633C78.4186 32.8808 77.9496 32.8729 77.7443 32.8662ZM135.834 32.8404C135.682 32.8379 135.579 32.8656 135.605 32.8679C135.723 32.8785 136.008 32.8561 135.834 32.8404ZM76.3217 32.8629C76.3015 32.8502 76.8852 32.838 76.9259 32.8694C76.8011 32.8671 76.3361 32.8709 76.3217 32.8629ZM84.9758 32.8664C84.8852 32.8599 85.3545 32.8484 85.4965 32.8548C85.4851 32.8683 85.0352 32.8705 84.9758 32.8664ZM133.381 32.8498C133.244 32.8473 132.903 32.8466 132.866 32.8578C132.819 32.8718 133.319 32.867 133.381 32.8498ZM158.77 32.8256C158.788 32.8306 158.26 32.8669 158.025 32.8577C157.579 32.8401 158.752 32.822 158.77 32.8256ZM137.276 32.8261C137.707 32.8524 137.229 32.8269 137.248 32.8546C137.537 32.8556 138.258 32.857 137.763 32.8297C137.666 32.8245 137.411 32.8279 137.276 32.8261ZM136.88 32.8168C136.833 32.8258 136.523 32.8541 136.791 32.8521C136.915 32.8511 137.115 32.8196 136.88 32.8168ZM155.499 32.8379C155.114 32.8134 156.882 32.8265 156.932 32.8308C156.959 32.8331 156.977 32.8352 156.987 32.8371C157.052 32.8293 157.386 32.8279 157.424 32.8476C157.324 32.8459 157.051 32.8477 157.019 32.8455C157.005 32.8446 156.995 32.8437 156.988 32.8428C156.87 32.8599 155.573 32.8426 155.499 32.8379ZM152.57 32.8126C153.011 32.7764 153.089 32.838 153.051 32.84C152.571 32.8652 152.884 32.8198 152.869 32.8176C152.836 32.8141 152.494 32.8352 152.571 32.8126C152.57 32.8126 152.57 32.8126 152.57 32.8126ZM154.899 32.8278C154.917 32.827 155.287 32.8289 155.303 32.8299C155.606 32.8506 154.558 32.8453 154.899 32.8278ZM82.121 32.8163C82.3862 32.8224 82.126 32.8451 81.9497 32.8369C81.9353 32.8361 81.887 32.8109 82.121 32.8163ZM136.668 32.8229C136.606 32.8186 135.033 32.8025 135.127 32.8367C135.261 32.8327 137.049 32.8503 136.668 32.8229ZM124.91 32.8146C125.187 32.8149 124.885 32.8471 124.737 32.8351C124.682 32.8306 124.84 32.8145 124.91 32.8146ZM75.5347 32.8336C75.2466 32.8514 75.3062 32.7919 75.5559 32.8123C75.5657 32.8131 75.546 32.8329 75.5347 32.8336ZM127.126 32.8331C126.17 32.8527 126.396 32.7504 127.64 32.7849C127.601 32.7895 127.562 32.794 127.523 32.7986C128.959 32.814 127.622 32.8058 127.27 32.8115C127.136 32.8137 127.248 32.8308 127.127 32.8333C127.127 32.8332 127.127 32.8332 127.126 32.8331ZM123.451 32.8126C122.529 32.74 124.288 32.7873 124.793 32.7778C124.304 32.8078 123.667 32.8033 124.533 32.834C123.267 32.8399 123.794 32.811 123.743 32.8086C123.684 32.8059 123.49 32.8158 123.451 32.8126ZM125.881 32.8122C125.935 32.81 126.336 32.8248 126.481 32.8224C126.278 32.8472 125.528 32.8266 125.881 32.8122ZM149.498 32.8295C149.532 32.8101 149.614 32.7957 149.931 32.803C149.833 32.8128 149.631 32.8212 149.498 32.8295ZM53.1421 32.8153C52.924 32.8139 52.4896 32.8066 52.6228 32.827C52.6374 32.8288 53.1414 32.8268 53.1421 32.8153ZM132.098 32.8071C132.052 32.8048 130.852 32.8032 131.266 32.8246C131.391 32.8311 132.483 32.8283 132.098 32.8071ZM138.311 32.8096C138.21 32.8094 137.803 32.813 137.794 32.8176C137.766 32.8335 138.267 32.8248 138.311 32.8096ZM52.0417 32.7954C52.013 32.7934 51.3467 32.797 51.4199 32.8064C51.559 32.8242 52.1401 32.8024 52.0417 32.7954ZM83.0861 32.7708C83.1418 32.77 83.2155 32.7912 83.2348 32.7914C83.28 32.7917 84.2996 32.7836 83.91 32.8107C83.8451 32.8152 82.3782 32.8048 82.1874 32.8021C82.1137 32.7732 82.7403 32.8007 82.8927 32.7977C82.9196 32.7972 82.9368 32.7729 83.0857 32.7709C83.0858 32.7708 83.086 32.7708 83.0861 32.7708ZM151.148 32.809C151.193 32.7906 152.392 32.7784 152.378 32.8007C151.968 32.8034 151.558 32.8062 151.148 32.809ZM150.54 32.8059C150.284 32.7929 150.883 32.7886 151.059 32.7943C151.061 32.8067 150.577 32.8078 150.54 32.8059ZM136.038 32.7407C135.917 32.7452 136.288 32.7721 136.205 32.7774C136.152 32.7806 135.883 32.7705 135.797 32.7789C135.772 32.7816 136.047 32.8069 136.126 32.8058C136.239 32.8043 136.13 32.7845 136.253 32.7843C136.661 32.7839 137.024 32.7981 137.407 32.7977C137.441 32.7977 137.173 32.7836 137.468 32.7838C137.514 32.7838 137.788 32.8048 138.141 32.8017C138.92 32.7369 139.492 32.8005 140.482 32.7771C140.444 32.771 139.705 32.7547 139.661 32.754C138.834 32.7434 137.353 32.7422 136.487 32.7421C136.265 32.742 136.372 32.7557 136.277 32.7562C136.201 32.7566 136.291 32.7312 136.038 32.7407ZM53.2579 32.8013C53.154 32.7759 52.7893 32.792 52.5563 32.7907C52.6383 32.8135 53.0303 32.7957 53.2579 32.8013ZM145.158 32.7863C145.042 32.7873 144.68 32.7796 144.65 32.7873C144.611 32.7972 145.134 32.8035 145.158 32.7863ZM88.8346 32.778C88.8459 32.7773 89.1268 32.7786 89.1374 32.7794C89.3884 32.7998 88.5459 32.7956 88.8346 32.778ZM95.5539 32.7829C95.7669 32.7797 95.9817 32.7718 96.0533 32.7924C95.9176 32.7892 95.5289 32.7972 95.5539 32.7829ZM104.824 32.7822C104.78 32.7553 105.421 32.7727 105.542 32.7752C105.497 32.7871 104.856 32.8017 104.824 32.7822ZM149.452 32.7449C149.844 32.7465 149.761 32.7057 150.01 32.7241C150.051 32.7273 150.182 32.8123 149.751 32.7804C149.674 32.7747 149.977 32.7545 149.452 32.7449ZM127.843 32.7858C127.942 32.768 128.254 32.7732 128.464 32.7747C128.417 32.7879 127.993 32.7845 127.843 32.7858ZM50.8383 32.775C50.6545 32.7499 49.8052 32.7685 50.0153 32.7852C50.0452 32.7873 50.7192 32.7741 50.8383 32.775ZM78.7408 32.7849C79.0903 32.7651 78.3665 32.759 78.138 32.7783C78.2414 32.7771 78.7173 32.7862 78.7408 32.7849ZM102.597 32.7676C102.614 32.7668 102.984 32.7687 103.001 32.7697C103.305 32.7904 102.256 32.7851 102.597 32.7676ZM93.3443 32.7501C93.4778 32.7338 94.3555 32.747 94.5522 32.7633C94.3629 32.7872 93.1786 32.7705 93.3443 32.7501ZM147.839 32.7565C148.119 32.7556 148.384 32.7607 148.641 32.7677C148.587 32.7815 147.869 32.7667 147.839 32.7565ZM103.957 32.7659C103.977 32.766 103.997 32.7675 104.016 32.7677C103.996 32.7671 103.976 32.7665 103.957 32.7659ZM141.581 32.7468C141.346 32.7414 141.395 32.7666 141.409 32.7674C141.586 32.7755 141.846 32.753 141.581 32.7468ZM52.9902 32.7639C52.909 32.7412 52.5149 32.7588 52.2882 32.7534C52.3539 32.7714 52.8076 32.7663 52.9902 32.7639ZM122.464 32.7661C122.17 32.7415 123.367 32.7129 123.62 32.7288C123.638 32.744 122.507 32.7695 122.464 32.7661ZM77.6557 32.7509C77.6322 32.7331 77.1292 32.7545 77.2361 32.763C77.3037 32.7683 77.6697 32.7619 77.6557 32.7509ZM124.222 32.7392C124.335 32.7337 124.597 32.7513 124.505 32.762C124.386 32.7757 124.193 32.7407 124.222 32.7392ZM134.319 32.7249C134.27 32.7222 133.608 32.7404 133.882 32.7586C134.071 32.7712 134.101 32.7455 134.146 32.7454C134.196 32.7455 135.258 32.7769 134.319 32.7249ZM115.755 32.7506C116.005 32.7438 116.307 32.7517 116.568 32.7512C116.462 32.7622 115.862 32.7652 115.755 32.7506ZM79.5952 32.7461C79.5346 32.7389 77.8828 32.7346 78.8211 32.7567C78.8759 32.758 79.7794 32.7679 79.5952 32.7461ZM149.452 32.7449C149.403 32.7447 149.346 32.7438 149.279 32.7421C149.345 32.7428 149.402 32.744 149.452 32.7449ZM145.001 32.7422C145.091 32.7293 144.636 32.7258 144.502 32.7327C144.461 32.7485 144.988 32.744 145.001 32.7422ZM116.588 32.7332C116.739 32.7258 117.012 32.7337 117.198 32.7328C117.167 32.7448 116.653 32.7454 116.588 32.7332ZM106.016 32.7196C106.315 32.7268 106.682 32.7235 106.688 32.7088C106.694 32.7111 106.709 32.7135 106.733 32.716C106.757 32.7184 107.077 32.7115 107.217 32.7166C108.05 32.7464 104 32.7341 106.347 32.6925C106.236 32.7016 106.126 32.7106 106.016 32.7196ZM92.1566 32.7155C91.9869 32.6975 91.5117 32.72 91.635 32.7271C91.7209 32.7319 92.3265 32.7335 92.1566 32.7155ZM98.6861 32.7048C98.6354 32.7016 98.1714 32.7142 98.1595 32.7236C98.4262 32.7336 98.9172 32.7197 98.6861 32.7048ZM90.8522 32.6945C90.7457 32.6918 90.6098 32.7207 90.6223 32.7219C90.7306 32.7325 91.0311 32.7106 90.8522 32.6945ZM148.64 32.667C148.482 32.6587 147.976 32.6797 147.867 32.6987C147.846 32.6951 147.791 32.6902 147.69 32.6845C147.69 32.6845 147.69 32.6845 147.691 32.6845C147.554 32.6768 143.471 32.6683 146.21 32.7051C146.296 32.7063 146.179 32.6891 146.527 32.6922C146.551 32.6924 146.562 32.7064 146.633 32.707C146.797 32.7085 147.67 32.7173 147.845 32.7061C147.847 32.7087 147.858 32.7111 147.882 32.7134C148.097 32.7336 148.763 32.6734 148.64 32.667ZM99.6061 32.7023C99.5127 32.6971 99.2171 32.702 99.1865 32.7144C99.3331 32.7204 99.8228 32.7144 99.6061 32.7023ZM79.544 32.6954C79.3537 32.6853 78.8716 32.7043 79.0173 32.7144C79.1067 32.7206 79.7634 32.7071 79.544 32.6954ZM96.6455 32.7089C97.7364 32.7235 96.9058 32.7077 97.0729 32.6896C96.9304 32.696 96.788 32.7024 96.6455 32.7089ZM153.689 32.7138C153.515 32.7096 153.719 32.6739 153.911 32.6933C153.971 32.6994 153.786 32.716 153.689 32.7138ZM161.544 32.7027C161.395 32.671 162.12 32.6896 161.838 32.7113C161.824 32.7121 161.554 32.7039 161.544 32.7027ZM156.055 32.6897C155.937 32.7113 155.86 32.7138 155.527 32.7085C156.02 32.7024 155.563 32.6834 156.055 32.6897ZM106.685 32.7064C106.687 32.7073 106.688 32.7079 106.688 32.7088C106.686 32.708 106.685 32.7072 106.685 32.7064ZM89.8266 32.7001C89.6901 32.6818 89.3073 32.6832 89.4213 32.7015C89.4323 32.7033 89.7706 32.7136 89.8266 32.7001ZM147.867 32.6987C147.885 32.702 147.875 32.7041 147.845 32.7061C147.844 32.7036 147.852 32.7013 147.867 32.6987ZM91.8815 32.6852C91.8679 32.6988 92.4504 32.7041 92.4737 32.7025C92.808 32.6789 92.1221 32.6844 91.8815 32.6852ZM75.6926 32.6763C75.6625 32.6777 75.8563 32.7129 75.975 32.6991C76.067 32.6884 75.8051 32.6709 75.6926 32.6763ZM157.184 32.6809C157.369 32.6809 157.629 32.6809 157.676 32.6976C157.553 32.6951 157.181 32.6932 157.184 32.6809ZM161.26 32.6797C161.042 32.6994 160.544 32.6993 160.226 32.6961C160.22 32.6702 161.055 32.6858 161.26 32.6797ZM149.14 32.6767C149.125 32.6756 148.663 32.6679 148.726 32.6852C148.818 32.7106 149.271 32.6861 149.14 32.6767ZM76.5908 32.695C76.7976 32.683 76.3216 32.6464 76.1034 32.6747C75.9913 32.6892 76.5559 32.697 76.5908 32.695ZM88.6315 32.6762C88.3586 32.6862 89.0351 32.704 89.1296 32.6859C89.0039 32.6845 88.7285 32.6726 88.6315 32.6762ZM97.919 32.6578C97.0588 32.6056 97.5273 32.7009 97.6799 32.6925C97.7014 32.6913 97.94 32.6591 97.919 32.6578ZM48.704 32.6707C48.5822 32.6779 49.0362 32.7042 49.095 32.6869C49.1313 32.6761 48.7819 32.666 48.704 32.6707ZM110.871 32.6918C110.835 32.692 110.799 32.6921 110.763 32.6923C110.79 32.6914 110.825 32.6911 110.871 32.6918ZM86.1538 32.6062C86.7593 32.6799 86.6957 32.6231 86.7483 32.6234C86.862 32.6242 87.1262 32.6442 87.3405 32.6409C87.0951 32.6492 86.8497 32.6575 86.6043 32.6658C86.7981 32.6711 88.4822 32.6982 88.5175 32.6863C88.5681 32.6693 88.0382 32.6746 88.0227 32.6731C88.0005 32.671 87.9177 32.6236 87.8686 32.6218C87.7877 32.619 86.3795 32.618 86.1538 32.6062ZM96.1202 32.666C96.2585 32.6717 96.2978 32.6904 96.3621 32.6859C96.384 32.6844 96.3875 32.6665 96.4622 32.6619C96.3482 32.6633 96.2342 32.6646 96.1202 32.666ZM85.0695 32.6725C84.8981 32.6506 85.6666 32.6589 85.6913 32.6614C85.8227 32.6762 85.2096 32.6904 85.0695 32.6725ZM91.5907 32.6693C91.5627 32.668 90.9725 32.6612 90.9773 32.6734C91.1334 32.6826 91.9225 32.6853 91.5907 32.6693ZM96.5546 32.6607C96.7619 32.6627 97.1539 32.6808 97.1089 32.6538C97.1086 32.6538 97.1083 32.6538 97.108 32.6538C96.9235 32.6561 96.739 32.6584 96.5546 32.6607ZM77.2989 32.6381C76.9146 32.5952 77.0966 32.6494 77.4369 32.6632C77.5399 32.644 77.3618 32.645 77.2989 32.6381ZM76.0692 32.6061C75.9623 32.5984 74.8607 32.6068 75.0288 32.6295C75.0885 32.6376 75.722 32.6172 75.7512 32.6188C75.7954 32.6211 75.5933 32.6462 75.9312 32.6412C75.9114 32.6327 76.1058 32.6087 76.0692 32.6061ZM76.9808 32.6106C76.599 32.578 76.5132 32.6381 76.8003 32.6383C76.9126 32.6384 77.0353 32.6153 76.9808 32.6106ZM78.5405 32.6157C78.4031 32.61 78.0371 32.6017 77.7849 32.6217C78.1225 32.6234 78.46 32.6251 78.7976 32.6268C78.8365 32.6155 78.6607 32.6207 78.5396 32.6157C78.5399 32.6157 78.5402 32.6157 78.5405 32.6157ZM163.554 32.5255C163.251 32.5085 163.95 32.5019 163.979 32.5061C164.067 32.52 163.69 32.5331 163.554 32.5255ZM46.3342 32.124C46.2499 32.1172 46.1948 32.0948 46.0093 32.1066C46.1959 32.1231 46.3826 32.1396 46.5692 32.1561C46.7142 32.1183 46.4264 32.1315 46.3342 32.124ZM45.6216 31.9857C45.6479 31.9848 45.5039 31.9266 45.8445 31.9654C46.0746 31.9917 44.8232 32.0172 44.5973 31.9914C44.8469 31.9794 45.3946 31.9932 45.6216 31.9857ZM43.4295 31.7337C43.4151 31.7291 43.8905 31.7223 43.9456 31.7256C44.2345 31.7428 43.5076 31.7586 43.4295 31.7337ZM44.9463 31.7448C44.7233 31.7335 45.2173 31.7263 45.3645 31.7328C45.3787 31.7436 44.9807 31.7465 44.9463 31.7448ZM160.482 31.6825C160.241 31.6429 160.025 31.7281 160.396 31.7109C160.414 31.7101 160.492 31.6844 160.482 31.6825ZM43.8943 31.675C44.1173 31.6863 43.6234 31.6936 43.4761 31.6871C43.4625 31.6763 43.8604 31.6734 43.8943 31.675ZM160.312 31.5882C159.992 31.5598 160.104 31.6553 160.145 31.6592C160.309 31.6744 160.875 31.6369 160.991 31.6275C160.144 31.6419 160.463 31.6016 160.312 31.5882ZM158.834 31.6456C158.537 31.6558 159.297 31.6753 159.442 31.6487C159.294 31.6499 158.919 31.6427 158.834 31.6456ZM157.03 31.615C156.87 31.6115 156.395 31.6034 156.315 31.6184C156.489 31.6157 156.962 31.6304 157.03 31.615ZM156.668 31.5699C156.418 31.5495 156.358 31.609 156.646 31.5913C156.657 31.5906 156.677 31.5711 156.668 31.5699ZM155.263 31.5484C155.099 31.5248 154.912 31.5824 155.178 31.584C155.257 31.5843 155.281 31.5511 155.263 31.5484ZM159.911 31.4854C159.676 31.4753 159.374 31.5166 159.875 31.5211C159.699 31.5274 159.523 31.5337 159.347 31.54C160.003 31.5631 159.955 31.5059 160.144 31.5083C160.407 31.5116 160.386 31.5589 160.333 31.5737C160.549 31.5448 161.467 31.5443 161.997 31.5388C161.531 31.5266 160.775 31.5056 160.315 31.4979C160.184 31.4957 160.056 31.5086 159.944 31.5072C159.765 31.5048 159.924 31.4861 159.912 31.4854C159.912 31.4854 159.911 31.4854 159.911 31.4854ZM153.417 31.5476C152.935 31.5208 153.24 31.5787 153.512 31.5683C153.524 31.5675 153.429 31.5482 153.417 31.5476ZM43.2555 31.4991C43.8992 31.5233 43.4313 31.5554 44.7778 31.5067C44.2121 31.5411 44.7465 31.5315 44.6361 31.5454C44.5475 31.5564 44.2156 31.5473 44.4085 31.5694C44.1549 31.5453 43.054 31.552 43.0049 31.5481C43.0053 31.5481 43.0058 31.5481 43.0063 31.5481C42.9768 31.5457 43.0501 31.4914 43.2555 31.4991ZM157.027 31.4636C156.867 31.3934 156.804 31.5048 156.488 31.4466C156.067 31.5312 157.65 31.4466 157.841 31.518C156.123 31.5097 158.977 31.5888 157.777 31.4819C158.765 31.5207 158.101 31.4687 158.253 31.455C158.417 31.4405 158.976 31.4563 158.947 31.4301C158.947 31.4301 158.947 31.4301 158.946 31.4301C158.604 31.432 158.263 31.4338 157.921 31.4356C158.255 31.4921 157.557 31.4752 157.32 31.4292C157.222 31.4406 157.125 31.4521 157.027 31.4636ZM158.962 31.5166C158.929 31.5153 158.185 31.5232 158.233 31.5345C158.332 31.5417 159.388 31.5331 158.962 31.5166ZM162.235 31.5042C161.968 31.5041 161.555 31.4931 161.41 31.5144C161.677 31.5145 162.09 31.5255 162.235 31.5042ZM148.487 31.5002C148.147 31.5177 149.194 31.5229 148.891 31.5022C148.876 31.5012 148.504 31.4994 148.487 31.5002ZM156.253 31.4742C155.907 31.4527 156.071 31.5211 156.327 31.5033C156.342 31.5022 156.269 31.4752 156.253 31.4742ZM43.7771 31.4908C43.8002 31.4741 44.7341 31.4858 44.8997 31.4857C44.8056 31.5012 43.7505 31.51 43.7771 31.4908ZM162.705 31.4416C162.174 31.3814 161.453 31.451 161.374 31.4494C161.295 31.4479 161.418 31.4216 161.4 31.4209C161.36 31.4194 160.522 31.4216 160.482 31.4234C160.453 31.4249 160.604 31.4618 160.432 31.4735C160.769 31.4525 162.299 31.4656 162.379 31.4615C162.44 31.4582 161.976 31.4194 162.704 31.4416C162.704 31.4416 162.705 31.4416 162.705 31.4416ZM161.176 31.4414C161.385 31.4569 160.799 31.4588 160.657 31.4531C160.342 31.4403 161.149 31.4395 161.176 31.4414ZM159.766 31.4271C159.699 31.4236 159.094 31.4205 159.043 31.4377C159.329 31.4601 159.918 31.4352 159.766 31.4271ZM153.039 31.4294C152.882 31.4316 152.451 31.4184 152.426 31.4334C152.583 31.4312 153.015 31.4445 153.039 31.4294ZM46.9634 31.3592C46.7026 31.3466 47.3068 31.3414 47.4831 31.3475C47.4927 31.3575 46.9856 31.3603 46.9634 31.3592ZM156.195 31.33C156.102 31.3255 154.206 31.3369 153.94 31.344C154.2 31.3554 156.079 31.3562 156.164 31.3507C156.189 31.349 156.207 31.3308 156.195 31.33ZM160.296 31.3231C160.47 31.3009 160.583 31.3275 160.605 31.3278C160.82 31.3312 161.266 31.3262 161.168 31.3476C160.789 31.339 159.95 31.3672 160.296 31.3231ZM152.905 31.3289C152.261 31.3372 153.498 31.3606 153.335 31.3374C153.325 31.336 152.971 31.3281 152.905 31.3289ZM156.407 31.3236C156.549 31.3056 158.446 31.3211 158.75 31.3211C158.477 31.3542 158.257 31.3291 157.891 31.3308C157.792 31.3313 157.819 31.345 157.808 31.3451C157.637 31.3457 157.765 31.3298 157.659 31.3296C157.593 31.3294 156.207 31.3489 156.407 31.3236ZM160.395 31.3077C160.501 31.295 161.686 31.2896 161.733 31.2929C162.09 31.3181 160.487 31.3121 160.395 31.3077ZM156.233 31.2942C156.437 31.2557 157.379 31.2815 156.734 31.3006C156.672 31.3024 156.412 31.2857 156.233 31.2942ZM152.973 31.2923C152.942 31.2912 152.27 31.2835 152.258 31.2957C152.355 31.3005 153.334 31.3048 152.973 31.2923ZM153.321 31.2509C153.305 31.2512 153.463 31.2748 153.148 31.2718C153.122 31.2715 153.073 31.245 152.677 31.2547C152.597 31.2567 152.472 31.2743 152.481 31.2754C152.893 31.317 154.134 31.2373 153.321 31.2509ZM160.417 31.2862C160.353 31.275 160.507 31.2418 160.646 31.2586C160.705 31.2659 160.594 31.2858 160.417 31.2862ZM150.845 31.2816C151.235 31.2614 150.01 31.2576 149.947 31.2628C149.987 31.2753 150.806 31.2835 150.845 31.2816ZM47.574 31.2037C47.5737 31.2037 47.5734 31.2037 47.5731 31.2037C47.9014 31.2083 47.6981 31.225 47.7134 31.2255C48.4127 31.2502 48.2272 31.2122 48.3366 31.2077C48.571 31.198 48.5333 31.2442 48.9288 31.225C48.275 31.2533 48.8701 31.2415 48.8886 31.2579C48.9619 31.3249 48.0182 31.2265 47.6922 31.2406C47.6468 31.2425 47.9821 31.2639 47.8658 31.27C47.4874 31.2897 46.3144 31.1862 47.574 31.2037ZM160.753 31.2557C160.905 31.236 162.06 31.2551 161.754 31.2713C161.705 31.2739 160.529 31.2844 160.753 31.2557ZM106.79 31.2266C107.067 31.2096 106.424 31.1896 106.305 31.2028C106.245 31.2094 106.668 31.2341 106.79 31.2266ZM102.278 31.1538C101.948 31.1572 101.6 31.2283 102.011 31.2172C102.055 31.216 102.316 31.1636 102.278 31.1538ZM123.941 31.1903C123.597 31.1649 123.617 31.212 123.87 31.2114C123.959 31.2112 123.952 31.1911 123.941 31.1903ZM110.793 31.1964C110.759 31.1947 110.361 31.1977 110.375 31.2086C110.522 31.2151 111.016 31.2077 110.793 31.1964ZM124.05 31.1836C123.846 31.1921 124.198 31.2262 124.447 31.1928C124.321 31.1956 124.071 31.1827 124.05 31.1836ZM155.521 31.1899C155.35 31.2093 154.866 31.2034 154.588 31.2067C154.558 31.1817 155.322 31.1945 155.521 31.1899ZM103.679 31.1823C103.366 31.2 104.035 31.2145 103.974 31.1911C103.965 31.1898 103.691 31.1816 103.679 31.1823ZM135.055 31.181C134.828 31.196 135.549 31.2161 135.35 31.1898C135.341 31.1887 135.067 31.1802 135.055 31.181ZM138.202 31.1897C138.03 31.1846 137.296 31.1862 137.582 31.2008C137.626 31.203 138.19 31.2034 138.202 31.1897ZM48.356 31.1896C48.2632 31.1639 48.8018 31.17 48.8789 31.1745C48.9092 31.1764 48.477 31.2232 48.356 31.1896ZM121.704 31.1862C121.525 31.1895 121.063 31.1833 120.982 31.1969C121.2 31.1941 121.762 31.2132 121.704 31.1862ZM105.103 31.1822C104.831 31.1542 104.366 31.157 104.481 31.1936C104.994 31.1911 104.417 31.1607 105.103 31.1822ZM125.198 31.1534C125.055 31.1513 124.946 31.1864 124.962 31.1881C125.117 31.2038 125.34 31.1671 125.198 31.1534ZM114.473 31.1823C114.464 31.1673 114.006 31.1741 114.067 31.1838C114.087 31.187 114.479 31.1945 114.473 31.1823ZM149.52 31.1814C149.31 31.1676 149.952 31.1542 150.141 31.1702C150.233 31.1933 149.547 31.1829 149.52 31.1814ZM129.162 31.1622C129.183 31.1399 128.467 31.1525 128.749 31.171C128.82 31.1756 129.154 31.1696 129.162 31.1622ZM136.018 31.1355C135.537 31.162 137.555 31.1809 137.024 31.1478C136.987 31.1454 136.06 31.1332 136.018 31.1355ZM139.312 31.1521C139.229 31.1491 139.27 31.0742 139.613 31.1031C139.658 31.1069 139.448 31.1267 139.485 31.1312C139.506 31.1338 140.252 31.1443 140.286 31.1425C140.323 31.1405 140.28 31.1165 140.317 31.1138C140.36 31.1108 140.819 31.1319 141.059 31.1322C141.512 31.1326 141.561 31.1126 141.598 31.1125C141.706 31.1124 141.888 31.1266 142.108 31.1265C143.214 31.1264 144.905 31.1094 145.782 31.1518C145.002 31.1348 144.258 31.1529 143.482 31.1584C143.709 31.1167 142.34 31.1905 143.141 31.1424C142.772 31.1529 139.584 31.1612 139.313 31.1521C139.313 31.1521 139.312 31.1521 139.312 31.1521ZM100.976 31.1328C101.179 31.1072 100.139 31.1129 100.051 31.1425C100.188 31.1466 100.951 31.1357 100.976 31.1328ZM105.774 31.0704C105.87 31.066 105.962 31.016 106.468 31.0413C106.469 31.0413 106.469 31.0413 106.47 31.0413C106.618 31.0487 106.449 31.0609 106.476 31.0653C106.486 31.067 106.948 31.0919 106.564 31.0959C105.979 31.102 106.509 31.0587 106.197 31.0582C106.159 31.0581 105.569 31.0852 105.603 31.0911C105.607 31.0918 105.785 31.0861 105.814 31.0886C105.925 31.0979 105.871 31.1135 105.886 31.1142C105.937 31.1161 106.871 31.0895 107.007 31.1127C107.051 31.1202 105.519 31.1375 105.459 31.1336C105.421 31.1312 105.437 31.0878 105.398 31.0836C105.378 31.0814 104.762 31.0977 104.682 31.0937C104.658 31.0925 104.641 31.0913 104.628 31.0903C104.721 31.1037 104.163 31.1027 104.18 31.0876C104.19 31.0817 104.574 31.0851 104.587 31.0861C104.593 31.0866 104.599 31.0872 104.604 31.0876C104.524 31.0713 105.825 31.072 105.544 31.0477C105.921 31.0344 105.49 31.0834 105.774 31.0704ZM107.586 31.0437C107.547 31.0482 107.508 31.0528 107.469 31.0573C108.129 31.0462 108.891 31.0681 109.651 31.0679C109.844 31.0679 109.622 31.0401 109.875 31.0477C110.077 31.0538 110.302 31.0796 110.191 31.0854C110.165 31.0868 109.752 31.07 109.546 31.0717C108.936 31.0768 109.09 31.1007 109.055 31.1014C109.015 31.1021 108.632 31.0853 108.422 31.086C107.896 31.0879 107.655 31.1026 106.935 31.0834C107.351 31.0677 107.123 31.0335 107.586 31.0437ZM132.187 31.0946C132.212 31.0795 132.644 31.0929 132.801 31.0907C132.776 31.1057 132.344 31.0923 132.187 31.0946ZM67.8258 31.075C67.6932 31.0997 68.6875 31.1058 68.4254 31.0853C68.3675 31.0807 67.9508 31.0752 67.8258 31.075ZM72.2926 31.09C72.4256 31.0832 71.89 31.0654 71.891 31.0845C71.8918 31.0907 72.2754 31.0909 72.2926 31.09ZM116.117 31.0679C116.142 31.0672 116.508 31.0727 116.52 31.0739C116.762 31.1001 115.558 31.085 116.117 31.0679ZM77.7226 31.0596C77.259 31.0758 78.6544 31.0828 78.228 31.0622C78.2068 31.0612 77.7449 31.0589 77.7226 31.0596ZM79.6621 31.0551C79.551 31.056 79.0575 31.048 79.051 31.0555C79.0412 31.0676 79.6061 31.0759 79.6621 31.0551ZM125.295 31.0601C125.241 31.0323 125.892 31.0534 126.118 31.0499C126.172 31.0777 125.521 31.0566 125.295 31.0601ZM121.187 31.0396C123.931 31.0177 123.326 31.0771 121.024 31.0532C121.021 31.0353 121.014 31.041 121.187 31.0396ZM124.7 31.0429C124.601 31.0607 124.289 31.0555 124.079 31.054C124.116 31.0416 124.548 31.0461 124.7 31.0429ZM66.6419 31.0368C66.814 31.0143 67.5759 31.0421 67.4404 31.0513C67.4089 31.0533 66.5787 31.0492 66.6419 31.0368ZM116.347 31.0441C116.283 31.0171 117.107 31.0281 117.17 31.0341C117.424 31.0583 116.414 31.0382 116.347 31.0441ZM129.189 31.0363C129.334 31.0151 129.747 31.026 130.013 31.0263C129.892 31.0444 129.414 31.0367 129.189 31.0363ZM127.27 31.0197C127.287 31.0189 127.658 31.0208 127.674 31.0218C127.978 31.0425 126.93 31.0372 127.27 31.0197ZM47.1189 31.0002C47.1313 30.9995 47.4119 31.0009 47.4217 31.0017C47.6722 31.022 46.8299 31.0178 47.1189 31.0002Z" fill="url(#paint0_linear_1726_220)"/>
<mask id="path-4-inside-1_1726_220" fill="white">
<path d="M4 13C4 7.47715 8.47715 3 14 3H23C28.5228 3 33 7.47715 33 13V22C33 27.5228 28.5228 32 23 32H14C8.47715 32 4 27.5228 4 22V13Z"/>
</mask>
<path d="M4 13C4 7.47715 8.47715 3 14 3H23C28.5228 3 33 7.47715 33 13V22C33 27.5228 28.5228 32 23 32H14C8.47715 32 4 27.5228 4 22V13Z" fill="url(#paint1_linear_1726_220)"/>
<path d="M14 3C15.6472 3.06667 17.2945 3.13 18.9417 3.19C20.2945 3.23927 21.6472 3.2863 23 3.33108C28.1575 3.39664 32.4815 8.08883 32.25 13C32.1893 16 32.1396 19 32.101 22C32.1434 26.8458 27.7864 31.1141 23 31C20 31 17 31.0111 14 31.0332C9.19908 31.1893 4.74761 26.9284 4.75 22C4.68929 19 4.61753 16 4.53471 13C4.39907 9.58982 6.28466 6.13605 9.34661 4.36171C10.7392 3.5394 12.3508 3.06434 14 3C12.3515 2.93073 10.6714 3.28041 9.1661 4.02733C5.86157 5.62499 3.52541 9.197 3.46529 13C3.38247 16 3.31071 19 3.25 22C2.99336 27.7248 8.14769 33.0697 14 32.9668C17 32.9889 20 33 23 33C28.8669 33.145 34.1156 27.8075 33.899 22C33.8604 19 33.8107 16 33.75 13C33.7775 7.25794 28.4958 2.34433 23 2.66892C21.6472 2.7137 20.2945 2.76073 18.9417 2.81C17.2945 2.87 15.6472 2.93333 14 3Z" fill="#059669" mask="url(#path-4-inside-1_1726_220)"/>
<path d="M18.2883 10.8382V17.7717L16.7081 16.8687C13.9024 15.2563 12.161 12.2571 12.161 9H11V16.9332C11 19.5132 12.4834 21.8996 14.8376 23.0283L18.3205 24.7052V17.7717L19.9007 18.6747C22.7064 20.2871 24.4478 23.2863 24.4478 26.5434H25.6088V18.6102C25.6088 16.0303 24.1253 13.6438 21.7711 12.5151L18.2883 10.8382Z" fill="url(#paint2_linear_1726_220)"/>
<defs>
<linearGradient id="paint0_linear_1726_220" x1="43" y1="32.5" x2="164" y2="32.5" gradientUnits="userSpaceOnUse">
<stop stop-color="#34D399"/>
<stop offset="0.153846" stop-color="#279E72"/>
<stop offset="1" stop-color="#1B6D4F"/>
</linearGradient>
<linearGradient id="paint1_linear_1726_220" x1="0.499999" y1="8.5" x2="42" y2="51.5" gradientUnits="userSpaceOnUse">
<stop stop-color="#34D399"/>
<stop offset="1" stop-color="#0FE999"/>
</linearGradient>
<linearGradient id="paint2_linear_1726_220" x1="18.3044" y1="9" x2="18.3044" y2="26.5434" gradientUnits="userSpaceOnUse">
<stop stop-color="#047857"/>
<stop offset="1" stop-color="#0B241D"/>
</linearGradient>
</defs>
</svg>
