<svg width="32" height="32" viewBox="0 0 32 32" fill="none" xmlns="http://www.w3.org/2000/svg">
<path d="M22.4826 28.999L11.6715 4.04045C11.4852 3.61551 11.1867 3.06723 10.4139 3.06723C9.72337 3.06723 9.39444 3.39317 9.20874 3.74363C9.30473 3.4909 9.59537 2.99995 10.4379 2.99995H17.8994C18.5871 2.99995 18.9169 3.39484 19.0672 3.75637L30.0001 28.999H22.4826Z" fill="url(#paint0_linear_1205_282)"/>
<path d="M9.20863 3.74354L2.35935 19.6888C2.15077 20.1967 2 20.4999 2 20.9029C2 21.6251 2.56266 22.3492 3.98221 22.3492H8.68212L14.1438 9.74817L11.6714 4.04036C11.4851 3.61542 11.1865 3.06714 10.4138 3.06714C9.72328 3.06714 9.39433 3.39309 9.20863 3.74354Z" fill="url(#paint1_linear_1205_282)"/>
<path d="M3.98224 22.3493L19.5761 22.3493L10.5266 27.8161C10.0855 28.0706 8.40787 29 7.23082 29C6.47205 29 6.07784 28.7209 5.69931 28.0727L2.24201 21.8228C2.00384 21.3749 2 21.2257 2 20.9031C2 21.6253 2.56269 22.3493 3.98224 22.3493Z" fill="url(#paint2_linear_1205_282)"/>
<defs>
<linearGradient id="paint0_linear_1205_282" x1="14.0494" y1="3.48412" x2="16.3683" y2="9.14699" gradientUnits="userSpaceOnUse">
<stop stop-color="#29A5E3"/>
<stop offset="0.515" stop-color="#356EB9"/>
<stop offset="1" stop-color="#394DA5"/>
</linearGradient>
<linearGradient id="paint1_linear_1205_282" x1="12.3865" y1="5.14635" x2="10.8085" y2="8.94673" gradientUnits="userSpaceOnUse">
<stop stop-color="#236736"/>
<stop offset="0.493" stop-color="#6BA443"/>
<stop offset="1" stop-color="#86C146"/>
</linearGradient>
<linearGradient id="paint2_linear_1205_282" x1="4.173" y1="25.0603" x2="7.4853" y2="24.3835" gradientUnits="userSpaceOnUse">
<stop stop-color="#2B7A77"/>
<stop offset="0.51" stop-color="#4EBAA9"/>
<stop offset="1" stop-color="#5CC2B1"/>
</linearGradient>
</defs>
</svg>
