<svg width="32" height="32" viewBox="0 0 32 32" fill="none" xmlns="http://www.w3.org/2000/svg">
<path fill-rule="evenodd" clip-rule="evenodd" d="M27.243 17.9153H21.47C21.0935 17.911 20.7713 18.1871 20.7149 18.5626C20.3869 20.9284 18.3793 22.6881 16.0104 22.686L17.5735 29.8857C23.2367 29.1396 27.5956 24.4751 27.9981 18.7301C28.0128 18.5191 27.9398 18.3114 27.7965 18.1569C27.6533 18.0023 27.4528 17.9148 27.243 17.9153Z" fill="#2684FF"/>
<path fill-rule="evenodd" clip-rule="evenodd" d="M17.2526 17.7327L25.559 10.5329C25.7216 10.3884 25.8147 10.1804 25.8147 9.96184C25.8147 9.74329 25.7216 9.53529 25.559 9.39073L17.2526 2.17958C17.0284 1.98882 16.715 1.94618 16.4488 2.07022C16.1825 2.19426 16.0116 2.46255 16.0104 2.7583V17.1539C16.0116 17.4497 16.1825 17.718 16.4488 17.842C16.715 17.9661 17.0284 17.9234 17.2526 17.7327Z" fill="#2684FF"/>
<path fill-rule="evenodd" clip-rule="evenodd" d="M4.11377 19.488C4.90824 25.5025 9.99375 29.996 16.0109 30.0001V22.6862C13.3963 22.6862 11.2749 20.5521 11.2687 17.9155L4.11377 19.488Z" fill="url(#paint0_linear_1205_339)"/>
<path fill-rule="evenodd" clip-rule="evenodd" d="M4 17.8012V17.9154H11.2682C11.2744 15.2788 13.3958 13.1448 16.0104 13.1448L14.4511 5.94507C8.52674 6.72352 4.07207 11.7771 4 17.8012Z" fill="url(#paint1_linear_1205_339)"/>
<defs>
<linearGradient id="paint0_linear_1205_339" x1="10.0642" y1="6.03655" x2="10.0642" y2="22.5339" gradientUnits="userSpaceOnUse">
<stop stop-color="#0052CC"/>
<stop offset="1" stop-color="#2684FF"/>
</linearGradient>
<linearGradient id="paint1_linear_1205_339" x1="10.0071" y1="6.03645" x2="10.0071" y2="22.5338" gradientUnits="userSpaceOnUse">
<stop stop-color="#0052CC"/>
<stop offset="1" stop-color="#2684FF"/>
</linearGradient>
</defs>
</svg>
