<svg width="32" height="32" viewBox="0 0 32 32" fill="none" xmlns="http://www.w3.org/2000/svg">
<path d="M16.0006 2.00394C16.0006 2.00394 24.2528 1.63495 28.6279 9.90002H15.2984C15.2984 9.90002 12.7829 9.81923 10.6341 12.8601C10.0168 14.1364 9.35332 15.4511 10.0979 18.0422C9.02529 16.2315 4.40344 8.21246 4.40344 8.21246C4.40344 8.21246 7.66344 2.33069 16.0005 2.00394H16.0006Z" fill="#EF3F36"/>
<path d="M28.1996 22.9857C28.1996 22.9857 24.3918 30.2936 15.0247 29.9322C16.1821 27.937 21.6912 18.4303 21.6912 18.4303C21.6912 18.4303 23.0222 16.3006 21.452 12.9254C20.6533 11.7529 19.8393 10.5266 17.216 9.87299C19.3263 9.85389 28.6048 9.87299 28.6048 9.87299C28.6048 9.87299 32.0807 15.6279 28.1996 22.9857Z" fill="#FCD900"/>
<path d="M3.85931 23.0433C3.85931 23.0433 -0.588992 16.1044 4.41095 8.20068C5.56452 10.1959 11.0737 19.7027 11.0737 19.7027C11.0737 19.7027 12.262 21.917 15.9772 22.2475C17.3932 22.1437 18.8669 22.0553 20.7497 20.1217C19.7117 21.9516 15.0551 29.9476 15.0551 29.9476C15.0551 29.9476 8.31134 30.0706 3.8592 23.0433H3.85931Z" fill="#61BC5B"/>
<path d="M15.0208 30.0013L16.8957 22.2053C16.8957 22.2053 18.9559 22.0437 20.6844 20.1562C19.6118 22.0362 15.0208 30.0013 15.0208 30.0013V30.0013Z" fill="#5AB055"/>
<path d="M9.71985 16.089C9.71985 12.6523 12.517 9.86523 15.9659 9.86523C19.4149 9.86523 22.212 12.6523 22.212 16.089C22.212 19.5257 19.4149 22.3127 15.9659 22.3127C12.517 22.3089 9.71985 19.5257 9.71985 16.089V16.089Z" fill="white"/>
<path d="M10.7654 16.089C10.7654 13.2289 13.0918 10.907 15.9661 10.907C18.8364 10.907 21.1667 13.2251 21.1667 16.089C21.1667 18.9492 18.8403 21.2711 15.9661 21.2711C13.0957 21.2711 10.7654 18.9492 10.7654 16.089V16.089Z" fill="url(#paint0_linear_1205_304)"/>
<path d="M28.6009 9.87697L20.881 12.1336C20.881 12.1336 19.716 10.4305 17.2122 9.87697C19.3842 9.8654 28.6009 9.87697 28.6009 9.87697V9.87697Z" fill="#EACA05"/>
<path d="M9.94759 17.7577C8.86337 15.8855 4.40356 8.2124 4.40356 8.2124L10.1211 13.8481C10.1211 13.8481 9.53465 15.0514 9.75465 16.7735L9.94748 17.7577H9.94759Z" fill="#DF3A32"/>
<defs>
<linearGradient id="paint0_linear_1205_304" x1="15.9658" y1="10.9802" x2="15.9658" y2="20.9592" gradientUnits="userSpaceOnUse">
<stop stop-color="#86BBE5"/>
<stop offset="1" stop-color="#1072BA"/>
</linearGradient>
</defs>
</svg>
