<svg width="32" height="32" viewBox="0 0 32 32" fill="none" xmlns="http://www.w3.org/2000/svg">
<path d="M16 2C8.27812 2 2 8.27813 2 16C2 23.7219 8.27812 30 16 30C23.7219 30 30 23.7219 30 16C30 8.27813 23.7219 2 16 2Z" fill="#81B441"/>
<path d="M21.0378 7.96753C14.2501 8.41656 12.2005 14.7491 12.027 17.989C12.027 18.522 10.3153 17.4431 11.3334 12.7916C11.4207 12.3928 11.3334 11.9166 11.3334 11.9166C7.79855 15.0258 8.10253 20.9044 12.448 23.2945C15.8166 25.1472 20.1957 23.9682 22.1326 20.5154C24.4064 16.5573 22.3853 8.72545 21.0378 7.96753Z" fill="white"/>
</svg>
