<svg width="212" height="212" viewBox="0 0 212 212" fill="none" xmlns="http://www.w3.org/2000/svg">
<g filter="url(#filter0_d_1205_363)">
<path d="M92 97.9556C92 94.4708 92 92.7284 92.6782 91.3974C93.2747 90.2266 94.2266 89.2747 95.3974 88.6782C96.7284 88 98.4708 88 101.956 88H110.044C113.529 88 115.272 88 116.603 88.6782C117.773 89.2747 118.725 90.2266 119.322 91.3974C120 92.7284 120 94.4708 120 97.9556V106.044C120 109.529 120 111.272 119.322 112.603C118.725 113.773 117.773 114.725 116.603 115.322C115.272 116 113.529 116 110.044 116H101.956C98.4708 116 96.7284 116 95.3974 115.322C94.2266 114.725 93.2747 113.773 92.6782 112.603C92 111.272 92 109.529 92 106.044V97.9556Z" fill="white"/>
<path d="M114.493 92H111.241V96.7112H115.999V93.3285C116 93.3285 115.764 92.1285 114.493 92Z" fill="#1967D2"/>
<path d="M111.243 111.978V111.99V112L116 107.289H115.957L111.243 111.978Z" fill="#1967D2"/>
<path d="M116 107.289V107.246L115.957 107.289H116Z" fill="#FBBC05"/>
<path d="M116 96.7114H111.243V107.247H116V96.7114Z" fill="#FBBC05"/>
<path d="M115.957 107.289H111.243V111.978L115.957 107.289Z" fill="#EA4335"/>
<path d="M111.243 107.289H115.957L116 107.246H111.243V107.289Z" fill="#EA4335"/>
<path d="M111.231 111.99H111.242V111.978L111.231 111.99Z" fill="#34A853"/>
<path d="M100.65 107.246V111.99H111.231L111.243 107.246H100.65Z" fill="#34A853"/>
<path d="M111.242 107.289V107.246L111.231 111.99L111.242 111.978V107.289Z" fill="#34A853"/>
<path d="M96 107.246V110.544C96.0426 111.615 97.2 111.99 97.2 111.99H100.65V107.246H96Z" fill="#188038"/>
<path d="M100.65 96.7112H111.243V92H97.3344C97.3344 92 96.0853 92.1285 96 93.4556V107.246H100.65V96.7112Z" fill="#4285F4"/>
<path d="M104.116 105.114C103.873 105.114 103.64 105.082 103.415 105.019C103.195 104.956 102.993 104.861 102.809 104.735C102.624 104.603 102.46 104.44 102.315 104.245C102.177 104.049 102.07 103.823 101.995 103.565L103.06 103.143C103.135 103.43 103.262 103.648 103.441 103.797C103.619 103.94 103.844 104.012 104.116 104.012C104.237 104.012 104.352 103.995 104.462 103.961C104.571 103.92 104.667 103.866 104.747 103.797C104.828 103.728 104.892 103.648 104.938 103.556C104.99 103.458 105.016 103.349 105.016 103.229C105.016 102.976 104.921 102.778 104.73 102.635C104.545 102.491 104.289 102.42 103.96 102.42H103.449V101.395H103.917C104.032 101.395 104.144 101.381 104.254 101.352C104.364 101.324 104.459 101.281 104.54 101.223C104.626 101.16 104.693 101.083 104.739 100.991C104.791 100.893 104.817 100.781 104.817 100.655C104.817 100.46 104.747 100.302 104.609 100.182C104.47 100.055 104.283 99.9922 104.046 99.9922C103.793 99.9922 103.596 100.061 103.458 100.199C103.325 100.331 103.233 100.48 103.181 100.646L102.142 100.225C102.194 100.081 102.272 99.9349 102.376 99.7857C102.48 99.6307 102.61 99.493 102.766 99.3725C102.927 99.2462 103.115 99.1458 103.328 99.0712C103.542 98.9909 103.787 98.9507 104.064 98.9507C104.346 98.9507 104.603 98.9909 104.834 99.0712C105.071 99.1515 105.272 99.2634 105.44 99.4069C105.607 99.5446 105.737 99.7111 105.829 99.9062C105.922 100.096 105.968 100.302 105.968 100.526C105.968 100.698 105.945 100.853 105.898 100.991C105.858 101.128 105.803 101.252 105.734 101.361C105.665 101.47 105.584 101.565 105.492 101.645C105.405 101.72 105.316 101.78 105.223 101.826V101.895C105.5 102.004 105.728 102.179 105.907 102.42C106.092 102.661 106.184 102.965 106.184 103.332C106.184 103.59 106.135 103.829 106.037 104.047C105.939 104.259 105.798 104.445 105.613 104.606C105.434 104.767 105.218 104.89 104.964 104.976C104.71 105.068 104.427 105.114 104.116 105.114Z" fill="#4285F4"/>
<path d="M108.251 104.976V100.414L107.204 100.853L106.788 99.8976L108.528 99.0884H109.385V104.976H108.251Z" fill="#4285F4"/>
</g>
<defs>
<filter id="filter0_d_1205_363" x="-2" y="-2" width="216" height="216" filterUnits="userSpaceOnUse" color-interpolation-filters="sRGB">
<feFlood flood-opacity="0" result="BackgroundImageFix"/>
<feColorMatrix in="SourceAlpha" type="matrix" values="0 0 0 0 0 0 0 0 0 0 0 0 0 0 0 0 0 0 127 0" result="hardAlpha"/>
<feMorphology radius="88" operator="dilate" in="SourceAlpha" result="effect1_dropShadow_1205_363"/>
<feOffset dy="4"/>
<feGaussianBlur stdDeviation="2"/>
<feComposite in2="hardAlpha" operator="out"/>
<feColorMatrix type="matrix" values="0 0 0 0 1 0 0 0 0 0 0 0 0 0 0 0 0 0 1 0"/>
<feBlend mode="normal" in2="BackgroundImageFix" result="effect1_dropShadow_1205_363"/>
<feBlend mode="normal" in="SourceGraphic" in2="effect1_dropShadow_1205_363" result="shape"/>
</filter>
</defs>
</svg>
