<svg width="212" height="212" viewBox="0 0 212 212" fill="none" xmlns="http://www.w3.org/2000/svg">
<g filter="url(#filter0_d_1205_362)">
<path d="M92 97.9556C92 94.4708 92 92.7284 92.6782 91.3974C93.2747 90.2266 94.2266 89.2747 95.3974 88.6782C96.7284 88 98.4708 88 101.956 88H110.044C113.529 88 115.272 88 116.603 88.6782C117.773 89.2747 118.725 90.2266 119.322 91.3974C120 92.7284 120 94.4708 120 97.9556V106.044C120 109.529 120 111.272 119.322 112.603C118.725 113.773 117.773 114.725 116.603 115.322C115.272 116 113.529 116 110.044 116H101.956C98.4708 116 96.7284 116 95.3974 115.322C94.2266 114.725 93.2747 113.773 92.6782 112.603C92 111.272 92 109.529 92 106.044V97.9556Z" fill="white"/>
<path d="M106.002 98.4509L102.541 92.3432C102.656 92.2262 102.788 92.1495 102.92 92.0979C101.9 92.4338 101.432 93.5799 101.432 93.5799L95.1091 104.735C95.0201 105.085 94.9954 105.4 95.0065 105.678H101.907L106.002 98.4509Z" fill="#34A853"/>
<path d="M106.002 98.4509L110.097 105.678H116.997C117.009 105.4 116.984 105.085 116.895 104.735L110.572 93.5799C110.572 93.5799 110.103 92.4338 109.084 92.0979C109.214 92.1495 109.348 92.2262 109.463 92.3432L106.002 98.4509Z" fill="#FBBC05"/>
<path d="M106.002 98.4512L109.463 92.3435C109.348 92.2265 109.214 92.1497 109.083 92.0981C108.933 92.0491 108.771 92.0164 108.595 92.0076H108.413H103.591H103.408C103.234 92.0151 103.071 92.0478 102.92 92.0981C102.789 92.1497 102.656 92.2265 102.541 92.3435L106.002 98.4512Z" fill="#188038"/>
<path d="M101.908 105.678L98.4871 111.717C98.4871 111.717 98.3734 111.661 98.219 111.547C98.7046 111.921 99.1766 112 99.1766 112H112.614C113.355 112 113.509 111.717 113.509 111.717C113.512 111.715 113.513 111.714 113.516 111.713L110.097 105.678H101.908Z" fill="#4285F4"/>
<path d="M101.909 105.678H95.0079C95.0425 106.498 95.3984 106.978 95.3984 106.978L95.6579 107.428C95.6764 107.455 95.6875 107.47 95.6875 107.47L96.2522 108.461L97.5199 110.668C97.557 110.757 97.6002 110.839 97.6459 110.917C97.6632 110.943 97.6793 110.972 97.6978 110.997C97.7028 111.005 97.7077 111.012 97.7126 111.02C97.8696 111.241 98.045 111.412 98.2205 111.547C98.3749 111.663 98.4886 111.717 98.4886 111.717L101.909 105.678Z" fill="#1967D2"/>
<path d="M110.097 105.678H116.997C116.963 106.498 116.607 106.978 116.607 106.978L116.348 107.428C116.329 107.455 116.318 107.47 116.318 107.47L115.753 108.461L114.485 110.668C114.448 110.757 114.405 110.839 114.359 110.917C114.342 110.943 114.326 110.972 114.308 110.997C114.303 111.005 114.298 111.012 114.293 111.02C114.136 111.241 113.96 111.412 113.785 111.547C113.63 111.663 113.517 111.717 113.517 111.717L110.097 105.678Z" fill="#EA4335"/>
</g>
<defs>
<filter id="filter0_d_1205_362" x="-2" y="-2" width="216" height="216" filterUnits="userSpaceOnUse" color-interpolation-filters="sRGB">
<feFlood flood-opacity="0" result="BackgroundImageFix"/>
<feColorMatrix in="SourceAlpha" type="matrix" values="0 0 0 0 0 0 0 0 0 0 0 0 0 0 0 0 0 0 127 0" result="hardAlpha"/>
<feMorphology radius="88" operator="dilate" in="SourceAlpha" result="effect1_dropShadow_1205_362"/>
<feOffset dy="4"/>
<feGaussianBlur stdDeviation="2"/>
<feComposite in2="hardAlpha" operator="out"/>
<feColorMatrix type="matrix" values="0 0 0 0 1 0 0 0 0 0 0 0 0 0 0 0 0 0 1 0"/>
<feBlend mode="normal" in2="BackgroundImageFix" result="effect1_dropShadow_1205_362"/>
<feBlend mode="normal" in="SourceGraphic" in2="effect1_dropShadow_1205_362" result="shape"/>
</filter>
</defs>
</svg>
