<svg width="32" height="32" viewBox="0 0 32 32" fill="none" xmlns="http://www.w3.org/2000/svg">
<g clip-path="url(#clip0_1205_403)">
<path d="M30.5828 21.7142C30.4914 21.6228 24.5943 15.9542 24.5943 15.9542C24.5943 15.9542 29.0743 11.1999 30.2628 10.0114C30.6286 9.64566 30.9486 9.27995 31.1771 8.8228C32.8228 6.03423 31.8628 2.46852 29.0743 0.822803C27.0171 -0.365768 24.4571 -0.182911 22.6286 1.18852C22.3086 1.41709 22.0343 1.64566 21.76 1.91995C21.6228 2.1028 15.4057 7.77137 10.0114 12.7085L20.1143 19.1085L9.50856 31.0399C8.86856 31.4971 8.22856 31.7714 7.54285 31.9085C7.67999 31.9085 7.77142 31.9085 7.90856 31.8628C10.0114 31.5428 27.9771 28.5257 28.8457 28.3428C29.8971 28.1599 30.8571 27.5199 31.4514 26.5599C32.4571 24.9142 32 22.8571 30.5828 21.7142Z" fill="url(#paint0_linear_1205_403)"/>
<path d="M20.9828 13.9429C20.8 12.7086 20.16 11.7029 19.2457 10.9715C18.2857 10.2401 10.88 2.56007 10.0571 1.6915C8.77711 0.45721 6.94854 -0.228504 5.07425 0.0914957C1.87425 0.548639 -0.365747 3.56578 0.13711 6.76578C0.365681 8.36578 1.27997 9.73721 2.46854 10.6058C3.65711 11.5201 12.9828 17.9201 13.5771 18.3772C14.5371 19.1086 15.8171 19.5201 17.0971 19.2915C19.6114 18.8344 21.3943 16.4572 20.9828 13.9429Z" fill="url(#paint1_linear_1205_403)"/>
<path d="M10.5143 30.9943C10.56 30.9943 21.1657 19.0628 21.1657 19.0628L10.4686 12.2971C6.6743 15.7714 3.1543 18.9257 2.33144 19.7028C1.82858 20.16 1.32573 20.7543 0.960012 21.3943C-1.0057 24.7771 0.137154 29.0743 3.52001 31.04C4.89144 31.8171 8.00001 32.7771 10.5143 30.9943Z" fill="url(#paint2_linear_1205_403)"/>
<path d="M6.12567 6.12573H25.8742V25.8743H6.12567V6.12573Z" fill="black"/>
<path d="M7.95422 22.1714H15.3599V23.4057H7.95422V22.1714Z" fill="white"/>
<path d="M10.88 13.6686L7.77142 8.73145H9.87428L11.7943 11.9772L13.8057 8.73145H15.8629L12.7086 13.6229V16.9143H10.88V13.6686Z" fill="white"/>
<path d="M19.0171 10.3772H16.5028V8.73145H23.3142V10.3772H20.8V16.9143H19.0171V10.3772Z" fill="white"/>
</g>
<defs>
<linearGradient id="paint0_linear_1205_403" x1="3.23793" y1="25.0299" x2="29.3056" y2="13.1469" gradientUnits="userSpaceOnUse">
<stop stop-color="#905CFB"/>
<stop offset="0.165" stop-color="#6677F8"/>
<stop offset="0.378" stop-color="#3596F5"/>
<stop offset="0.54" stop-color="#17A9F3"/>
<stop offset="0.632" stop-color="#0CB0F2"/>
</linearGradient>
<linearGradient id="paint1_linear_1205_403" x1="13.856" y1="12.86" x2="0.488194" y2="1.05287" gradientUnits="userSpaceOnUse">
<stop stop-color="#905CFB"/>
<stop offset="0.072" stop-color="#A554E6"/>
<stop offset="0.252" stop-color="#D641B5"/>
<stop offset="0.39" stop-color="#F43597"/>
<stop offset="0.468" stop-color="#FF318C"/>
</linearGradient>
<linearGradient id="paint2_linear_1205_403" x1="2.27795" y1="26.8274" x2="33.8391" y2="6.94078" gradientUnits="userSpaceOnUse">
<stop stop-color="#905CFB"/>
<stop offset="0.165" stop-color="#6677F8"/>
<stop offset="0.378" stop-color="#3596F5"/>
<stop offset="0.54" stop-color="#17A9F3"/>
<stop offset="0.632" stop-color="#0CB0F2"/>
</linearGradient>
<clipPath id="clip0_1205_403">
<rect width="32" height="32" fill="white"/>
</clipPath>
</defs>
</svg>
