<svg width="32" height="32" viewBox="0 0 32 32" fill="none" xmlns="http://www.w3.org/2000/svg">
<path d="M5 27.9202C5 28.5588 5.37234 29.0001 6.00495 29.0001H17.9739C16.3676 25.8274 14.5692 22.9333 12.3307 20.2202C10.0146 21.6723 7.56659 22.928 5 23.9514V27.9202Z" fill="#F15713"/>
<path d="M5 8.15729C7.5601 9.17744 10.0024 10.4294 12.3128 11.8763C14.559 9.15832 16.504 6.18085 18.1144 3H6.24736C5.55831 3 5 3.56377 5 4.25932" fill="#69AAB5"/>
<path d="M12.3307 20.2201C14.3195 18.9734 16.2109 17.5843 17.982 16.0541C16.2056 14.5194 14.3073 13.1263 12.3137 11.8767C11.102 13.3431 9.80028 14.7289 8.42664 16.0378C9.80718 17.3541 11.1146 18.7469 12.3307 20.2201Z" fill="#FFB1A2"/>
<path d="M17.9815 16.0544C16.2105 17.5845 14.3193 18.9734 12.3307 20.22C14.5692 22.9331 16.3675 25.8272 17.9738 28.9999L26.962 28.9999C27.7915 28.9999 28.0981 28.4114 27.7915 27.883C25.1912 23.4038 21.8645 19.4102 17.9815 16.0544Z" fill="#F37036"/>
<path d="M18.1136 3.00134C16.5041 6.18026 14.5574 9.1601 12.3128 11.8767C14.3065 13.1262 16.2056 14.5194 17.982 16.0541C21.9234 12.6467 25.2927 8.58398 27.9097 4.02259C28.1696 3.56946 27.8366 3 27.3169 3L18.1136 3.00134Z" fill="#85B8C1"/>
<path d="M5 19.0067C6.18889 18.0712 7.3319 17.0815 8.427 16.0382C7.3319 14.9953 6.18889 14.0044 5 13.0701V19.0067Z" fill="#F76F6D"/>
<path d="M5 8.15723C7.5601 9.17738 10.0024 10.4294 12.3128 11.8762C11.1012 13.3425 9.80025 14.7289 8.42664 16.0378C7.33161 14.9949 6.18888 14.0044 5.00007 13.0702L5 8.15723Z" fill="#F39D90"/>
<path d="M12.3308 20.2201C11.1147 18.7469 9.80715 17.3541 8.42664 16.0378C7.33154 17.0812 6.18889 18.0713 5 19.0068V23.9512C7.56658 22.9278 10.0147 21.6722 12.3308 20.2201Z" fill="#FA8176"/>
</svg>
