<svg width="32" height="32" viewBox="0 0 32 32" fill="none" xmlns="http://www.w3.org/2000/svg">
<path d="M30 14.4979C30 8.15792 23.7199 3 15.9999 3C8.28094 3 2 8.15792 2 14.4979C2 20.1817 6.98063 24.9417 13.7084 25.8418C14.1644 25.9412 14.7849 26.146 14.9419 26.5404C15.0831 26.8986 15.0342 27.4598 14.987 27.8216C14.987 27.8216 14.8227 28.8214 14.7873 29.0343C14.7264 29.3926 14.5061 30.4353 15.9999 29.7981C17.4942 29.1609 24.0626 24.9935 26.9998 21.572C29.0287 19.3204 30 17.0353 30 14.4979Z" fill="#2CCF54"/>
<path d="M13.1555 11.4244H12.1735C12.0229 11.4244 11.9005 11.5478 11.9005 11.6995V17.866C11.9005 18.0179 12.0229 18.1411 12.1735 18.1411H13.1555C13.306 18.1411 13.4281 18.0179 13.4281 17.866V11.6995C13.4281 11.5478 13.306 11.4244 13.1555 11.4244Z" fill="white"/>
<path d="M19.9146 11.4244H18.9326C18.782 11.4244 18.6599 11.5478 18.6599 11.6995V15.3631L15.8644 11.5467C15.8127 11.4683 15.7289 11.4295 15.6374 11.4244H14.6556C14.5051 11.4244 14.3827 11.5478 14.3827 11.6995V17.866C14.3827 18.0179 14.5051 18.1411 14.6556 18.1411H15.6374C15.7882 18.1411 15.9103 18.0179 15.9103 17.866V14.2035L18.7093 18.0247C18.7595 18.0967 18.8449 18.1411 18.9326 18.1411H19.9146C20.0654 18.1411 20.1873 18.0179 20.1873 17.866V11.6995C20.1873 11.5478 20.0654 11.4244 19.9146 11.4244Z" fill="white"/>
<path d="M10.7883 16.5971H8.12001V11.7C8.12001 11.5478 7.9979 11.4244 7.8476 11.4244H6.86533C6.71477 11.4244 6.59265 11.5478 6.59265 11.7V17.8655C6.59265 18.0151 6.71423 18.1414 6.86506 18.1414H10.7883C10.9388 18.1414 11.0604 18.0176 11.0604 17.8655V16.8728C11.0604 16.7206 10.9388 16.5971 10.7883 16.5971Z" fill="white"/>
<path d="M25.3376 12.9686C25.4881 12.9686 25.6097 12.8454 25.6097 12.6929V11.7003C25.6097 11.5481 25.4881 11.4244 25.3376 11.4244H21.4146C21.264 11.4244 21.142 11.5504 21.142 11.7V17.8657C21.142 18.015 21.2636 18.1414 21.4141 18.1414H25.3376C25.4881 18.1414 25.6097 18.0176 25.6097 17.8657V16.8728C25.6097 16.7209 25.4881 16.5971 25.3376 16.5971H22.6696V15.5548H25.3376C25.4881 15.5548 25.6097 15.4314 25.6097 15.2792V14.2865C25.6097 14.1343 25.4881 14.0106 25.3376 14.0106H22.6696V12.9686H25.3376Z" fill="white"/>
</svg>
