<svg width="32" height="32" viewBox="0 0 32 32" fill="none" xmlns="http://www.w3.org/2000/svg">
<path opacity="0.26" d="M5.30599 19.4875L5.3014 13.9287V12.264H2.00049V3L15.9203 3.06783L20.2746 3.07743C25.4858 3.07743 29.9993 7.15209 29.9993 12.5335V28.9435H15.0307C9.82419 28.9435 5.30599 24.864 5.30599 19.4874V19.4875Z" fill="black"/>
<path d="M27.9997 24.6519V12.7212C27.9997 8.73529 24.6178 5.50416 20.4451 5.50416H16.114V5.49455L4.40076 5.44165V9.79473H6.19881C7.45394 9.79473 7.67563 10.6903 7.67563 11.9298L7.68493 19.6257C7.68493 23.6116 11.0669 26.8426 15.235 26.8426H25.5261C26.8453 26.8426 27.9998 25.979 27.9998 24.6518L27.9997 24.6519Z" fill="url(#paint0_linear_1205_307)"/>
<path opacity="0.175" d="M26.9783 25.66C24.3466 23.7855 22.4827 21.6322 20.9125 18.7817C17.8175 12.8723 18.5412 9.93866 10.8767 9.24695C8.66491 9.24695 7.19267 8.74097 4.8645 8.74097V9.57896C4.8645 9.57896 5.78453 10.0617 6.59321 10.0617C7.79913 10.0617 8.00836 10.9262 8.00836 12.1171L8.01601 19.4932C8.01601 23.323 11.2703 26.4268 15.275 26.4268H25.1578C25.8832 26.4268 26.5348 26.1314 26.9783 25.66V25.66Z" fill="url(#paint1_linear_1205_307)"/>
<path d="M17.8192 9.97637C16.88 9.97637 16.0456 10.3368 15.3752 11.0367C14.7051 11.7365 14.3533 12.6098 14.3533 13.5956V18.5783H16.5398V13.5955C16.5398 13.2177 16.659 12.9223 16.92 12.6497C17.1819 12.3764 17.4592 12.2526 17.8192 12.2526C18.1868 12.2526 18.4599 12.3758 18.7223 12.6497C18.9833 12.9222 19.1026 13.2177 19.1026 13.5955V18.5782H21.2891V13.5955C21.2891 13.2177 21.4083 12.9223 21.6694 12.6497C21.9319 12.3757 22.205 12.2526 22.5726 12.2526C22.9326 12.2526 23.2099 12.3764 23.4717 12.6497C23.7327 12.9222 23.852 13.2177 23.852 13.5955L23.8639 19.4174C23.8639 20.6594 22.7196 21.7061 21.2495 21.7061L14.1987 21.6775C13.0643 21.6775 12.0953 20.5361 12.0953 19.0695V8.10596H10.0277V19.4912C10.0277 20.6992 10.4553 21.7586 11.2873 22.6152C11.9984 23.3406 12.8536 23.7699 13.8145 23.8761V23.9171H21.6655C22.8718 23.9171 23.9317 23.4534 24.7869 22.5537H24.7908C25.518 21.7815 25.9431 20.8561 26.0464 19.8147L26.0385 13.5956C26.0385 12.6098 25.6866 11.7365 25.0165 11.0367C24.3461 10.3368 23.5116 9.97637 22.5726 9.97637C21.6507 9.97637 20.8441 10.3307 20.1919 10.9794C19.5416 10.3317 18.7406 9.97637 17.8192 9.97637V9.97637Z" fill="black" fill-opacity="0.08"/>
<path d="M17.6446 10.0359C16.7055 10.0359 15.871 10.3963 15.2005 11.0963C14.5304 11.796 14.1785 12.6694 14.1785 13.6551V18.6378H16.3651V13.6551C16.3651 13.2774 16.4843 12.982 16.7454 12.7094C17.0072 12.4361 17.2846 12.3123 17.6446 12.3123C18.0121 12.3123 18.2853 12.4355 18.5477 12.7094C18.8088 12.9819 18.928 13.2774 18.928 13.6551V18.6378H21.1145V13.6551C21.1145 13.2774 21.2338 12.982 21.4948 12.7094C21.7573 12.4354 22.0304 12.3123 22.398 12.3123C22.7581 12.3123 23.0353 12.4361 23.2971 12.7094C23.5582 12.9819 23.6774 13.2774 23.6774 13.6551L23.6894 19.4771C23.6894 20.7191 22.545 21.7658 21.0749 21.7658L14.024 21.7371C12.8896 21.7371 11.9207 20.5958 11.9207 19.1292V8.16553H9.85291V19.5508C9.85291 20.7588 10.2805 21.8181 11.1125 22.6747C11.8237 23.4002 12.6789 23.8704 13.6398 23.9767H21.4909C22.6972 23.9767 23.7573 23.513 24.6123 22.6133H24.6163C25.3436 21.841 25.7686 20.9157 25.872 19.8742L25.8641 13.6551C25.8641 12.6694 25.5122 11.7959 24.842 11.0963C24.1716 10.3963 23.3371 10.0359 22.398 10.0359C21.4762 10.0359 20.6696 10.3902 20.0173 11.039C19.367 10.3912 18.566 10.0359 17.6446 10.0359Z" fill="white"/>
<path d="M15.1667 28.4949C10.1963 28.4949 5.8832 24.6004 5.8832 19.4679L5.87883 13.2358V11.6466H2.72754V3.72852L20.1725 3.80233C25.1472 3.80233 29.4558 7.69216 29.4558 12.8293V28.4949H15.1667ZM27.4313 24.2926V12.8293C27.4313 8.99962 24.1819 5.89522 20.1726 5.89522L4.75691 5.83508V9.55399H6.01762C6.87355 9.55399 7.9035 10.3853 7.9035 11.6053L7.91246 19.4633C7.91246 23.2931 11.1619 26.3975 15.1666 26.3975H25.0544C26.322 26.3975 27.4313 25.5677 27.4313 24.2926Z" fill="white"/>
<defs>
<linearGradient id="paint0_linear_1205_307" x1="6.65305" y1="8.17241" x2="19.3469" y2="21.6396" gradientUnits="userSpaceOnUse">
<stop stop-color="#C7F994"/>
<stop offset="1" stop-color="#87CF3E"/>
</linearGradient>
<linearGradient id="paint1_linear_1205_307" x1="9.24547" y1="24.6119" x2="17.1541" y2="12.6143" gradientUnits="userSpaceOnUse">
<stop stop-color="#3D3D3D"/>
<stop offset="1" stop-opacity="0.114"/>
</linearGradient>
</defs>
</svg>
