<svg width="32" height="32" viewBox="0 0 32 32" fill="none" xmlns="http://www.w3.org/2000/svg">
<path d="M16 16C19.866 16 23 12.866 23 9C23 5.13401 19.866 2 16 2C12.134 2 9 5.13401 9 9C9 12.866 12.134 16 16 16Z" fill="url(#paint0_linear_1205_338)"/>
<path fill-rule="evenodd" clip-rule="evenodd" d="M15.4427 29.8295C11.174 26.9188 7.62385 22.952 5.09252 18.2646C4.99467 18.0767 4.97339 17.8541 5.03367 17.649C5.09395 17.4438 5.23049 17.2741 5.41127 17.1798L10.361 14.5833C10.7073 14.4028 11.1251 14.5397 11.3173 14.8966C13.8198 19.38 17.5202 22.9604 21.9423 25.1769C20.3114 26.9334 18.5053 28.4936 16.5565 29.8295C16.2157 30.057 15.7835 30.057 15.4427 29.8295Z" fill="url(#paint1_linear_1205_338)"/>
<path fill-rule="evenodd" clip-rule="evenodd" d="M16.5564 29.8295C20.8257 26.9195 24.376 22.9526 26.9066 18.2646C27.0047 18.0772 27.0266 17.855 26.967 17.6499C26.9074 17.4448 26.7717 17.2749 26.5915 17.1798L21.6381 14.5833C21.2919 14.4028 20.874 14.5397 20.6819 14.8966C18.1799 19.3805 14.4793 22.961 10.0569 25.1769C11.6868 26.9346 13.4929 28.4949 15.4426 29.8295C15.7834 30.057 16.2157 30.057 16.5564 29.8295Z" fill="#2684FF"/>
<defs>
<linearGradient id="paint0_linear_1205_338" x1="16" y1="4.32679" x2="16" y2="18.6996" gradientUnits="userSpaceOnUse">
<stop stop-color="#2684FF"/>
<stop offset="0.82" stop-color="#0052CC"/>
</linearGradient>
<linearGradient id="paint1_linear_1205_338" x1="11.9768" y1="18.2646" x2="15.8277" y2="28.5628" gradientUnits="userSpaceOnUse">
<stop stop-color="#2684FF"/>
<stop offset="0.62" stop-color="#0052CC"/>
</linearGradient>
</defs>
</svg>
