<svg width="32" height="32" viewBox="0 0 32 32" fill="none" xmlns="http://www.w3.org/2000/svg">
<path d="M2 15.9979C2 23.7286 8.26889 29.998 16.0005 29.998C23.7321 29.998 30 23.7286 30 15.9979C30 8.26503 23.7321 1.99805 16.0005 1.99805C8.26889 1.99805 2 8.26503 2 15.9979Z" fill="url(#paint0_linear_1205_322)"/>
<path fill-rule="evenodd" clip-rule="evenodd" d="M19.6458 25.1251C20.0129 24.7716 22.1671 22.6972 23.4061 21.3308C24.587 20.025 25.1809 18.3449 25.0742 16.6026C24.9646 14.8083 24.1272 13.1466 22.7146 11.9264C20.3816 9.90921 16.6108 9.95021 14.3091 12.0159C13.4694 12.7683 12.5211 13.8004 12.4806 13.8446C11.8753 14.5028 11.9201 15.5275 12.577 16.1325C13.2351 16.7364 14.2569 16.6935 14.8637 16.036C14.8718 16.0263 15.7466 15.0744 16.4683 14.4281C17.6801 13.3403 19.6182 13.5288 20.5994 14.3772C21.3469 15.0223 21.7885 15.8824 21.8445 16.7987C21.8973 17.6635 21.5998 18.5014 21.0087 19.1542C19.8409 20.4447 17.6913 22.5133 17.3942 22.7991C17.3733 22.8193 17.3616 22.8305 17.36 22.8321C16.7145 23.4505 16.691 24.4737 17.309 25.1212C17.6267 25.4532 18.0511 25.6213 18.4788 25.6213C18.88 25.6213 19.2825 25.472 19.5952 25.1739C19.602 25.1673 19.6192 25.1507 19.6458 25.1251ZM9.48285 19.9576C10.631 20.9505 12.1266 21.4461 13.6243 21.4461C15.171 21.4461 16.7196 20.9182 17.8882 19.8684C18.6581 19.1769 19.5214 18.2512 19.6891 18.0713C19.7042 18.0552 19.7136 18.0451 19.7168 18.0417C20.3218 17.3835 20.2779 16.358 19.6204 15.7538C18.9636 15.148 17.9394 15.1902 17.335 15.849C17.3347 15.8494 17.3332 15.851 17.3305 15.8539C17.2615 15.9284 16.4239 16.8336 15.7296 17.458C14.5172 18.5438 12.5798 18.358 11.5974 17.5078C10.8507 16.8621 10.4091 16.0018 10.3526 15.0847C10.2999 14.2209 10.5978 13.3849 11.189 12.7295C12.4398 11.3491 14.8133 9.07629 14.8376 9.05317C15.4835 8.43542 15.5055 7.41083 14.8888 6.76406C14.2705 6.11816 13.2475 6.09345 12.6019 6.71204L12.5913 6.72222C12.3918 6.91369 10.0892 9.12252 8.79254 10.5551C7.6098 11.8602 7.01834 13.5402 7.12291 15.2818C7.23335 17.077 8.07076 18.7375 9.48285 19.9576Z" fill="white"/>
<defs>
<linearGradient id="paint0_linear_1205_322" x1="2" y1="29.998" x2="2" y2="1.99805" gradientUnits="userSpaceOnUse">
<stop stop-color="#2255FF"/>
<stop offset="1" stop-color="#00AAFF"/>
</linearGradient>
</defs>
</svg>
