<svg width="32" height="32" viewBox="0 0 32 32" fill="none" xmlns="http://www.w3.org/2000/svg">
<circle cx="16" cy="16" r="14" fill="#1A1919"/>
<path d="M25.7525 15.4383L26 14.5895L25.1337 14.6144C25.0594 14.6144 24.5396 14.5895 24.0198 14.215H24.1436C24.6634 14.215 25.1832 13.8904 25.3812 13.4411L25.7525 12.6172C25.2822 12.6172 24.8614 12.5673 24.8614 12.5673C24.8614 12.5673 24.5149 12.5173 24.1436 12.1179C23.8713 11.8433 23.5248 11.6935 23.1535 11.6935C22.9802 11.6935 22.8564 11.7184 22.7327 11.7684C22.7574 11.6935 22.7822 11.6436 22.7822 11.5687C22.9059 10.7947 22.4109 10.1956 22.4109 10.1956L21.7673 9.39667L21.3713 10.3454C21.3713 10.3454 21.2723 10.57 21.099 10.6699C21.0495 10.3953 20.901 10.0707 20.6287 9.77115C20.0842 9.19695 19.4406 9.12205 19.0941 9.12205C18.9455 9.12205 18.8218 9.14702 18.797 9.14702L18.0049 9.29681C18.0545 9.12205 18.1535 8.82247 18.3267 8.54785L18.7475 7.87379L17.6337 7.99861L17.2871 7.24965L16.6188 7.59917L16 7L15.4059 7.62413L14.7376 7.27462L14.3911 8.02358L13.302 7.89875L13.7228 8.57282C13.896 8.84743 13.995 9.14702 14.0446 9.32178L13.302 9.17198H13.2772C13.2277 9.17198 13.1287 9.14702 12.9554 9.14702C12.6089 9.14702 11.9653 9.22191 11.4208 9.79612C11.1238 10.0957 11 10.4202 10.9505 10.6949C10.7772 10.595 10.6782 10.3703 10.6782 10.3703L10.2822 9.42164L9.61386 10.2455C9.5396 10.3454 9.14356 10.8946 9.24257 11.5936C9.24257 11.6685 9.26733 11.7184 9.29208 11.7933C9.16832 11.7434 9.0198 11.7184 8.87129 11.7184C8.5 11.7184 8.15347 11.8682 7.88119 12.1429C7.48515 12.5423 7.16337 12.5922 7.16337 12.5922C7.16337 12.5922 6.81683 12.6671 6.27228 12.6422L6.64356 13.466C6.84158 13.9154 7.36139 14.2399 7.88119 14.2399H8.00495C7.48515 14.6144 6.96535 14.6394 6.89109 14.6394L6 14.5895L6.27228 15.4383C6.39604 15.8627 6.84158 16.5867 7.70792 16.6616C7.60891 17.061 7.41089 17.4854 6.96535 17.6852L6.32178 17.9598L6.66832 18.5839C6.86634 18.9085 7.33663 19.3079 8.00495 19.3079C8.15347 19.3079 8.30198 19.2829 8.42574 19.258C8.45049 19.4078 8.5 19.5576 8.5495 19.7074C8.74752 20.3065 8.57426 20.7309 8.57426 20.7309L8.25248 21.405L8.9703 21.6047C8.9703 21.6047 9.19307 21.6796 9.46535 21.6796C9.58911 21.6796 9.71287 21.6546 9.81188 21.6297C9.88614 21.6047 9.98515 21.5798 10.0594 21.5548C10.1584 21.7295 10.2574 21.8793 10.4059 22.0042C10.8762 22.4785 11.5198 22.7282 12.3366 22.7282H12.9307L11.7178 23.2275L12.6337 23.6768C12.9802 23.8516 13.3762 24.0264 13.7723 24.1761L13.6485 24.5007L13.9703 24.6505C13.995 24.6755 14.6139 24.9501 15.6287 25H16.3713C17.3861 24.9501 18.0049 24.6755 18.0297 24.6505L18.3515 24.5007L18.2277 24.1761C18.6485 24.0264 19.0693 23.8266 19.3911 23.6519L20.3069 23.2025L19.0941 22.7032H19.6881C20.5049 22.7032 21.1733 22.4535 21.6188 21.9792C21.7426 21.8544 21.8663 21.6796 21.9653 21.5298C22.0396 21.5548 22.1139 21.5798 22.2129 21.6047C22.3119 21.6297 22.4356 21.6546 22.5594 21.6546C22.8317 21.6546 23.0545 21.6047 23.0545 21.6047L23.7723 21.405L23.4505 20.7309C23.4505 20.706 23.2772 20.3065 23.4752 19.7074C23.5248 19.5576 23.5743 19.4078 23.599 19.258C23.7228 19.2829 23.8713 19.3079 24.0198 19.3079C24.8861 19.3079 25.2822 18.7087 25.3564 18.5589L25.703 17.9348L25.0594 17.6602C24.6139 17.4605 24.3911 17.0361 24.3168 16.6366C25.1584 16.5867 25.6287 15.8627 25.7525 15.4383V15.4383ZM16 9.57143C15.3069 9.57143 14.7871 9.79612 14.6881 10.0707L16 10.595L17.3119 10.0707C17.2129 9.79612 16.6931 9.57143 16 9.57143ZM16.0248 23.4771H16C15.5792 23.4771 15.0099 23.4022 14.7376 23.3024L14.3911 24.2261C14.6139 24.301 15.3564 24.4508 16 24.4508C16.6436 24.4508 17.4109 24.301 17.6089 24.2261L17.2871 23.3024C17.0149 23.4022 16.4455 23.4771 16.0248 23.4771Z" fill="white"/>
<path fill-rule="evenodd" clip-rule="evenodd" d="M17.5594 9.39675C17.2624 9.1471 16.6931 8.92241 16 8.92241C15.3069 8.92241 14.7624 9.1471 14.4406 9.39675C14.4406 9.39675 14.3663 8.84751 14.0446 8.34821L14.6139 8.4231L14.9109 7.79897L15.4307 8.09855L15.9752 7.54932L16.5198 8.09855L17.0891 7.79897L17.3861 8.4231L17.9554 8.34821C17.6584 8.84751 17.5594 9.39675 17.5594 9.39675ZM14.7376 8.67276L14.5891 8.64779L14.4653 8.59786C14.5396 8.74765 14.5891 8.89744 14.6139 9.02227C14.9851 8.79758 15.505 8.67276 16.0248 8.67276C16.5693 8.67276 17.0644 8.79758 17.4604 9.02227C17.4851 8.89744 17.5347 8.74765 17.6089 8.59786L17.3119 8.64779L17.2376 8.498L17.0396 8.07359L16.6683 8.27331L16.5198 8.34821L16.396 8.24835L16.0248 7.8489L15.6287 8.24835L15.5297 8.37317L15.3812 8.29828L15.0099 8.09855L14.8119 8.52296L14.7376 8.67276Z" fill="black"/>
<path d="M20.0594 12.3427C21.3713 13.0667 22.5594 14.265 22.7574 15.8877C23.0545 17.5105 23.7475 17.9099 23.7475 17.9099C23.203 17.6353 22.8564 16.9113 22.7822 16.6617C22.6832 18.0847 21.9901 19.0583 21.198 20.007C20.7772 20.5063 20.6287 20.9807 20.6287 20.9807C20.6287 20.9807 20.703 20.4564 21.0743 20.007C21.8168 19.1083 22.5347 17.9599 22.5842 16.6617C22.6089 15.7379 22.3861 14.989 22.0149 14.3898C22.2129 15.0389 22.1881 15.8128 21.495 16.5368C21.495 16.5368 22.8812 14.8642 20.9505 13.1665C20.402 12.7025 19.8155 12.3661 19.3719 12.1116C19.195 12.0101 19.0408 11.9217 18.9208 11.8434C20.4802 12.3676 21.2475 11.7934 21.2475 11.7934C20.7525 12.2428 20.1089 12.2428 19.7129 12.1679C19.8366 12.2178 19.9356 12.2678 20.0594 12.3427Z" fill="black"/>
<path fill-rule="evenodd" clip-rule="evenodd" d="M24.1683 16.2872C25.0594 16.2872 25.3812 15.3635 25.3812 15.3135L25.4802 14.989H25.1337C25.0099 14.989 24.0198 14.964 23.3267 14.0653L23.2772 13.9904L23.2536 13.9603C22.7927 13.3729 22.3729 12.8378 21.5941 12.5923C21.6188 12.5673 21.6436 12.5424 21.6931 12.5174C22.1139 12.2428 22.3366 11.9182 22.4109 11.5188C22.5099 10.9446 22.1386 10.4703 22.1139 10.4453L21.8663 10.1207L21.7178 10.4952C21.7178 10.5202 21.4455 11.1194 20.901 11.1194H20.7525C20.7772 10.8447 20.7277 10.4453 20.3564 10.0708C19.9109 9.59647 19.3663 9.54654 19.0941 9.54654C18.9886 9.54654 18.9081 9.55913 18.8614 9.56643C18.8424 9.56941 18.829 9.57151 18.8218 9.57151L18.4505 9.6464L18.6733 9.94599C18.8465 10.1956 19.0198 10.6201 18.8218 10.8697C18.7717 10.9202 18.6991 10.9594 18.6192 11.0025C18.5806 11.0233 18.5403 11.045 18.5 11.0694L18.4608 11.0891C18.2175 11.2105 17.9059 11.366 17.9059 11.7685C17.9059 12.0431 18.104 12.3177 18.5 12.5673C19.6139 13.2664 20.3069 14.0153 20.604 14.8392C21.0743 16.0875 20.4554 16.8115 19.8861 17.1859L19.6139 17.3607L19.8366 17.5854C19.8614 17.6103 20.1584 17.86 20.5545 17.9099H20.7772C21.0495 17.9099 21.2723 17.86 21.4455 17.8101C21.4114 17.879 21.3654 17.9361 21.3158 17.9976C21.2935 18.0252 21.2705 18.0538 21.2475 18.0847C20.901 18.4841 20.505 18.6589 19.9109 18.6589H19.6881L19.6634 18.8836L19.6633 18.892C19.662 18.968 19.6558 19.3481 20.0347 19.6825C20.0842 19.7324 20.1584 19.7823 20.2327 19.8073C19.9604 20.0569 19.7129 20.4564 19.6634 21.1804C19.6139 21.7796 19.4901 22.0042 19.4653 22.0042L19.2178 22.3787H19.6634C20.3812 22.3787 20.9505 22.179 21.3218 21.7796C21.5446 21.5549 21.6683 21.2802 21.7673 21.0306C21.8911 21.1305 22.0644 21.2303 22.2624 21.2802C22.3366 21.3052 22.4356 21.3052 22.5347 21.3052C22.681 21.3052 22.8137 21.278 22.8831 21.2637C22.9076 21.2587 22.9242 21.2553 22.9307 21.2553L23.203 21.1804L23.0792 20.9058C23.0792 20.9029 23.0759 20.8934 23.0705 20.8776C23.0286 20.7567 22.8603 20.27 23.0792 19.6076C23.1782 19.283 23.2525 18.9834 23.2772 18.7587C23.4505 18.8586 23.698 18.9335 23.995 18.9335C24.6239 18.9335 24.9267 18.5019 24.9959 18.4033C25.003 18.3932 25.0076 18.3866 25.0099 18.3843L25.1584 18.1346L24.9109 18.0348C24.0941 17.6852 23.896 16.7615 23.8713 16.2622C23.9455 16.2872 24.0198 16.2872 24.1188 16.2872H24.1683ZM24.8366 18.2594C24.8366 18.2594 24.5891 18.6839 24.0446 18.6839C23.3762 18.6839 23.104 18.2594 23.104 18.2594C23.104 18.2594 23.1535 18.7837 22.9059 19.5077C22.6089 20.3815 22.9059 21.0056 22.9059 21.0056C22.9059 21.0056 22.7574 21.0556 22.5594 21.0556C22.4851 21.0556 22.4109 21.0556 22.3614 21.0306C21.7921 20.9058 21.6683 20.3815 21.6683 20.3815C21.6683 20.3815 21.7178 22.1041 19.7129 22.1041H19.6881C19.6881 22.1041 19.8614 21.8544 19.9109 21.1554C20.0099 19.8822 20.8762 19.7074 20.8762 19.7074C20.8762 19.7074 20.4059 19.6575 20.2079 19.4578C19.8861 19.1832 19.9109 18.8336 19.9109 18.8336C20.604 18.8336 21.0743 18.584 21.4208 18.1845C21.7921 17.7352 21.8663 17.2608 21.8663 17.2608C21.8663 17.2608 21.495 17.6103 20.7525 17.6103H20.5545C20.2079 17.5854 19.9604 17.3607 19.9604 17.3607C20.7277 16.8614 21.2475 16.0126 20.7772 14.7144C20.4059 13.6658 19.4901 12.8919 18.5743 12.3177C18.302 12.1429 18.1287 11.9182 18.1287 11.7435C18.1287 11.4863 18.356 11.3758 18.5902 11.2619C18.7424 11.1879 18.8975 11.1125 18.9951 10.9945C19.2921 10.645 19.0941 10.0958 18.8465 9.77123C18.8465 9.77123 18.9208 9.74627 19.0693 9.74627C19.3416 9.74627 19.7871 9.82116 20.1584 10.1956C20.6535 10.7199 20.4554 11.2941 20.4554 11.2941L20.5792 11.3191C20.6535 11.344 20.7277 11.344 20.8267 11.344H20.8762C21.5941 11.344 21.9158 10.5701 21.9158 10.5701C21.9158 10.5701 22.6832 11.5188 21.5446 12.2678C21.3465 12.3926 21.2723 12.5174 21.297 12.6422L21.3218 12.7171L21.396 12.7421C22.1679 12.9544 22.5862 13.4789 23.0685 14.0837L23.1535 14.1901C23.9208 15.1887 25.0099 15.2137 25.1584 15.2137H25.1832C25.1832 15.2137 24.9356 16.0126 24.1931 16.0126H24.1683C23.8218 16.0126 23.6485 15.8628 23.6485 15.8628C23.6485 15.8628 23.5 17.7102 24.8366 18.2594Z" fill="black"/>
<path fill-rule="evenodd" clip-rule="evenodd" d="M23.2622 13.2893C23.1012 13.0788 22.9289 12.8536 22.6089 12.6922L22.2624 12.4925L22.5594 12.2927C22.5648 12.2927 22.5807 12.2845 22.6055 12.2716C22.6952 12.2251 22.9016 12.118 23.1535 12.118C23.4257 12.118 23.6733 12.2428 23.8713 12.4425C24.3663 12.9418 24.8119 12.9918 24.8366 12.9918L25.1832 13.0167L25.0347 13.3413C24.8861 13.6658 24.5149 13.8905 24.1436 13.8905C24.0615 13.8905 23.9965 13.8734 23.9203 13.8533L23.9025 13.8486L23.8713 13.8406C23.6531 13.7525 23.5118 13.5869 23.3627 13.4121C23.3427 13.3886 23.3225 13.3649 23.302 13.3413L23.2622 13.2893ZM23.7228 12.5673C23.5495 12.3676 23.3515 12.3177 23.1782 12.3177C22.9649 12.3177 22.7971 12.4096 22.7464 12.4375C22.7324 12.4451 22.7273 12.4479 22.7327 12.4425C23.1043 12.6433 23.3193 12.9159 23.4999 13.1447C23.6562 13.3427 23.7866 13.5081 23.9703 13.566C24.0198 13.5909 24.0941 13.5909 24.1683 13.5909C24.4653 13.5909 24.7376 13.4162 24.8366 13.1915C24.8366 13.1915 24.2921 13.1665 23.7228 12.5673Z" fill="black"/>
<path d="M9.44057 16.6614C9.39106 15.7377 9.63859 15.0137 10.0099 14.3896C9.81185 15.0137 9.83661 15.8126 10.5297 16.5366C10.5297 16.5366 9.16829 14.8889 11.0742 13.1663C11.6228 12.7023 12.2093 12.3658 12.6529 12.1114C12.8298 12.0099 12.984 11.9214 13.1039 11.8431C11.5445 12.3674 10.7772 11.7932 10.7772 11.7932C11.2723 12.2176 11.9158 12.2176 12.3119 12.1677C12.2805 12.1835 12.2467 12.1993 12.2111 12.2159C12.1345 12.2517 12.0499 12.2913 11.9653 12.3424C10.6534 13.0664 9.46532 14.2648 9.2673 15.8875V15.8626C8.97027 17.4853 8.2772 17.8847 8.2772 17.8847C8.82176 17.6101 9.16829 16.9111 9.24255 16.6365C9.34156 18.0595 10.0099 19.0332 10.8267 19.9818C11.2475 20.4811 11.396 20.9555 11.396 20.9555C11.396 20.9555 11.3218 20.4062 10.9505 19.9818C10.2079 19.108 9.49007 17.9846 9.44057 16.6614Z" fill="black"/>
<path fill-rule="evenodd" clip-rule="evenodd" d="M12.3614 21.1552C12.3861 21.7544 12.5346 21.9791 12.5346 21.9791L12.7574 22.3785H12.3119C11.594 22.3785 11.0495 22.1788 10.6534 21.7793C10.4059 21.5297 10.2822 21.2551 10.2079 21.0304C10.0841 21.1302 9.93562 21.2301 9.71284 21.28C9.61383 21.305 9.53958 21.305 9.44057 21.305C9.29427 21.305 9.16148 21.2777 9.09212 21.2635C9.06759 21.2585 9.05099 21.2551 9.04453 21.2551L8.77225 21.1802L8.89601 20.9056C8.92077 20.9056 9.14354 20.3563 8.89601 19.6074C8.77225 19.2828 8.72275 18.9832 8.69799 18.7585C8.52473 18.8584 8.2772 18.9333 7.98017 18.9333C7.2871 18.9333 6.99007 18.409 6.99007 18.409L6.84156 18.1594L7.08908 18.0595C7.90591 17.71 8.07918 16.7863 8.12869 16.287C8.09422 16.287 8.05976 16.2923 8.02282 16.2981C7.98017 16.3048 7.93422 16.3119 7.88116 16.3119H7.83166C6.94057 16.3119 6.61879 15.3882 6.61879 15.3383L6.51978 15.0137H6.86631C6.99007 15.0137 7.98017 14.9888 8.64849 14.0401L8.72275 13.9652C8.75675 13.9237 8.7905 13.8821 8.82416 13.8407C9.25584 13.3096 9.67111 12.7987 10.4059 12.5671C10.3812 12.5422 10.3564 12.5172 10.3069 12.4922C9.88611 12.2176 9.63859 11.8931 9.58908 11.4936C9.49007 10.8945 9.86136 10.4451 9.88611 10.4201L10.1336 10.0956L10.2822 10.47C10.2822 10.495 10.5544 11.0942 11.099 11.0942H11.2475C11.2227 10.8445 11.2723 10.4201 11.6435 10.0456C12.0891 9.59626 12.6336 9.52136 12.9059 9.52136C13.0792 9.52136 13.1782 9.54633 13.1782 9.54633L13.5495 9.62122L13.3267 9.92081C13.1534 10.1705 12.9802 10.6198 13.1782 10.8445C13.2524 10.9194 13.3762 10.9943 13.5 11.0442L13.5392 11.0639C13.7825 11.1853 14.094 11.3409 14.094 11.7433C14.094 12.0179 13.8713 12.2925 13.5 12.5422C12.3861 13.2412 11.693 13.9902 11.396 14.814C10.9257 16.0623 11.5198 16.7863 12.1138 17.1608L12.3861 17.3355L12.1633 17.5602C12.1386 17.6101 11.8663 17.8598 11.4455 17.8847H11.2227C10.9752 17.8847 10.7277 17.8348 10.5544 17.7849C10.5886 17.8538 10.6346 17.9109 10.6842 17.9725C10.7065 18.0001 10.7295 18.0286 10.7524 18.0595C11.0742 18.434 11.495 18.6337 12.0891 18.6337H12.3119L12.3366 18.8584L12.3367 18.8626C12.3378 18.9139 12.3471 19.3204 11.9653 19.6573C11.9158 19.7072 11.8416 19.7571 11.7673 19.7821C12.0396 20.0318 12.3119 20.4312 12.3614 21.1552ZM10.3564 20.3813C10.3564 20.3813 10.3069 22.1039 12.3119 22.1039C12.3179 22.1039 12.3122 22.0906 12.2994 22.0607C12.2596 21.9679 12.1513 21.7152 12.1138 21.2051C12.0148 19.9319 11.1485 19.7571 11.1485 19.7571C11.1485 19.7571 11.6188 19.6823 11.8168 19.5075C12.1386 19.2079 12.1138 18.8834 12.1138 18.8834C11.4208 18.8834 10.9505 18.6337 10.6039 18.2343C10.2326 17.7849 10.1584 17.3105 10.1584 17.3105C10.1584 17.3105 10.5297 17.6601 11.2723 17.6601H11.4703C11.8168 17.6351 12.0643 17.4104 12.0643 17.4104C11.297 16.9111 10.7772 16.0623 11.2475 14.7641C11.6188 13.7155 12.5346 12.9416 13.4505 12.3674C13.7475 12.1677 13.9208 11.943 13.9208 11.7682C13.9208 11.4943 13.6909 11.3874 13.4553 11.2778C13.3043 11.2076 13.1511 11.1363 13.0544 11.0193C12.7822 10.6698 12.9554 10.1205 13.2029 9.79598C13.2029 9.79598 13.1039 9.77102 12.9802 9.77102C12.7326 9.77102 12.2623 9.82095 11.8911 10.2204C11.396 10.7447 11.594 11.3189 11.594 11.3189L11.4703 11.3438C11.396 11.3688 11.297 11.3688 11.2227 11.3688H11.1732C10.4554 11.3688 10.1336 10.5949 10.1336 10.5949C10.1336 10.5949 9.36631 11.5436 10.5049 12.2925C10.6782 12.4173 10.7772 12.5422 10.7524 12.667L10.7277 12.7419L10.6534 12.7669C9.88071 12.9732 9.54963 13.3908 9.02142 14.0572C8.98025 14.1091 8.93852 14.1618 8.89601 14.2148C8.12869 15.2135 7.01482 15.2384 6.89106 15.2384H6.86631C6.86631 15.2384 7.11383 16.0373 7.85641 16.0373H7.88116C8.2277 16.0123 8.40096 15.8875 8.40096 15.8875C8.40096 15.8875 8.52473 17.71 7.18809 18.2592C7.18809 18.2592 7.43562 18.6836 7.98017 18.6836C8.64849 18.6587 8.92077 18.2592 8.92077 18.2592C8.92077 18.2592 8.87126 18.7835 9.11879 19.5075C9.41581 20.3813 9.11879 21.0054 9.11879 21.0054C9.11879 21.0054 9.29205 21.0553 9.46532 21.0553C9.51482 21.0553 9.58908 21.0553 9.66334 21.0304C10.2079 20.9056 10.3564 20.3813 10.3564 20.3813Z" fill="black"/>
<path fill-rule="evenodd" clip-rule="evenodd" d="M7.85641 13.8653C7.95542 13.8653 8.05443 13.8404 8.12869 13.8154C8.37621 13.7405 8.54948 13.5408 8.69799 13.3161C8.87126 13.0914 9.06928 12.8667 9.39106 12.667L9.7376 12.4922L9.41582 12.2675C9.39106 12.2426 9.14354 12.0928 8.82176 12.0928C8.54948 12.0928 8.30195 12.1927 8.10393 12.4173C7.60888 12.9416 7.16334 12.9666 7.13859 12.9666L6.81681 12.9915L6.96532 13.3161C7.11383 13.6157 7.48512 13.8653 7.85641 13.8653ZM8.30195 12.5921C8.47522 12.3924 8.67324 12.3424 8.84651 12.3424C9.09403 12.3424 9.29205 12.4922 9.29205 12.4922C8.91489 12.696 8.69899 12.9664 8.51672 13.1946C8.36404 13.3858 8.23495 13.5474 8.05443 13.6157C7.98017 13.6406 7.93067 13.6406 7.85641 13.6406C7.55938 13.6406 7.2871 13.4409 7.18809 13.2412C7.18809 13.2363 7.2092 13.2304 7.24744 13.2197C7.40346 13.1763 7.84472 13.0533 8.30195 12.5921Z" fill="black"/>
<path d="M15.3564 11.4187C15.5049 11.5435 15.6039 11.5685 15.6039 11.5685L15.6534 11.5934V11.2938L15.1095 11.0694C15.1133 11.0912 15.1419 11.2455 15.3564 11.4187Z" fill="black"/>
<path d="M14.9356 19.0582C14.9109 19.0582 14.8614 19.0832 14.8614 19.1082C14.8614 19.1331 14.8861 19.1831 14.9109 19.1831C14.9356 19.1831 14.9851 19.1581 14.9851 19.1331C15.0099 19.0832 14.9851 19.0582 14.9356 19.0582Z" fill="black"/>
<path d="M15.5544 13.341V13.6655C15.6782 13.5407 15.8762 13.5657 15.8762 13.5657V14.04C15.8762 14.04 15.8762 14.2647 15.7772 14.3646H16.2227C16.1485 14.2647 16.1237 14.04 16.1237 14.04V13.5657C16.1237 13.5657 16.3465 13.5407 16.4455 13.6655V13.341H15.5544Z" fill="black"/>
<path d="M16.6683 11.4187C16.9158 11.2189 16.9158 11.0442 16.9158 11.0442L16.3713 11.2689V11.5685L16.4208 11.5435C16.4208 11.5435 16.5198 11.5185 16.6683 11.4187Z" fill="black"/>
<path fill-rule="evenodd" clip-rule="evenodd" d="M17.6586 10.1703C17.6586 9.69595 16.8913 9.29651 16.0249 9.29651C15.1586 9.29651 14.3913 9.72092 14.3913 10.1703L14.416 10.2951L14.7626 12.2923L14.416 12.4921L13.5002 12.9914C13.5002 12.9914 13.3022 13.0912 13.2032 13.1661C12.8566 13.4158 12.7824 13.7403 12.9804 13.8901C13.0299 13.6155 13.2527 13.3159 13.6735 13.3159C13.9705 13.3159 14.1933 13.4657 14.3913 13.7154C14.4408 13.7653 14.4903 13.8402 14.515 13.9151L14.6636 14.1398H12.3616C12.5348 14.4893 12.6834 14.8388 12.6834 15.2383V20.3562C12.6834 21.6044 13.6239 22.1786 14.6636 22.1786L14.7883 22.1785C15.4676 22.1772 15.5792 22.177 16.0002 22.5781C16.402 22.1728 16.522 22.1736 17.1225 22.1777C17.1879 22.1781 17.2591 22.1786 17.3368 22.1786C18.3517 22.1786 19.317 21.5795 19.317 20.3562V15.2133C19.317 14.8138 19.4655 14.4643 19.6388 14.1148H17.3368L17.4853 13.8901C17.5001 13.8678 17.5149 13.8477 17.529 13.8284C17.5622 13.7832 17.5917 13.743 17.6091 13.6904C17.7824 13.4657 18.0299 13.291 18.3269 13.291C18.7477 13.291 18.9705 13.5905 19.02 13.8652C19.218 13.7154 19.1438 13.3659 18.7972 13.1412C18.6982 13.0663 18.5002 12.9664 18.5002 12.9664L17.2873 12.2674L17.6338 10.2702L17.6586 10.1703ZM14.7131 10.395L15.9259 10.8194V12.7417L15.0348 12.2424L14.7131 10.395ZM14.9606 14.4394C15.1586 14.6391 15.3566 14.7639 15.5299 14.8388C15.5051 14.9387 15.4804 15.1384 15.5546 15.3381C15.6289 15.4879 15.7527 15.6127 15.9507 15.7126C15.9754 15.9123 16.0992 16.2119 16.4457 16.3367L16.0992 16.6862L14.7131 16.6613C14.7056 16.6537 14.6958 16.6462 14.6852 16.6379C14.6606 16.6189 14.6313 16.5962 14.614 16.5614V16.5365L14.8368 16.5614H14.8616C14.9111 16.5614 14.9358 16.5365 14.9606 16.4865C14.9606 16.4366 14.9358 16.3867 14.8863 16.3867L14.614 16.3367L14.9111 15.2632L14.614 14.6391L14.1438 15.1384L14.119 16.2618L13.7972 16.2119C13.7477 16.2119 13.6982 16.2369 13.6982 16.2868C13.6982 16.3367 13.723 16.3867 13.7725 16.3867L13.8962 16.4116C13.8467 16.4366 13.822 16.4616 13.822 16.4616L13.7725 16.4865V16.5115C13.6982 16.836 13.8715 17.1107 14.0447 17.2604V17.3104C14.0447 17.3603 14.0447 17.4102 14.0695 17.4352C14.0942 17.4851 14.1438 17.5101 14.1933 17.5101H14.218C14.2923 17.5101 14.3665 17.4602 14.3913 17.3603H14.5893L16.3962 17.6849L16.421 17.6599C16.5695 17.56 17.114 17.1606 17.2873 17.0108C17.3236 17.0473 17.3598 17.0705 17.4057 17.0999C17.4225 17.1106 17.4407 17.1223 17.4606 17.1356C17.4111 17.3353 17.3863 17.6349 17.6338 17.8846H13.0299V15.2133C13.0299 14.9636 12.9556 14.689 12.8566 14.4394H14.9606ZM16.7799 17.2105C16.6192 17.329 16.458 17.4478 16.3715 17.5101L14.7131 17.2105V17.1606C14.7378 17.0857 14.7626 16.9609 14.7626 16.8111L16.1487 16.836L16.1735 16.8111C16.1771 16.8074 16.1901 16.7948 16.2103 16.7753C16.3259 16.6637 16.6769 16.3245 16.8665 16.112C16.8989 16.161 16.9418 16.1993 16.9883 16.2408C17.0131 16.2628 17.0388 16.2858 17.0645 16.3118C17.0645 16.4865 17.0645 16.7112 17.1883 16.9109C17.1018 16.9733 16.9406 17.0921 16.7799 17.2105ZM14.4408 16.6114C14.4903 16.6862 14.5398 16.7362 14.5893 16.7861C14.5893 16.861 14.5893 16.9859 14.5645 17.0857C14.5645 17.1107 14.5645 17.1356 14.5398 17.1606V17.1856C14.4655 17.1856 14.317 17.1856 14.218 17.1356C14.0942 17.0857 13.8962 16.836 13.9457 16.5864C13.9952 16.5614 14.1438 16.4865 14.2428 16.4865C14.3418 16.4865 14.3913 16.5115 14.4408 16.6114ZM14.2675 16.2868L14.2923 15.2133L14.5398 14.9636L14.6883 15.2882L14.3913 16.3118L14.2675 16.2868ZM16.9408 21.8291L17.1388 21.2299C17.1564 21.1766 17.0861 21.0979 17.0174 21.0209C16.9896 20.9899 16.9621 20.9591 16.9408 20.9304C16.9755 20.9479 17.0285 20.9777 17.088 21.0111C17.1982 21.0731 17.3307 21.1476 17.4111 21.18C17.3863 21.205 17.1883 21.8291 17.1883 21.8291H16.9408ZM17.8071 21.1301L17.6834 21.8041C17.6462 21.8041 17.6029 21.8104 17.5596 21.8166C17.5163 21.8229 17.473 21.8291 17.4358 21.8291L17.5596 21.18C17.584 21.0815 17.47 21.0195 17.3185 20.937C17.1627 20.8522 16.9673 20.7457 16.8418 20.5559C16.718 20.7057 16.4952 20.7306 16.2477 20.7306C16.0249 20.7306 15.8269 20.7057 15.7032 20.6807H15.6041C15.5299 20.6807 15.4556 20.7057 15.4061 20.7806L15.3566 20.8555L14.6636 20.6557L14.4903 20.9553C14.4655 21.0052 14.4655 21.0302 14.515 21.0801L14.5645 21.1301C14.5398 21.2299 14.3913 21.3797 14.3913 21.3797L14.2923 21.2549C14.218 21.155 14.218 20.9803 14.317 20.8305L14.5893 20.3562L15.1834 20.431L15.0843 20.2313C15.0044 20.0539 15.0588 19.8451 15.1073 19.659C15.1338 19.5571 15.1586 19.462 15.1586 19.3825C15.1586 19.4324 15.0843 19.4574 15.0348 19.4574H14.8121L14.6636 19.5573L14.5398 19.4324C14.515 19.4075 14.515 19.3575 14.5645 19.3326L14.8616 19.008L14.515 18.6086L15.0101 18.8582L15.1586 18.6835C15.2081 18.7334 15.1834 18.8333 15.1834 18.8333C15.3319 18.8333 15.7527 19.0829 15.7774 19.6322V19.7071C15.8022 19.757 15.9012 19.8568 16.0002 19.8568L16.6685 19.9317C16.6979 19.9317 16.7389 19.92 16.7884 19.9058C16.8642 19.8842 16.9598 19.8568 17.0645 19.8568C17.1636 19.8568 17.2873 19.8818 17.4111 19.9567C17.4111 19.9567 17.4606 19.9068 17.5596 19.9068H17.5843C17.8256 19.9068 17.9526 20.088 18.0846 20.2764C18.1151 20.32 18.1459 20.3639 18.1784 20.4061C18.3022 20.5808 18.4507 20.8305 18.4507 20.8305C18.4012 20.9054 18.3269 20.9304 18.2527 20.9304H18.1784C17.9906 20.9012 17.8955 20.6594 17.8145 20.4532C17.7567 20.3061 17.706 20.1772 17.6338 20.1564H17.6091C17.5596 20.1564 17.5348 20.2064 17.5348 20.2064C17.5674 20.3049 17.5762 20.3794 17.5841 20.4467C17.5942 20.533 17.603 20.6075 17.6586 20.7057C17.7024 20.7793 17.7634 20.8442 17.8162 20.9004C17.853 20.9396 17.8858 20.9745 17.9061 21.0052C17.8319 20.9553 17.8071 21.0552 17.8071 21.1301ZM14.1933 20.5059L14.218 20.5808C14.1933 20.6557 13.9705 20.7556 13.9705 20.7556L13.921 20.6308C13.8715 20.5059 13.8715 20.3062 14.0447 20.1814L14.416 19.9567L14.8121 20.0316C14.8121 20.1564 14.8863 20.2563 14.8863 20.2563L14.4655 20.1814L14.218 20.3562C14.1933 20.3811 14.1933 20.456 14.1933 20.5059ZM17.8566 21.7792L17.9804 21.18C17.9804 21.1675 17.9866 21.1488 17.9928 21.1301C17.9989 21.1114 18.0051 21.0926 18.0051 21.0801C18.0299 21.1051 18.0794 21.1051 18.1041 21.1051H18.2279C18.4012 21.1051 18.5002 21.0052 18.5744 20.9304L18.6735 20.8305L18.5992 20.7057C18.5992 20.7057 18.4259 20.431 18.3022 20.2563C18.2898 20.2438 18.2774 20.2251 18.265 20.2064C18.2527 20.1876 18.2403 20.1689 18.2279 20.1564L18.1943 20.1107C18.0526 19.9174 17.8803 19.6821 17.5596 19.6821H17.5348C17.5101 19.6821 17.4853 19.6883 17.4606 19.6946C17.4358 19.7008 17.4111 19.7071 17.3863 19.7071C17.2873 19.6571 17.1636 19.6322 17.0398 19.6322C16.9086 19.6322 16.7967 19.6711 16.7212 19.6974L16.6933 19.7071C16.6685 19.732 16.6438 19.732 16.619 19.732L15.9754 19.6571C15.9754 19.6571 15.9507 19.6322 15.9012 19.6072L16.0497 19.5573C16.0002 19.0829 15.5546 18.7833 15.3071 18.6835C15.3071 18.6335 15.2824 18.5836 15.2329 18.5586L15.0843 18.4338L14.9606 18.5836L14.9111 18.6335L13.9952 18.2591L14.5893 19.008L14.3665 19.3575C14.2923 19.4574 14.3665 19.5323 14.3665 19.5323L14.614 19.7071L14.8616 19.6072H14.8863C14.8863 19.6571 14.8616 19.8069 14.8368 19.8319L14.416 19.7819L13.9457 20.0316C13.6982 20.2064 13.6735 20.5059 13.7725 20.6807L13.8962 20.9304L14.0447 20.8555C13.9952 21.0302 14.02 21.2299 14.119 21.3298L14.218 21.4546L14.3418 21.6294L14.4903 21.4796C14.5398 21.4297 14.6636 21.2799 14.7131 21.155L14.7378 21.0552L14.6636 20.9803V20.9553L14.7378 20.8305L15.3071 20.9553L15.4309 20.9803L15.5051 20.8555L15.5299 20.8055C15.5299 20.793 15.5299 20.7868 15.533 20.7837C15.5361 20.7806 15.5423 20.7806 15.5546 20.7806H15.6289C15.8517 20.8305 16.0497 20.8305 16.223 20.8305C16.3962 20.8305 16.4952 20.8305 16.619 20.7806C16.619 20.7806 16.916 21.1301 16.9408 21.155L16.7428 21.7292V21.7542C16.3962 21.7792 16.223 21.8541 16.0002 22.0788C15.7032 21.7792 15.4804 21.7542 14.6636 21.7542C13.6982 21.7542 13.0299 21.18 13.0299 20.2563V18.0094H18.9705V20.2563C18.9705 21.0801 18.5497 21.6044 17.8566 21.7792ZM19.1437 14.4394C19.0447 14.689 18.9705 14.9387 18.9705 15.2133V16.886C18.6239 16.836 18.5744 16.4366 18.5744 16.4366V16.3617H18.5002C18.3517 16.3367 18.2527 16.2868 18.1537 16.2119C17.9804 16.0371 17.9804 15.7625 17.9804 15.7625C17.9804 15.7664 17.9756 15.7758 17.9683 15.7899C17.9289 15.8665 17.8171 16.0838 18.0051 16.3367C18.1041 16.4616 18.2279 16.5365 18.4012 16.5614C18.4507 16.7611 18.5992 17.0607 18.9705 17.1107V17.9345H17.9309C17.5095 17.6885 17.6246 17.3021 17.6531 17.2064C17.6565 17.1953 17.6586 17.1882 17.6586 17.1856L17.7081 17.0857L17.6338 17.0108C17.1583 16.8281 17.2421 16.3946 17.2598 16.303C17.2615 16.2945 17.2626 16.2889 17.2626 16.2868L17.2873 16.2119L17.2131 16.1869C16.8138 15.9974 16.8379 15.5157 16.8414 15.4456L16.8418 15.438C16.718 15.5378 16.6685 15.7625 16.7428 15.9872C16.6933 16.0371 16.619 16.112 16.5695 16.1869C16.1487 16.0621 16.1487 15.6377 16.1487 15.6377V15.5628L16.0992 15.5378C15.9259 15.4629 15.8022 15.3881 15.7527 15.2383C15.6784 15.0885 15.7032 14.9387 15.7279 14.8638C15.7527 14.8638 15.7774 14.87 15.8022 14.8763C15.8269 14.8825 15.8517 14.8887 15.8764 14.8887H16.1735C16.4457 14.8638 16.7428 14.739 17.0645 14.4144H19.1437V14.4394ZM17.5348 12.7417L17.9309 12.9914L18.0299 13.0413C17.8071 13.1162 17.6338 13.2161 17.4853 13.3659L17.4606 13.3908C17.4358 13.4158 17.3863 13.4657 17.3616 13.5157C17.3616 13.5157 17.3616 13.5406 17.3368 13.5406C17.3121 13.5905 17.2873 13.6155 17.2378 13.6654C17.2378 13.6654 17.2378 13.6904 17.2131 13.6904C17.2007 13.7154 17.1821 13.7403 17.1636 13.7653C17.145 13.7903 17.1264 13.8152 17.114 13.8402C16.817 14.3395 16.3715 14.6391 15.9507 14.6391C15.5299 14.6391 15.0843 14.3395 14.7873 13.8402C14.7749 13.8152 14.7564 13.7903 14.7378 13.7653C14.7192 13.7403 14.7007 13.7154 14.6883 13.6904L14.6636 13.6654C14.6512 13.6405 14.6388 13.6218 14.6264 13.603C14.614 13.5843 14.6017 13.5656 14.5893 13.5406L14.5645 13.5157C14.5522 13.4907 14.5336 13.472 14.515 13.4532C14.4965 13.4345 14.4779 13.4158 14.4655 13.3908L14.4408 13.3659C14.2923 13.2161 14.119 13.0912 13.8962 13.0413L13.9952 12.9914L14.3913 12.7417L14.8121 12.4921L15.9259 13.1162L17.0398 12.4921L17.5348 12.7417ZM16.9903 12.2424L16.0992 12.7168V10.7944L17.3121 10.37L16.9903 12.2424ZM16.0002 10.5947L14.6883 10.0704C14.8121 9.79582 15.3071 9.57113 16.0002 9.57113C16.6933 9.57113 17.2131 9.79582 17.3121 10.0704L16.0002 10.5947Z" fill="black"/>
<path fill-rule="evenodd" clip-rule="evenodd" d="M18.9703 23.1525L18.6237 23.0028L18.7227 22.6532L18.8217 22.2538C18.8217 22.2538 18.2277 22.5783 17.3614 22.828C17.1138 22.9029 16.9406 22.9279 16.9406 22.9279V23.2274C16.9406 23.2274 16.495 23.3023 16.0247 23.3023C15.5544 23.3023 15.1089 23.2274 15.1089 23.2274V22.9528C15.1089 22.9528 14.9356 22.9279 14.6881 22.853C13.8217 22.6033 13.2277 22.2788 13.2277 22.2788L13.3267 22.6782L13.4257 23.0277L13.0792 23.1525L12.7079 23.3023C13.1534 23.527 13.7475 23.8266 14.292 23.9764L14.1683 24.3259C14.1683 24.3259 14.8614 24.6505 16.0495 24.6505C17.2128 24.6505 17.9307 24.3259 17.9307 24.3259L17.8069 23.9764C18.2585 23.8522 18.7611 23.6078 19.1596 23.414C19.2416 23.3742 19.3192 23.3364 19.3911 23.3023L18.9703 23.1525ZM13.0792 23.3023L13.6485 23.1026L13.4752 22.5534C13.7227 22.7032 14.2673 22.9029 14.5891 23.0028L14.3168 23.7517C13.8217 23.6518 13.4257 23.4771 13.0792 23.3023ZM16 24.4507C15.3564 24.4507 14.5891 24.3009 14.3911 24.2261L14.7128 23.3023C14.9851 23.3772 15.5544 23.4771 15.9752 23.4771H16C16.4208 23.4771 16.9901 23.4022 17.2623 23.3023L17.6336 24.2261C17.4109 24.3009 16.6683 24.4507 16 24.4507ZM17.7079 23.7767L17.4356 23.0277C17.7574 22.9279 18.3019 22.7032 18.5742 22.5783L18.3762 23.1276L18.9455 23.3273L18.907 23.344C18.5697 23.4899 18.1847 23.6564 17.7079 23.7767Z" fill="black"/>
<path d="M15.5246 14.8616C15.3526 14.7865 15.1564 14.6622 14.9603 14.4644H12.8811C12.9801 14.714 13.0544 14.9637 13.0544 15.2383V17.8846H17.6338C17.392 17.6407 17.4101 17.3491 17.4572 17.1496C17.3979 17.1226 17.3548 17.0792 17.3118 17.0358C17.1385 17.1606 16.5692 17.585 16.4455 17.6849L16.4207 17.7098L14.6138 17.3853H14.4158C14.391 17.4602 14.3167 17.5351 14.2425 17.5351H14.2177C14.1757 17.5351 14.1337 17.5171 14.1068 17.4811C14.0917 17.4693 14.0788 17.4541 14.0695 17.4352C14.0447 17.4102 14.0447 17.3603 14.0447 17.3104V17.269C13.9237 17.183 13.8161 17.0323 13.7806 16.8527C13.7516 16.7487 13.7445 16.6336 13.7725 16.5115V16.4865L13.822 16.4616C13.822 16.4616 13.8358 16.4476 13.8636 16.4301L13.7722 16.4117C13.7227 16.4117 13.6979 16.3617 13.6979 16.3118C13.6979 16.3079 13.6982 16.3041 13.6988 16.3005C13.6984 16.2959 13.6982 16.2914 13.6982 16.2868C13.6982 16.2369 13.7477 16.2119 13.7972 16.2119L14.119 16.2618L14.1438 15.1384L14.614 14.6391L14.9111 15.2632L14.9066 15.2794L14.9108 15.2882L14.6204 16.3379L14.8863 16.3867C14.9358 16.3867 14.9606 16.4366 14.9606 16.4865L14.9588 16.4901C14.9598 16.4972 14.9603 16.5043 14.9603 16.5115C14.9603 16.5614 14.9108 16.5864 14.8613 16.5864H14.8365L14.6141 16.5615C14.6313 16.5963 14.6606 16.6189 14.6852 16.6379C14.6958 16.6462 14.7056 16.6537 14.7131 16.6613L16.0992 16.6862L16.4276 16.355C16.0946 16.2265 15.9747 15.9338 15.9504 15.7376C15.7524 15.6627 15.6286 15.5379 15.5544 15.3631C15.4776 15.2083 15.4901 15.0535 15.5111 14.9452C15.5147 14.9138 15.5195 14.8857 15.5246 14.8616Z" fill="#FCE527"/>
<path d="M17.858 21.7723L17.9804 21.18C17.9804 21.1675 17.9866 21.1488 17.9928 21.1301C17.9982 21.1135 18.0037 21.097 18.0049 21.0847C18.0079 21.0856 18.011 21.0866 18.0142 21.0876C18.0288 21.0973 18.0482 21.1016 18.0662 21.1036C18.071 21.1046 18.0753 21.1051 18.0791 21.1051H18.2029L18.2074 21.1051H18.2279C18.4012 21.1051 18.5002 21.0052 18.5744 20.9304L18.6735 20.8305L18.5992 20.7057C18.5992 20.7057 18.4259 20.431 18.3022 20.2563C18.2898 20.2438 18.2774 20.2251 18.265 20.2064C18.2527 20.1876 18.2403 20.1689 18.2279 20.1564L18.1943 20.1107C18.0526 19.9174 17.8803 19.6821 17.5596 19.6821H17.5348L17.5322 19.6821H17.5098C17.4646 19.6821 17.4194 19.6821 17.3742 19.7011C17.2773 19.6551 17.1585 19.6322 17.0398 19.6322C17.0357 19.6322 17.0316 19.6322 17.0275 19.6323C17.0233 19.6322 17.0191 19.6322 17.0148 19.6322C16.8836 19.6322 16.7717 19.6712 16.6962 19.6974C16.6862 19.7009 16.6769 19.7042 16.6682 19.7071C16.654 19.7215 16.6479 19.7275 16.6406 19.7301C16.637 19.7314 16.633 19.7319 16.6274 19.732C16.6246 19.732 16.6218 19.732 16.619 19.732L15.9754 19.6571C15.9754 19.6571 15.9507 19.6322 15.9012 19.6072H16.0742C16.0623 19.4934 16.0276 19.3896 15.9783 19.2963C15.8355 18.9809 15.5231 18.7749 15.3235 18.6902C15.3191 18.68 15.3131 18.6703 15.3053 18.6603C15.2988 18.6186 15.2747 18.5797 15.2329 18.5586L15.0843 18.4338L14.9606 18.5836L14.9111 18.6335L13.9952 18.2591L14.0714 18.3551L14.0197 18.334L14.5737 19.0324L14.3665 19.3575C14.3198 19.4204 14.3319 19.4734 14.3473 19.504C14.3429 19.5587 14.391 19.6072 14.391 19.6072L14.6385 19.782L14.8785 19.6851C14.8693 19.7455 14.853 19.8155 14.8368 19.8319L14.416 19.7819L13.9457 20.0316C13.7577 20.1643 13.6982 20.3691 13.7239 20.5365C13.7263 20.6048 13.7426 20.6711 13.7722 20.7307L13.896 20.9803L14.0315 20.912C14.0226 20.9589 14.0189 21.0066 14.0203 21.0529C14.015 21.1752 14.0478 21.2903 14.1187 21.3798L14.2177 21.5046L14.3415 21.6793L14.49 21.5295C14.5395 21.4796 14.6633 21.3298 14.7128 21.205L14.7375 21.1051L14.7278 21.0954L14.7378 21.0552L14.674 20.9908L14.7375 20.9054L15.3068 21.0302L15.4306 21.0552L15.5049 20.9304L15.5296 20.8804C15.5296 20.8679 15.5296 20.8617 15.5327 20.8586C15.5358 20.8555 15.542 20.8555 15.5544 20.8555H15.6286C15.6537 20.8583 15.6784 20.8611 15.7029 20.8639C15.8957 20.8857 16.0689 20.9054 16.2227 20.9054C16.396 20.9054 16.495 20.9054 16.6187 20.8555C16.6187 20.8555 16.8586 21.116 16.9241 21.2033L16.7428 21.7292V21.7542C16.3962 21.7792 16.223 21.8541 16.0002 22.0788C15.7032 21.7792 15.4804 21.7542 14.6636 21.7542C13.6982 21.7542 13.0299 21.18 13.0299 20.2563V18.0843H18.9702L18.9455 20.3312C18.9455 21.0706 18.5354 21.591 17.858 21.7723Z" fill="#FCE527"/>
</svg>
