<svg width="32" height="32" viewBox="0 0 32 32" fill="none" xmlns="http://www.w3.org/2000/svg">
<path d="M2 16C2 8.26801 8.26801 2 16 2C23.732 2 30 8.26801 30 16C30 23.732 23.732 30 16 30C8.26801 30 2 23.732 2 16Z" fill="#59316B"/>
<path d="M17.0341 5.64229L16.4629 7.96739C17.272 6.32521 18.5572 5.0895 20.0329 4C18.9539 5.28452 17.9703 6.56916 17.3673 7.85369C18.3828 6.39022 19.7473 5.57729 21.2863 5.04069C19.2395 6.91062 17.6148 8.91715 16.3772 10.9334L15.3936 10.4944C15.5679 8.88465 16.1614 7.23589 17.0341 5.64229V5.64229Z" fill="#ABCD03"/>
<path d="M14.4071 10.0669L16.2794 10.8629C16.2794 11.3508 16.2407 12.8389 16.5384 13.2779C19.6523 17.3877 19.1284 25.6259 15.9076 25.8372C11.0031 25.8372 9.13257 22.4227 9.13257 19.2844C9.13257 16.4226 12.4803 14.5202 14.4796 12.8292C14.9873 12.3739 14.8991 11.3677 14.4071 10.0669V10.0669Z" fill="#FFFCDB"/>
<path d="M16.28 10.8342L16.9548 11.187C16.8914 11.6421 16.9865 12.6504 17.4306 12.9105C19.3982 14.1625 21.2545 15.5283 21.9844 16.8942C24.5865 21.7072 20.1597 26.1624 16.3359 25.7396C18.4144 24.1623 19.0174 20.9267 18.2399 17.3981C17.9226 16.016 17.4306 14.764 16.5579 13.3493C16.1799 12.6549 16.3119 11.7937 16.28 10.8342Z" fill="white"/>
<path d="M15.9552 10.7154L17.3514 10.9106C16.9389 12.3089 18.1607 13.2845 18.5573 13.5122C19.4458 14.0163 20.3026 14.5366 20.9849 15.1707C22.2702 16.3739 23 18.065 23 19.8537C23 21.626 22.2066 23.3333 20.8739 24.4715C19.6204 25.5447 17.891 25.9999 16.2091 25.9999C15.1619 25.9999 14.2258 25.9512 13.2104 25.6097C10.894 24.8129 9.16445 22.7805 9.02167 20.3413C8.89469 18.4389 9.30723 16.9917 10.7512 15.4796C11.4968 14.6828 13.0042 13.7723 14.0356 13.0405C14.5434 12.6828 15.0828 11.6746 14.0514 9.77225L14.2577 9.60962L15.7862 10.6588L14.4958 10.1137C14.6068 10.2763 14.9083 11.0081 14.9719 11.2194C15.1147 11.821 15.0512 12.4065 14.9242 12.6666C14.2738 13.8699 13.1631 14.195 12.354 14.878C10.9259 16.0812 9.37101 17.0405 9.54551 20.3413C9.62486 21.9673 10.8625 23.9511 12.7187 24.8779C13.766 25.3983 14.9719 25.6097 16.1936 25.6747C17.2883 25.7235 19.3827 25.0568 20.5251 24.0812C21.7468 23.0406 22.4291 21.4633 22.4291 19.8537C22.4291 18.2276 21.7944 16.6829 20.6044 15.5934C19.9221 14.9593 18.7957 14.195 18.0976 13.7885C17.3995 13.382 16.5268 12.2438 16.8123 11.1544L15.9552 10.7154Z" fill="black"/>
<path d="M15.5268 13.1221C15.3841 13.8701 15.2254 15.2196 14.5907 15.7237C14.3209 15.9188 14.0512 16.114 13.7656 16.309C12.6232 17.1059 11.4808 17.8537 10.9573 19.7724C10.8462 20.179 10.9415 20.618 11.0367 21.0245C11.3223 22.1952 12.1315 23.4635 12.7661 24.2115C12.7661 24.244 12.8931 24.3254 12.8931 24.3579C13.4167 24.9921 13.5754 25.1709 15.5587 25.6261L15.511 25.8538C14.321 25.5287 13.3374 25.236 12.7185 24.5042C12.7185 24.488 12.6074 24.3741 12.6074 24.3741C11.9411 23.5935 11.1318 22.2928 10.8304 21.0733C10.7193 20.5854 10.6242 20.2115 10.7511 19.7073C11.2905 17.7237 12.4647 16.9431 13.6547 16.1139C13.9244 15.9351 14.2417 15.7723 14.4955 15.561C14.9873 15.1871 15.257 14.0488 15.5268 13.1221V13.1221Z" fill="black"/>
<path d="M16.0342 16.2114C16.0501 17.057 15.9696 17.4812 16.1758 18.0829C16.3027 18.4405 16.7313 18.9284 16.8583 19.4C17.0328 20.0342 17.2229 20.7333 17.2069 21.1561C17.2069 21.644 17.1771 22.5541 16.9709 23.5298C16.8136 24.336 16.4512 25.0277 15.8418 25.4199C15.2175 25.2881 14.4846 25.0633 14.0519 24.6832C13.2111 23.9353 12.4663 22.6846 12.371 21.5951C12.2918 20.7009 13.0998 19.382 14.2262 18.7154C15.1782 18.1463 15.3996 17.4977 15.6058 16.457C15.3202 17.3675 15.0521 18.1309 14.1318 18.6186C12.799 19.3341 12.1152 20.535 12.1786 21.6732C12.2738 23.1366 12.8456 24.1282 13.9721 24.925C14.4481 25.2665 15.3373 25.6273 15.8926 25.7249V25.6505C16.3137 25.5697 16.859 24.8609 17.1306 23.9019C17.3687 23.0401 17.4625 21.9372 17.4465 21.2379C17.4306 20.8315 17.2556 19.9511 16.9382 19.1544C16.7637 18.7154 16.4956 18.2765 16.321 17.9675C16.1308 17.6583 16.1295 16.9919 16.0342 16.2114Z" fill="black"/>
<path d="M15.9398 19.3999C15.9556 19.969 16.1786 20.6982 16.2738 21.4462C16.3532 21.9991 16.3187 22.5545 16.3028 23.0424C16.2871 23.6071 16.1036 24.619 15.8526 25.111C15.616 24.9998 15.5235 24.873 15.3698 24.6682C15.1795 24.3918 15.0502 24.1153 14.9232 23.7902C14.8281 23.5462 14.7168 23.267 14.6691 22.9419C14.6057 22.4541 14.6234 21.691 15.1628 20.9105C15.5754 20.2925 15.6699 20.2456 15.8127 19.5301C15.6222 20.1642 15.4802 20.2289 15.0358 20.7654C14.544 21.3508 14.4622 22.213 14.4622 22.9121C14.4622 23.2049 14.5761 23.5297 14.6872 23.8386C14.8141 24.1638 14.923 24.4877 15.0975 24.7315C15.3598 25.1269 15.6956 25.3517 15.8599 25.3938C15.8609 25.394 15.8625 25.3935 15.8635 25.3938C15.867 25.3946 15.8711 25.3968 15.8744 25.3975V25.3789C16.1823 25.0271 16.3675 24.6777 16.4299 24.3259C16.5092 23.9032 16.5275 23.4795 16.5751 22.9754C16.6226 22.5526 16.5881 21.9831 16.4771 21.3979C16.3185 20.6661 16.0508 19.9201 15.9398 19.3999L15.9398 19.3999Z" fill="black"/>
<path d="M15.9868 12.4392C16.0028 13.2846 16.0662 14.8621 16.2883 15.4798C16.3518 15.6912 16.9388 16.618 17.3512 17.7399C17.6369 18.5205 17.7003 19.2359 17.748 19.4472C17.9384 20.3741 17.7003 21.9351 17.3829 23.4147C17.2244 24.2115 16.6848 25.2034 16.0661 25.5936L15.9392 25.8213C16.2883 25.805 17.145 24.9432 17.4465 23.87C17.9543 22.0489 18.1605 21.2033 17.9226 19.1871C17.8909 18.9918 17.8115 18.3253 17.51 17.6098C17.0658 16.5203 16.4311 15.4797 16.3519 15.2683C16.209 14.9269 16.0186 13.4473 15.9868 12.4392V12.4392Z" fill="black"/>
<path d="M16.2845 11.2827C16.2375 12.1516 16.2249 12.4716 16.3834 13.1057C16.5579 13.8049 17.4466 14.813 17.8115 15.9675C18.5096 18.1789 18.3351 21.0732 17.8273 23.3333C17.637 24.1299 16.7324 25.2846 15.8281 25.6584L16.4945 25.821C16.8594 25.8047 17.7955 24.9105 18.1605 23.8861C18.7474 22.2763 18.8586 20.3577 18.6205 18.3414C18.6046 18.1463 18.2872 16.4065 17.9859 15.6748C17.5574 14.5854 16.7958 13.6097 16.7165 13.3985C16.5739 13.0407 16.2604 12.2979 16.2845 11.2827Z" fill="black"/>
<rect x="15.7802" y="10.6711" width="0.492005" height="15.0036" fill="black"/>
</svg>
