<svg width="32" height="32" viewBox="0 0 32 32" fill="none" xmlns="http://www.w3.org/2000/svg">
<path d="M14.6882 6.11273C10.5834 4.40057 0 12.7319 0 19.757C0 23.8697 5.20067 28 13.7959 28C24.3257 28 29.3943 20.8337 27.6453 17.3212C26.5301 15.0815 23.7011 14.8853 23.5226 14.2852C23.4071 13.8969 24.8254 11.5669 23.2906 10.3137C20.6728 8.17625 16.2231 11.2492 15.7234 10.702C15.4114 10.3604 16.9013 7.03581 14.6882 6.11273Z" fill="#E31C34"/>
<path d="M22.5352 18.9446C22.8715 22.3828 18.8378 25.5822 13.5256 26.0905C8.21335 26.5988 3.63427 24.2237 3.29792 20.7854C2.96156 17.3472 6.9953 14.1479 12.3075 13.6396C17.6197 13.1312 22.1988 15.5064 22.5352 18.9446Z" fill="white"/>
<path fill-rule="evenodd" clip-rule="evenodd" d="M17.1354 19.1215C17.7856 21.4195 16.0964 23.8958 13.3623 24.6526C10.6282 25.4093 7.8847 24.1599 7.23446 21.8619C6.58421 19.5639 8.27348 17.0876 11.0075 16.3308C13.7416 15.5741 16.4851 16.8235 17.1354 19.1215ZM12.2722 20.6021C12.6337 21.3711 12.1878 22.3342 11.2763 22.7533C10.3648 23.1725 9.33279 22.8888 8.9713 22.1198C8.60982 21.3508 9.05571 20.3876 9.96724 19.9685C10.8788 19.5494 11.9107 19.8331 12.2722 20.6021ZM13.4677 20.2021C13.8229 20.0388 13.9966 19.6635 13.8558 19.3639C13.7149 19.0642 13.3128 18.9537 12.9576 19.117C12.6025 19.2803 12.4287 19.6556 12.5696 19.9553C12.7104 20.2549 13.1125 20.3654 13.4677 20.2021Z" fill="black"/>
<path d="M21.8381 4.47733C22.3249 4.35816 22.8351 4.29464 23.362 4.29464C26.8512 4.29464 29.6799 7.09218 29.6799 10.5431C29.6799 11.3053 29.5424 12.0332 29.2917 12.7055C29.0699 13.3 29.3775 13.9597 29.9786 14.1789C30.5797 14.3982 31.2467 14.0941 31.4684 13.4996C31.8126 12.5768 32 11.5803 32 10.5431C32 5.82488 28.1326 2 23.362 2C22.6458 2 21.9485 2.08644 21.2807 2.24989C20.6588 2.40212 20.2794 3.02416 20.4333 3.63925C20.5872 4.25433 21.2162 4.62956 21.8381 4.47733Z" fill="#FD9940"/>
<path d="M22.8632 8.48247C23.0221 8.44506 23.1889 8.42499 23.362 8.42499C24.5448 8.42499 25.5036 9.3733 25.5036 10.5431C25.5036 10.7985 25.4584 11.0408 25.3766 11.2645C25.1584 11.8602 25.4699 12.5181 26.0723 12.7339C26.6747 12.9496 27.3399 12.6416 27.558 12.0458C27.7303 11.5753 27.8237 11.0687 27.8237 10.5431C27.8237 8.10601 25.8261 6.13035 23.362 6.13035C23.0066 6.13035 22.6595 6.17166 22.3259 6.2502C21.7026 6.39693 21.3176 7.01559 21.466 7.63201C21.6143 8.24844 22.2399 8.6292 22.8632 8.48247Z" fill="#FD9940"/>
</svg>
