<svg width="32" height="32" viewBox="0 0 32 32" fill="none" xmlns="http://www.w3.org/2000/svg">
<path d="M16 2C8.27812 2 2 8.27813 2 16C2 23.7219 8.27812 30 16 30C23.7219 30 30 23.7219 30 16C30 8.27813 23.7219 2 16 2Z" fill="black"/>
<path d="M20.3992 14.6328C21.172 14.7517 21.707 15.1084 22.0043 15.5839C22.3015 16.0595 22.4799 16.8918 22.4799 17.9619C22.4799 20.102 21.8259 21.8854 20.5181 23.2527C19.2102 24.62 17.5457 25.3334 15.5244 25.3334C13.9453 25.3334 12.4825 24.7762 11.3036 23.7283C9.9324 22.4942 8.76339 19.9845 9.99579 18.2591C10.293 17.843 10.8281 17.6052 11.482 17.4268C11.3631 17.1296 11.2442 16.8918 11.1847 16.654C10.9694 16.0081 11.171 15.4788 11.6603 14.9895C12.0877 14.5621 12.6571 14.2517 13.2654 14.4544C13.4438 14.5139 13.6221 14.5733 13.8599 14.7517C13.3249 12.9682 12.7898 11.482 12.4926 10.4714C12.1954 9.4608 12.0765 8.80688 12.0765 8.39074C12.0765 7.45843 12.6278 6.66675 13.6221 6.66675C14.7516 6.66675 15.1421 8.28049 16.5938 12.0547C16.8282 12.6641 17.0106 13.1466 17.1295 13.5033C17.2484 13.2655 17.3673 12.8493 17.5457 12.3738C18.7941 8.80688 19.5536 7.20489 20.6016 7.086C21.0151 7.03909 21.4692 7.14233 21.7665 7.43957C22.0043 7.73681 22.246 8.15718 22.1826 8.62853C21.8828 10.8594 21.0722 12.8155 20.3992 14.6328ZM11.2442 19.8642C11.3631 19.9831 11.5414 20.2209 11.7198 20.5181C12.2548 21.291 12.7898 21.7071 13.2654 21.7071C13.9813 21.7071 13.8737 20.9968 13.6221 20.5776C13.1981 19.8708 12.6593 19.1986 12.0765 18.6158C11.5705 18.2363 11.137 18.2593 10.7092 18.7941C9.85785 19.8583 10.6072 21.5385 11.3631 22.4205C11.8981 23.0149 12.4926 23.55 13.2654 23.9067C14.0382 24.2633 14.8111 24.4417 15.7622 24.4417C17.4268 24.4417 18.7941 23.8472 19.9236 22.5988C21.0531 21.3504 21.5881 19.8048 21.5881 17.9024C21.5881 17.3079 21.5287 16.8918 21.4692 16.5351C21.2945 15.4868 19.8714 15.2465 19.0319 15.0489C18.0213 14.8111 16.9512 14.6922 15.8811 14.6922C15.3928 14.6922 15.0489 14.8825 15.0489 15.4056C15.0489 16.0001 15.3461 16.4162 16 16.654C16.654 16.8918 17.724 17.0701 19.1508 17.0701C19.6051 17.0701 20.2969 17.1641 20.1019 17.6052C19.9443 17.9619 18.7691 18.1887 18.1996 18.6158C17.3125 19.2072 16.4756 20.3615 16.4756 21.4693C16.4756 22.1469 17.091 23.3338 16.8323 23.4311C15.7977 23.8201 15.6433 21.5014 15.6433 20.9937C15.3713 21.2658 15.0391 21.2344 14.7516 21.1126C14.7516 21.6354 14.9099 22.0243 14.4544 22.4799C13.6973 23.237 12.5527 22.6529 11.8981 22.0638C11.3631 21.5287 11.0326 21.0286 11.0326 20.4936C11.0326 20.268 11.0788 20.0296 11.2442 19.8642ZM15.5244 19.9831C16.1849 19.3226 14.8412 17.2936 14.4544 16.7135C14.035 15.9796 13.2026 14.9928 12.3737 15.8217C11.8879 16.3075 12.1361 16.8725 12.3737 17.4268C12.6115 17.843 12.8493 18.2591 13.206 18.7347C13.5754 19.2273 14.7491 20.7585 15.5244 19.9831ZM16.3567 13.9788L14.93 9.99584C14.5733 8.98522 14.3355 8.27184 14.0977 7.9746C13.6984 7.30912 12.8493 7.42307 12.8493 8.27184C12.8493 8.68798 13.0276 9.34191 13.3249 10.2931C13.6221 11.2442 14.0977 12.5626 14.5938 14.1485C14.8286 13.6788 15.9531 13.9116 16.3567 13.9788ZM17.7835 17.843C17.1286 17.843 16.3726 17.7304 15.7622 17.4863C15.9844 18.0417 16.2384 18.5595 16.3567 19.1508C16.7513 18.6247 17.2623 18.2338 17.7835 17.843ZM19.5075 14.395C20.1019 12.8493 20.5181 11.5415 20.8748 10.5309C21.172 9.52025 21.3504 8.92577 21.3504 8.68798C21.3504 7.70784 20.4495 7.79739 20.0425 8.50964C19.8047 8.92577 19.5075 9.52025 19.2102 10.412L17.9024 14.0977L19.5075 14.395Z" fill="white"/>
</svg>
