<svg width="32" height="32" viewBox="0 0 32 32" fill="none" xmlns="http://www.w3.org/2000/svg">
<path d="M28.9905 10.7265C28.3816 9.2574 27.1473 7.67139 26.1784 7.17039C26.967 8.72015 27.4232 10.2746 27.5976 11.4344C27.5976 11.4344 27.5976 11.4426 27.6005 11.4578C26.0156 7.49777 23.3277 5.90065 21.1327 2.42407C21.0213 2.24869 20.9105 2.07331 20.802 1.88566C20.7407 1.77985 20.6911 1.68397 20.648 1.59336C20.557 1.41757 20.4867 1.23179 20.4386 1.03975C20.439 1.03063 20.4359 1.02169 20.4301 1.01467C20.4243 1.00765 20.4161 1.00305 20.4071 1.00175C20.3985 0.999416 20.3894 0.999416 20.3808 1.00175C20.3785 1.00281 20.3763 1.00419 20.3744 1.00584C20.3709 1.00584 20.3674 1.00994 20.3639 1.0111L20.3697 1.0035C16.8483 3.07063 15.6536 6.89446 15.544 8.80784C14.1368 8.90428 12.7913 9.42358 11.683 10.298C11.5672 10.1998 11.4461 10.1081 11.3202 10.0232C11.0008 8.9027 10.9873 7.71683 11.2811 6.58931C9.84091 7.24697 8.72095 8.28463 7.90664 9.20303H7.90023C7.34433 8.49742 7.38341 6.17015 7.41491 5.68435C7.40849 5.65395 7.00076 5.89656 6.94826 5.93339C6.45773 6.2841 5.9992 6.67771 5.57805 7.1096C5.0988 7.59655 4.66096 8.12276 4.26909 8.68274C3.36752 9.96323 2.72814 11.4101 2.3879 12.9398C2.38149 12.9702 2.37565 13.0017 2.36924 13.0327C2.34299 13.1561 2.24791 13.7751 2.23099 13.9096V13.9406C2.10704 14.5803 2.02984 15.2282 2 15.8791V15.951C2 23.7097 8.27646 30 16.0182 30C22.9521 30 28.7088 24.9549 29.8364 18.328C29.8597 18.1485 29.8789 17.9673 29.8999 17.786C30.1788 15.3763 29.869 12.8439 28.9905 10.7265ZM12.8327 21.7239C12.8981 21.7549 12.9599 21.7894 13.027 21.8198L13.0363 21.8256C12.9692 21.7929 12.901 21.759 12.8333 21.7239H12.8327ZM27.6017 11.4642V11.4508V11.466V11.4642Z" fill="url(#paint0_linear_1205_239)"/>
<path d="M28.9905 10.7265C28.3815 9.25741 27.1472 7.67141 26.1783 7.17041C26.967 8.72017 27.4231 10.2746 27.5975 11.4344V11.4631C28.9205 15.0572 28.1995 18.7121 27.1612 20.9452C25.5548 24.4002 21.6658 27.9416 15.5778 27.7692C9.00557 27.5821 3.2115 22.6885 2.12945 16.2842C1.93229 15.2735 2.12945 14.7608 2.22862 13.9406C2.10787 14.5725 2.06179 14.7555 2.00171 15.8791V15.951C2.00171 23.7098 8.27817 30 16.0199 30C22.9538 30 28.7105 24.9549 29.8381 18.328C29.8614 18.1485 29.8806 17.9673 29.9016 17.7861C30.1787 15.3764 29.869 12.8439 28.9905 10.7265V10.7265Z" fill="url(#paint1_radial_1205_239)"/>
<path d="M28.9905 10.7265C28.3815 9.25741 27.1472 7.67141 26.1783 7.17041C26.967 8.72017 27.4231 10.2746 27.5975 11.4344V11.4631C28.9205 15.0572 28.1995 18.7121 27.1612 20.9452C25.5548 24.4002 21.6658 27.9416 15.5778 27.7692C9.00557 27.5821 3.2115 22.6885 2.12945 16.2842C1.93229 15.2735 2.12945 14.7608 2.22862 13.9406C2.10787 14.5725 2.06179 14.7555 2.00171 15.8791V15.951C2.00171 23.7098 8.27817 30 16.0199 30C22.9538 30 28.7105 24.9549 29.8381 18.328C29.8614 18.1485 29.8806 17.9673 29.9016 17.7861C30.1787 15.3764 29.869 12.8439 28.9905 10.7265V10.7265Z" fill="url(#paint2_radial_1205_239)"/>
<path d="M22.1781 12.3775C22.209 12.3992 22.2364 12.4208 22.2656 12.4424C21.9138 11.8164 21.4754 11.2432 20.9636 10.7401C16.6063 6.37316 19.8215 1.27082 20.3634 1.01126L20.3692 1.00366C16.8477 3.07079 15.6531 6.89462 15.5435 8.808C15.7068 8.79689 15.8695 8.78286 16.0358 8.78286C18.6636 8.78286 20.9525 10.2315 22.1781 12.3775Z" fill="url(#paint3_radial_1205_239)"/>
<path d="M16.0445 13.2496C16.0218 13.6004 14.7898 14.8047 14.3587 14.8047C10.3724 14.8047 9.72546 17.2214 9.72546 17.2214C9.90046 19.2569 11.3156 20.933 13.0276 21.8198C13.1058 21.8601 13.1845 21.8964 13.2609 21.9326C13.398 21.9911 13.5357 22.0495 13.6728 22.1016C14.2599 22.3091 14.8747 22.4273 15.4968 22.4523C22.4837 22.7809 23.8382 14.0798 18.7954 11.5532C20.0863 11.3281 21.4268 11.849 22.1751 12.3757C20.9502 10.2296 18.6607 8.78101 16.0328 8.78101C15.8666 8.78101 15.7039 8.79504 15.5405 8.80614C14.1344 8.90378 12.7901 9.42366 11.6831 10.298C11.8971 10.4798 12.1386 10.7219 12.6467 11.2234C13.5998 12.1658 16.0393 13.1356 16.0445 13.2496V13.2496Z" fill="url(#paint4_radial_1205_239)"/>
<path d="M16.0445 13.2496C16.0218 13.6004 14.7898 14.8047 14.3587 14.8047C10.3724 14.8047 9.72546 17.2214 9.72546 17.2214C9.90046 19.2569 11.3156 20.933 13.0276 21.8198C13.1058 21.8601 13.1845 21.8964 13.2609 21.9326C13.398 21.9911 13.5357 22.0495 13.6728 22.1016C14.2599 22.3091 14.8747 22.4273 15.4968 22.4523C22.4837 22.7809 23.8382 14.0798 18.7954 11.5532C20.0863 11.3281 21.4268 11.849 22.1751 12.3757C20.9502 10.2296 18.6607 8.78101 16.0328 8.78101C15.8666 8.78101 15.7039 8.79504 15.5405 8.80614C14.1344 8.90378 12.7901 9.42366 11.6831 10.298C11.8971 10.4798 12.1386 10.7219 12.6467 11.2234C13.5998 12.1658 16.0393 13.1356 16.0445 13.2496V13.2496Z" fill="url(#paint5_radial_1205_239)"/>
<path d="M11.0314 9.83093C11.1452 9.90459 11.2385 9.96656 11.3231 10.0233C11.0037 8.90275 10.9902 7.71688 11.284 6.58936C9.84382 7.24702 8.72385 8.28468 7.90955 9.20308C7.97546 9.20132 10.0089 9.16449 11.0314 9.83093V9.83093Z" fill="url(#paint6_radial_1205_239)"/>
<path d="M2.12982 16.2843C3.21187 22.6885 9.00594 27.5822 15.5828 27.7692C21.6709 27.9417 25.5575 24.4002 27.1663 20.9453C28.2046 18.7115 28.9255 15.0572 27.6026 11.4631V11.4362C27.6026 11.4398 27.6026 11.4444 27.6055 11.4596C28.1025 14.7141 26.4511 17.8668 23.8694 19.9988C23.8667 20.0048 23.8642 20.0108 23.8618 20.0169C18.8307 24.1225 14.0166 22.4939 13.0419 21.8292C12.9742 21.7964 12.906 21.7625 12.8383 21.7274C9.90482 20.3244 8.69328 17.6441 8.95285 15.3472C6.47668 15.3472 5.63204 13.2532 5.63204 13.2532C5.63204 13.2532 7.85564 11.6642 10.7862 13.0462C13.5004 14.3265 16.0495 13.2538 16.0495 13.2532C16.0442 13.1392 13.6048 12.1664 12.6534 11.227C12.1453 10.7254 11.9038 10.4834 11.6898 10.3016C11.5739 10.2034 11.4528 10.1117 11.3269 10.0268C11.2435 9.96833 11.1519 9.90987 11.0353 9.83446C10.0127 9.16802 7.9793 9.20485 7.91222 9.20661H7.9058C7.3499 8.501 7.38899 6.17373 7.42049 5.68793C7.41407 5.65753 7.00633 5.90014 6.95383 5.93697C6.46331 6.28768 6.00478 6.68129 5.58363 7.11317C5.10438 7.60013 4.66654 8.12634 4.27467 8.68632C3.3731 9.96681 2.73372 11.4137 2.39348 12.9433C2.3824 12.9702 1.88366 15.1525 2.12982 16.2843V16.2843Z" fill="url(#paint7_radial_1205_239)"/>
<path d="M20.9635 10.7399C21.4753 11.2431 21.9136 11.8162 22.2655 12.4423C22.3384 12.4971 22.4085 12.5557 22.4755 12.6176C25.6534 15.55 23.9909 19.7012 23.8643 19.9993C26.4461 17.8673 28.0974 14.7146 27.6005 11.4601C26.0156 7.49777 23.3277 5.90065 21.1327 2.42407C21.0213 2.24869 20.9104 2.07331 20.8019 1.88566C20.7407 1.77985 20.6911 1.68397 20.6479 1.59336C20.557 1.41757 20.4867 1.23179 20.4385 1.03975C20.4389 1.03063 20.4359 1.02169 20.4301 1.01467C20.4243 1.00765 20.416 1.00305 20.407 1.00175C20.3984 0.999416 20.3894 0.999416 20.3808 1.00175C20.3785 1.00281 20.3763 1.00419 20.3744 1.00584C20.3709 1.00584 20.3674 1.00994 20.3639 1.0111C19.8214 1.27066 16.6062 6.37301 20.9635 10.7399V10.7399Z" fill="url(#paint8_radial_1205_239)"/>
<path d="M22.4743 12.6149C22.4073 12.5529 22.3372 12.4943 22.2643 12.4395C22.2357 12.4178 22.206 12.3962 22.1768 12.3746C21.4284 11.8485 20.088 11.327 18.7971 11.5521C23.8393 14.0787 22.4854 22.7798 15.4985 22.4512C14.8764 22.4263 14.2616 22.308 13.6744 22.1005C13.5374 22.049 13.3997 21.9923 13.2626 21.9315C13.1833 21.8953 13.1045 21.859 13.0293 21.8187L13.0386 21.8246C14.0133 22.491 18.8274 24.1197 23.8585 20.0123C23.8585 20.0123 23.8614 20.0047 23.8661 19.9942C23.9909 19.7013 25.6534 15.5501 22.4743 12.6149Z" fill="url(#paint9_radial_1205_239)"/>
<path d="M9.72532 17.2213C9.72532 17.2213 10.3722 14.8045 14.3586 14.8045C14.7897 14.8045 16.0216 13.5991 16.0444 13.2495C16.0671 12.8999 13.4953 14.3228 10.7811 13.0426C7.85055 11.6606 5.62695 13.2495 5.62695 13.2495C5.62695 13.2495 6.47159 15.3435 8.94776 15.3435C8.68819 17.6404 9.89973 20.3184 12.8332 21.7238C12.8986 21.7548 12.9604 21.7893 13.0275 21.8197C11.3154 20.9346 9.90207 19.2568 9.72532 17.2213Z" fill="url(#paint10_radial_1205_239)"/>
<path d="M28.9905 10.7265C28.3816 9.2574 27.1473 7.67139 26.1784 7.17039C26.967 8.72015 27.4232 10.2746 27.5976 11.4344C27.5976 11.4344 27.5976 11.4426 27.6005 11.4578C26.0156 7.49777 23.3277 5.90065 21.1327 2.42407C21.0213 2.24869 20.9105 2.07331 20.802 1.88566C20.7407 1.77985 20.6911 1.68397 20.648 1.59336C20.557 1.41757 20.4867 1.23179 20.4386 1.03975C20.439 1.03063 20.4359 1.02169 20.4301 1.01467C20.4243 1.00765 20.4161 1.00305 20.4071 1.00175C20.3985 0.999416 20.3894 0.999416 20.3808 1.00175C20.3785 1.00281 20.3763 1.00419 20.3744 1.00584C20.3709 1.00584 20.3674 1.00994 20.3639 1.0111L20.3697 1.0035C16.8483 3.07063 15.6536 6.89446 15.544 8.80784C15.7073 8.79673 15.8701 8.78271 16.0363 8.78271C18.6641 8.78271 20.9531 10.2313 22.1786 12.3774C21.4302 11.8512 20.0897 11.3298 18.7989 11.5549C23.841 14.0815 22.4872 22.7826 15.5002 22.454C14.8782 22.429 14.2633 22.3108 13.6762 22.1033C13.5391 22.0518 13.4015 21.9951 13.2644 21.9343C13.1851 21.8981 13.1063 21.8618 13.0311 21.8215L13.0404 21.8273C12.9727 21.7946 12.9045 21.7607 12.8368 21.7256C12.9021 21.7566 12.964 21.7911 13.0311 21.8215C11.3155 20.9347 9.90216 19.2569 9.72542 17.2213C9.72542 17.2213 10.3723 14.8046 14.3587 14.8046C14.7898 14.8046 16.0217 13.5992 16.0445 13.2496C16.0392 13.1356 13.5998 12.1628 12.6484 11.2234C12.1403 10.7218 11.8988 10.4798 11.6848 10.298C11.5689 10.1998 11.4478 10.1081 11.3219 10.0232C11.0026 8.9027 10.9891 7.71683 11.2829 6.58931C9.84266 7.24697 8.7227 8.28463 7.90839 9.20303H7.90198C7.34608 8.49742 7.38516 6.17015 7.41666 5.68435C7.41024 5.65395 7.00251 5.89656 6.95001 5.93339C6.45948 6.2841 6.00095 6.67771 5.5798 7.1096C5.10055 7.59655 4.66271 8.12276 4.27084 8.68274C3.36927 9.96323 2.72989 11.4101 2.38965 12.9398C2.38324 12.9702 2.3774 13.0017 2.37099 13.0327C2.34474 13.1561 2.22574 13.7839 2.20941 13.9184C2.20941 13.9289 2.20941 13.9084 2.20941 13.9184C2.10019 14.5671 2.03026 15.2219 2 15.8791V15.951C2 23.7097 8.27646 30 16.0182 30C22.9521 30 28.7088 24.9549 29.8364 18.328C29.8597 18.1485 29.8789 17.9673 29.8999 17.786C30.1788 15.3763 29.869 12.8439 28.9905 10.7265ZM27.5999 11.4479V11.4631V11.4479Z" fill="url(#paint11_linear_1205_239)"/>
<defs>
<linearGradient id="paint0_linear_1205_239" x1="27.135" y1="5.49261" x2="3.81392" y2="27.9437" gradientUnits="userSpaceOnUse">
<stop offset="0.05" stop-color="#FFF44F"/>
<stop offset="0.11" stop-color="#FFE847"/>
<stop offset="0.22" stop-color="#FFC830"/>
<stop offset="0.37" stop-color="#FF980E"/>
<stop offset="0.4" stop-color="#FF8B16"/>
<stop offset="0.46" stop-color="#FF672A"/>
<stop offset="0.53" stop-color="#FF3647"/>
<stop offset="0.7" stop-color="#E31587"/>
</linearGradient>
<radialGradient id="paint1_radial_1205_239" cx="0" cy="0" r="1" gradientUnits="userSpaceOnUse" gradientTransform="translate(26.0593 4.21879) scale(29.2246 29.2888)">
<stop offset="0.13" stop-color="#FFBD4F"/>
<stop offset="0.19" stop-color="#FFAC31"/>
<stop offset="0.25" stop-color="#FF9D17"/>
<stop offset="0.28" stop-color="#FF980E"/>
<stop offset="0.4" stop-color="#FF563B"/>
<stop offset="0.47" stop-color="#FF3750"/>
<stop offset="0.71" stop-color="#F5156C"/>
<stop offset="0.78" stop-color="#EB0878"/>
<stop offset="0.86" stop-color="#E50080"/>
</radialGradient>
<radialGradient id="paint2_radial_1205_239" cx="0" cy="0" r="1" gradientUnits="userSpaceOnUse" gradientTransform="translate(15.3806 16.1925) scale(29.2246 29.2888)">
<stop offset="0.3" stop-color="#960E18"/>
<stop offset="0.35" stop-color="#B11927" stop-opacity="0.74"/>
<stop offset="0.43" stop-color="#DB293D" stop-opacity="0.34"/>
<stop offset="0.5" stop-color="#F5334B" stop-opacity="0.09"/>
<stop offset="0.53" stop-color="#FF3750" stop-opacity="0"/>
</radialGradient>
<radialGradient id="paint3_radial_1205_239" cx="0" cy="0" r="1" gradientUnits="userSpaceOnUse" gradientTransform="translate(18.9045 -2.42791) scale(21.172 21.2184)">
<stop offset="0.13" stop-color="#FFF44F"/>
<stop offset="0.25" stop-color="#FFDC3E"/>
<stop offset="0.51" stop-color="#FF9D12"/>
<stop offset="0.53" stop-color="#FF980E"/>
</radialGradient>
<radialGradient id="paint4_radial_1205_239" cx="0" cy="0" r="1" gradientUnits="userSpaceOnUse" gradientTransform="translate(12.1486 23.8431) scale(13.915 13.9455)">
<stop offset="0.35" stop-color="#3A8EE6"/>
<stop offset="0.47" stop-color="#5C79F0"/>
<stop offset="0.67" stop-color="#9059FF"/>
<stop offset="1" stop-color="#C139E6"/>
</radialGradient>
<radialGradient id="paint5_radial_1205_239" cx="0" cy="0" r="1" gradientUnits="userSpaceOnUse" gradientTransform="translate(15.8004 12.7116) rotate(-13.9265) scale(7.37316 8.67852)">
<stop offset="0.21" stop-color="#9059FF" stop-opacity="0"/>
<stop offset="0.28" stop-color="#8C4FF3" stop-opacity="0.06"/>
<stop offset="0.75" stop-color="#7716A8" stop-opacity="0.45"/>
<stop offset="0.97" stop-color="#6E008B" stop-opacity="0.6"/>
</radialGradient>
<radialGradient id="paint6_radial_1205_239" cx="0" cy="0" r="1" gradientUnits="userSpaceOnUse" gradientTransform="translate(15.0114 3.02041) scale(10.0108 10.0328)">
<stop stop-color="#FFE226"/>
<stop offset="0.12" stop-color="#FFDB27"/>
<stop offset="0.3" stop-color="#FFC82A"/>
<stop offset="0.5" stop-color="#FFA930"/>
<stop offset="0.73" stop-color="#FF7E37"/>
<stop offset="0.79" stop-color="#FF7139"/>
</radialGradient>
<radialGradient id="paint7_radial_1205_239" cx="0" cy="0" r="1" gradientUnits="userSpaceOnUse" gradientTransform="translate(22.8807 -3.34288) scale(42.7109 42.8046)">
<stop offset="0.11" stop-color="#FFF44F"/>
<stop offset="0.46" stop-color="#FF980E"/>
<stop offset="0.62" stop-color="#FF5634"/>
<stop offset="0.72" stop-color="#FF3647"/>
<stop offset="0.9" stop-color="#E31587"/>
</radialGradient>
<radialGradient id="paint8_radial_1205_239" cx="0" cy="0" r="1" gradientUnits="userSpaceOnUse" gradientTransform="translate(18.7518 1.33374) rotate(84.2447) scale(31.1996 20.4543)">
<stop stop-color="#FFF44F"/>
<stop offset="0.06" stop-color="#FFE847"/>
<stop offset="0.17" stop-color="#FFC830"/>
<stop offset="0.3" stop-color="#FF980E"/>
<stop offset="0.36" stop-color="#FF8B16"/>
<stop offset="0.45" stop-color="#FF672A"/>
<stop offset="0.57" stop-color="#FF3647"/>
<stop offset="0.74" stop-color="#E31587"/>
</radialGradient>
<radialGradient id="paint9_radial_1205_239" cx="0" cy="0" r="1" gradientUnits="userSpaceOnUse" gradientTransform="translate(14.7757 6.73617) scale(26.6644 26.723)">
<stop offset="0.14" stop-color="#FFF44F"/>
<stop offset="0.48" stop-color="#FF980E"/>
<stop offset="0.59" stop-color="#FF5634"/>
<stop offset="0.66" stop-color="#FF3647"/>
<stop offset="0.9" stop-color="#E31587"/>
</radialGradient>
<radialGradient id="paint10_radial_1205_239" cx="0" cy="0" r="1" gradientUnits="userSpaceOnUse" gradientTransform="translate(21.8145 8.30035) scale(29.1844 29.2484)">
<stop offset="0.09" stop-color="#FFF44F"/>
<stop offset="0.23" stop-color="#FFE141"/>
<stop offset="0.51" stop-color="#FFAF1E"/>
<stop offset="0.63" stop-color="#FF980E"/>
</radialGradient>
<linearGradient id="paint11_linear_1205_239" x1="26.855" y1="5.37218" x2="7.01043" y2="25.1739" gradientUnits="userSpaceOnUse">
<stop offset="0.17" stop-color="#FFF44F" stop-opacity="0.8"/>
<stop offset="0.27" stop-color="#FFF44F" stop-opacity="0.63"/>
<stop offset="0.49" stop-color="#FFF44F" stop-opacity="0.22"/>
<stop offset="0.6" stop-color="#FFF44F" stop-opacity="0"/>
</linearGradient>
</defs>
</svg>
