<svg width="212" height="212" viewBox="0 0 212 212" fill="none" xmlns="http://www.w3.org/2000/svg">
<g filter="url(#filter0_d_1205_366)">
<path d="M92 97.9556C92 94.4708 92 92.7284 92.6782 91.3974C93.2747 90.2266 94.2266 89.2747 95.3974 88.6782C96.7284 88 98.4708 88 101.956 88H110.044C113.529 88 115.272 88 116.603 88.6782C117.773 89.2747 118.725 90.2266 119.322 91.3974C120 92.7284 120 94.4708 120 97.9556V106.044C120 109.529 120 111.272 119.322 112.603C118.725 113.773 117.773 114.725 116.603 115.322C115.272 116 113.529 116 110.044 116H101.956C98.4708 116 96.7284 116 95.3974 115.322C94.2266 114.725 93.2747 113.773 92.6782 112.603C92 111.272 92 109.529 92 106.044V97.9556Z" fill="white"/>
<path fill-rule="evenodd" clip-rule="evenodd" d="M114 98.8116L114 98.8541C114 98.872 114 98.8899 113.999 98.9078C114 98.9287 114 98.9498 114 98.971C114 102.307 111.401 105.26 109.661 107.237C109.157 107.81 108.724 108.301 108.449 108.696C107.469 110.099 106.952 111.618 106.816 112.203C106.816 112.643 106.451 113 106 113C105.549 113 105.184 112.643 105.184 112.203C105.048 111.618 104.531 110.099 103.551 108.696C103.276 108.301 102.843 107.81 102.339 107.237C100.599 105.26 98 102.307 98 98.971C98 98.9498 98.0002 98.9287 98.0006 98.9078C98.0002 98.8758 98 98.8437 98 98.8116C98 94.4974 101.582 91 106 91C110.418 91 114 94.4974 114 98.8116ZM106 101.681C107.713 101.681 109.102 100.325 109.102 98.6522C109.102 96.9793 107.713 95.6232 106 95.6232C104.287 95.6232 102.898 96.9793 102.898 98.6522C102.898 100.325 104.287 101.681 106 101.681Z" fill="#34A851"/>
<path d="M113.105 95.2186C112.126 93.3755 110.416 91.9618 108.35 91.3428L103.756 96.5615C104.321 95.9835 105.117 95.6235 106 95.6235C107.713 95.6235 109.102 96.9796 109.102 98.6524C109.102 99.3349 108.871 99.9646 108.481 100.471L113.105 95.2186Z" fill="#4285F5"/>
<path d="M102.431 107.342C102.401 107.307 102.37 107.272 102.339 107.237C101.192 105.934 99.672 104.207 98.7689 102.226L103.544 96.8015C103.139 97.3134 102.898 97.9553 102.898 98.6523C102.898 100.325 104.287 101.681 106 101.681C106.868 101.681 107.652 101.333 108.215 100.772L102.431 107.342Z" fill="#F9BB0E"/>
<path d="M99.8929 93.7656C98.7121 95.1268 98 96.8881 98 98.8117C98 98.8438 98.0002 98.8759 98.0006 98.9079C98.0002 98.9288 98 98.9499 98 98.9711C98 100.108 98.302 101.201 98.7689 102.225L103.536 96.8106L99.8929 93.7656Z" fill="#E74335"/>
<path d="M108.35 91.3425C107.607 91.1199 106.818 91 106 91C103.552 91 101.36 92.0739 99.8929 93.7655L103.536 96.8105L103.544 96.8015C103.61 96.7178 103.681 96.6375 103.756 96.5611L108.35 91.3425Z" fill="#1A73E6"/>
</g>
<defs>
<filter id="filter0_d_1205_366" x="-2" y="-2" width="216" height="216" filterUnits="userSpaceOnUse" color-interpolation-filters="sRGB">
<feFlood flood-opacity="0" result="BackgroundImageFix"/>
<feColorMatrix in="SourceAlpha" type="matrix" values="0 0 0 0 0 0 0 0 0 0 0 0 0 0 0 0 0 0 127 0" result="hardAlpha"/>
<feMorphology radius="88" operator="dilate" in="SourceAlpha" result="effect1_dropShadow_1205_366"/>
<feOffset dy="4"/>
<feGaussianBlur stdDeviation="2"/>
<feComposite in2="hardAlpha" operator="out"/>
<feColorMatrix type="matrix" values="0 0 0 0 1 0 0 0 0 0 0 0 0 0 0 0 0 0 1 0"/>
<feBlend mode="normal" in2="BackgroundImageFix" result="effect1_dropShadow_1205_366"/>
<feBlend mode="normal" in="SourceGraphic" in2="effect1_dropShadow_1205_366" result="shape"/>
</filter>
</defs>
</svg>
