<svg width="32" height="32" viewBox="0 0 32 32" fill="none" xmlns="http://www.w3.org/2000/svg">
<path d="M27.8141 14.4263L5.84852 2.36263C4.91007 1.85315 4.0704 1.90087 3.55986 2.37838C3.19776 2.71269 3 3.2539 3 3.95425V28.0337C3 28.7345 3.21401 29.2757 3.55986 29.6097C4.08676 30.1032 4.91007 30.1508 5.84852 29.6254L27.8141 17.5616C29.3953 16.7022 29.3953 15.3018 27.8141 14.4263Z" fill="#F1471D"/>
<path d="M25.9362 18.6214C26.2 17.7462 26.3318 16.807 26.3318 15.8523C26.3318 10.2341 21.6056 5.6665 15.7933 5.6665C9.98075 5.6665 5.255 10.2341 5.255 15.8523C5.255 20.5632 8.56484 24.5261 13.0601 25.6882L25.9362 18.6214Z" fill="#FCD117"/>
<path d="M22.5862 16.0021C22.5862 19.518 19.6378 22.3682 15.9998 22.3682C12.3621 22.3682 9.41345 19.518 9.41345 16.0021C9.41345 12.486 12.3621 9.63599 15.9998 9.63599C19.6377 9.63588 22.5862 12.4859 22.5862 16.0021Z" fill="#F48B15"/>
<path d="M16 12.6602V16.5748C15.7693 16.448 15.506 16.3681 15.2261 16.3681C14.3699 16.3681 13.6947 17.037 13.6947 17.8481C13.6947 18.6762 14.3862 19.3286 15.2261 19.3286C16.0826 19.3286 16.8234 18.6598 16.8234 17.8481V14.2516H18.3052V12.6602H16Z" fill="white"/>
</svg>
