<svg width="212" height="212" viewBox="0 0 212 212" fill="none" xmlns="http://www.w3.org/2000/svg">
<g filter="url(#filter0_d_1205_365)">
<path d="M92 97.9556C92 94.4708 92 92.7284 92.6782 91.3974C93.2747 90.2266 94.2266 89.2747 95.3974 88.6782C96.7284 88 98.4708 88 101.956 88H110.044C113.529 88 115.272 88 116.603 88.6782C117.773 89.2747 118.725 90.2266 119.322 91.3974C120 92.7284 120 94.4708 120 97.9556V106.044C120 109.529 120 111.272 119.322 112.603C118.725 113.773 117.773 114.725 116.603 115.322C115.272 116 113.529 116 110.044 116H101.956C98.4708 116 96.7284 116 95.3974 115.322C94.2266 114.725 93.2747 113.773 92.6782 112.603C92 111.272 92 109.529 92 106.044V97.9556Z" fill="white"/>
<path d="M95 109.56C95 110.356 95.65 111 96.4508 111H96.4717C95.6586 111 95 110.356 95 109.56Z" fill="#FBBC05"/>
<path d="M107.468 98.4V102.16L112.536 98.0712V94.44C112.536 93.6444 111.886 93 111.085 93H100.104L100.094 98.4H107.468Z" fill="#FBBC05"/>
<path d="M107.467 105.921H100.082L100.074 111H111.085C111.887 111 112.536 110.356 112.536 109.56V106.282L107.467 102.161V105.921V105.921Z" fill="#34A853"/>
<path d="M100.104 93L95 98.4H100.096L100.104 93Z" fill="#EA4335"/>
<path d="M95 105.92V109.56C95 110.356 95.6586 111 96.4717 111H100.074L100.082 105.92H95V105.92Z" fill="#1967D2"/>
<path d="M100.096 98.3999H95V105.92H100.082L100.096 98.3999Z" fill="#4285F4"/>
<path d="M116.993 108.28V95.9199C116.707 94.2796 114.908 96.1599 114.908 96.1599L112.537 98.0715V106.281L115.931 109.039C117.156 109.2 116.993 108.28 116.993 108.28Z" fill="#34A853"/>
<path d="M107.467 102.159L112.537 106.281V98.0723L107.467 102.159Z" fill="#188038"/>
</g>
<defs>
<filter id="filter0_d_1205_365" x="-2" y="-2" width="216" height="216" filterUnits="userSpaceOnUse" color-interpolation-filters="sRGB">
<feFlood flood-opacity="0" result="BackgroundImageFix"/>
<feColorMatrix in="SourceAlpha" type="matrix" values="0 0 0 0 0 0 0 0 0 0 0 0 0 0 0 0 0 0 127 0" result="hardAlpha"/>
<feMorphology radius="88" operator="dilate" in="SourceAlpha" result="effect1_dropShadow_1205_365"/>
<feOffset dy="4"/>
<feGaussianBlur stdDeviation="2"/>
<feComposite in2="hardAlpha" operator="out"/>
<feColorMatrix type="matrix" values="0 0 0 0 1 0 0 0 0 0 0 0 0 0 0 0 0 0 1 0"/>
<feBlend mode="normal" in2="BackgroundImageFix" result="effect1_dropShadow_1205_365"/>
<feBlend mode="normal" in="SourceGraphic" in2="effect1_dropShadow_1205_365" result="shape"/>
</filter>
</defs>
</svg>
