<svg width="32" height="32" viewBox="0 0 32 32" fill="none" xmlns="http://www.w3.org/2000/svg">
<g clip-path="url(#clip0_1205_379)">
<path d="M27.0628 25.1429L32 12.0229L17.0514 8.68579L15.0857 14.2629L27.0628 25.1429Z" fill="#247CE6"/>
<path d="M32 25.6458L24.4571 32L9.41711 28.1143L13.44 20.8L32 25.6458Z" fill="url(#paint0_linear_1205_379)"/>
<path d="M4.43424 15.9086L0.594238 4.93714L17.5542 0L16.1828 14.1714L4.43424 15.9086Z" fill="url(#paint1_linear_1205_379)"/>
<path d="M27.9314 18.5143L23.1771 10.3771L23.2686 10.3314L17.5543 0L0 18.9714V32L31.9086 25.6457L27.9314 18.5143Z" fill="url(#paint2_linear_1205_379)"/>
<path d="M6.12573 6.12573H25.8743V25.8743H6.12573V6.12573Z" fill="black"/>
<path d="M7.95435 22.1714H15.3601V23.4057H7.95435V22.1714Z" fill="white"/>
<path d="M11.2 8.68579H12.8457L16.32 16.8686H14.4457L13.7143 15.0401H10.2857L9.55428 16.8686H7.72571L11.2 8.68579ZM13.0743 13.4401L11.9771 10.7886L10.88 13.4401H13.0743Z" fill="white"/>
<path d="M15.8629 12.8457C15.8629 10.4686 17.6458 8.54858 20.1601 8.54858C21.7143 8.54858 22.6286 9.05144 23.4058 9.82858L22.2629 11.1543C21.6229 10.56 20.9829 10.24 20.1601 10.24C18.7886 10.24 17.7829 11.3829 17.7829 12.8C17.7829 14.2172 18.7429 15.4057 20.1601 15.4057C21.1201 15.4057 21.6686 15.04 22.3086 14.4457L23.4515 15.5886C22.5829 16.5029 21.6686 17.0514 20.0686 17.0514C17.6458 17.0514 15.8629 15.1772 15.8629 12.8457Z" fill="white"/>
</g>
<defs>
<linearGradient id="paint0_linear_1205_379" x1="9.42489" y1="26.4023" x2="32" y2="26.4023" gradientUnits="userSpaceOnUse">
<stop offset="0.194" stop-color="#00DAF0"/>
<stop offset="0.903" stop-color="#247CE6"/>
</linearGradient>
<linearGradient id="paint1_linear_1205_379" x1="0.582353" y1="7.96114" x2="17.5588" y2="7.96114" gradientUnits="userSpaceOnUse">
<stop offset="0.194" stop-color="#00DAF0"/>
<stop offset="0.903" stop-color="#247CE6"/>
</linearGradient>
<linearGradient id="paint2_linear_1205_379" x1="20.9719" y1="33.0158" x2="5.11863" y2="10.891" gradientUnits="userSpaceOnUse">
<stop offset="0.091" stop-color="#1DDF93"/>
<stop offset="0.484" stop-color="#00DAF0"/>
<stop offset="0.903" stop-color="#247CE6"/>
</linearGradient>
<clipPath id="clip0_1205_379">
<rect width="32" height="32" fill="white"/>
</clipPath>
</defs>
</svg>
