<svg width="32" height="32" viewBox="0 0 32 32" fill="none" xmlns="http://www.w3.org/2000/svg">
<g clip-path="url(#clip0_1205_391)">
<path d="M3.65714 29.7599L0.0457153 17.1885L23.6343 20.6628L20.2514 31.9999L3.65714 29.7599Z" fill="url(#paint0_linear_1205_391)"/>
<path d="M10.7428 0.0457143L19.2457 2.46857L28.8914 0L32 21.1657L6.12567 17.1886L10.7428 0.0457143Z" fill="url(#paint1_linear_1205_391)"/>
<path d="M32 21.0742L30.7657 13.2113L11.7029 6.58276L0.0457143 9.09705L0 17.2342L22.6743 23.4513L32 21.0742Z" fill="url(#paint2_linear_1205_391)"/>
<path d="M6.12567 6.12573H25.8742V25.8743H6.12567V6.12573Z" fill="black"/>
<path d="M7.95422 22.1714H15.3599V23.4057H7.95422V22.1714Z" fill="white"/>
<path d="M7.95422 8.68579H11.1085C13.6685 8.68579 15.4514 10.4686 15.4514 12.7544V12.8001C15.4514 15.0858 13.6685 16.9144 11.1085 16.9144H7.95422V8.68579ZM9.73708 10.3315V15.2686H11.0628C12.5257 15.2686 13.5314 14.2629 13.5314 12.8001V12.8001C13.5314 11.3372 12.5257 10.3315 11.0628 10.3315H9.73708Z" fill="white"/>
<path d="M15.9085 8.73145H17.8742L19.9771 12.16L22.1257 8.73145H24.0457V16.8686H22.2628V11.52L19.9771 14.9943H19.9314L17.6914 11.5657V16.8686H15.9085V8.73145Z" fill="white"/>
</g>
<defs>
<linearGradient id="paint0_linear_1205_391" x1="9.36092" y1="8.58596" x2="14.8407" y2="31.5236" gradientUnits="userSpaceOnUse">
<stop stop-color="#7866FF"/>
<stop offset="0.023" stop-color="#7E64FE"/>
<stop offset="0.195" stop-color="#AA56F3"/>
<stop offset="0.349" stop-color="#C94CEC"/>
<stop offset="0.48" stop-color="#DC45E8"/>
<stop offset="0.57" stop-color="#E343E6"/>
<stop offset="0.641" stop-color="#E859BC"/>
<stop offset="0.819" stop-color="#F48F58"/>
<stop offset="0.942" stop-color="#FCB019"/>
<stop offset="1" stop-color="#FFBD00"/>
</linearGradient>
<linearGradient id="paint1_linear_1205_391" x1="22.591" y1="18.949" x2="14.9577" y2="3.43588" gradientUnits="userSpaceOnUse">
<stop stop-color="#7866FF"/>
<stop offset="0.202" stop-color="#965CF8"/>
<stop offset="0.64" stop-color="#E343E6"/>
<stop offset="0.968" stop-color="#FFBD00"/>
</linearGradient>
<linearGradient id="paint2_linear_1205_391" x1="12.0471" y1="24.5046" x2="16.5531" y2="13.8157" gradientUnits="userSpaceOnUse">
<stop offset="0.118" stop-color="#E343E6"/>
<stop offset="0.211" stop-color="#C84CEC"/>
<stop offset="0.338" stop-color="#AB55F3"/>
<stop offset="0.472" stop-color="#955DF8"/>
<stop offset="0.618" stop-color="#8562FC"/>
<stop offset="0.781" stop-color="#7B65FE"/>
<stop offset="1" stop-color="#7866FF"/>
</linearGradient>
<clipPath id="clip0_1205_391">
<rect width="32" height="32" fill="white"/>
</clipPath>
</defs>
</svg>
