<svg width="32" height="32" viewBox="0 0 32 32" fill="none" xmlns="http://www.w3.org/2000/svg">
<path d="M26.1824 10.2222L30.544 19.9122L24.3771 30.4471L9.56433 18.3781L17.1396 11.0766L26.1824 10.2222Z" fill="url(#paint0_linear_1205_385)"/>
<path d="M19.8852 19.5414L24.3771 30.4474L10.6926 25.7434L9.56433 18.3784L19.8852 19.5414Z" fill="#BB4EFC"/>
<path d="M11.0999 4.31226L17.3975 7.53968L11.7298 24.7008L0.31543 24.582L2.76754 19.1443L0.31543 12.1952L11.0999 4.31226Z" fill="#078EFC"/>
<path d="M19.0002 0.218994L21.9785 10.3539L0.31543 12.1952L7.20503 0.218994H19.0002Z" fill="url(#paint1_linear_1205_385)"/>
<path d="M30.544 6.63721L17.8702 9.64521L0.31543 24.5819L11.6379 30.4475L21.4734 20.3076L30.544 6.63721Z" fill="url(#paint2_linear_1205_385)"/>
<path d="M5.35364 5.25708H25.5059V25.4093H5.35364V5.25708Z" fill="black"/>
<path d="M7.36865 22.084H14.9257V23.2931H7.36865V22.084Z" fill="white"/>
<path d="M6.67758 11.8308V11.8061C6.59529 9.38551 8.49107 7.35626 10.9116 7.27443C10.9528 7.27306 10.9935 7.27214 11.0346 7.27214C12.2415 7.21043 13.4209 7.64471 14.2995 8.47443L13.1475 9.94003C12.5756 9.35854 11.7903 9.03717 10.9747 9.05088C9.56535 9.1542 8.50158 10.3716 8.58844 11.7819V11.8065C8.4705 13.2196 9.52055 14.4603 10.9336 14.5782C10.9907 14.5828 11.0483 14.586 11.1059 14.5869C11.7217 14.6052 12.3265 14.42 12.8271 14.0607V12.8081H10.9871V11.1428H14.5962V14.9499C13.6303 15.8436 12.3626 16.34 11.0465 16.3409C8.68672 16.3972 6.72832 14.5293 6.67209 12.1695C6.66981 12.0566 6.67164 11.9437 6.67758 11.8308Z" fill="white"/>
<path d="M15.3642 11.8308V11.8061C15.2998 9.36726 17.2244 7.338 19.6637 7.27355C22.103 7.20909 24.1318 9.13366 24.1962 11.573C24.1981 11.6425 24.1981 11.7124 24.1967 11.7819V11.8066C24.2612 14.2454 22.3366 16.2747 19.8973 16.3391C17.4584 16.4036 15.4292 14.479 15.3647 12.0397C15.3629 11.9702 15.3629 11.9007 15.3642 11.8308ZM22.2858 11.8308V11.8061C22.3709 10.3707 21.276 9.13869 19.8406 9.05366C19.8164 9.05229 19.7926 9.05137 19.7684 9.05046C18.353 9.08612 17.2349 10.2619 17.2705 11.6772C17.2714 11.7119 17.2728 11.7467 17.2751 11.7819V11.8066C17.1901 13.242 18.2849 14.474 19.7204 14.559C19.7446 14.5604 19.7684 14.5613 19.7926 14.5622C21.2079 14.5266 22.3261 13.3508 22.2904 11.9355C22.2895 11.9007 22.2881 11.8655 22.2858 11.8308Z" fill="white"/>
<defs>
<linearGradient id="paint0_linear_1205_385" x1="24.7787" y1="12.508" x2="16.2258" y2="25.5487" gradientUnits="userSpaceOnUse">
<stop offset="0.174" stop-color="#078EFC"/>
<stop offset="0.204" stop-color="#118AFC"/>
<stop offset="0.435" stop-color="#5971FC"/>
<stop offset="0.627" stop-color="#8E5EFC"/>
<stop offset="0.77" stop-color="#AF52FC"/>
<stop offset="0.849" stop-color="#BB4EFC"/>
</linearGradient>
<linearGradient id="paint1_linear_1205_385" x1="3.30726" y1="13.7759" x2="20.6523" y2="0.726566" gradientUnits="userSpaceOnUse">
<stop offset="0.174" stop-color="#078EFC"/>
<stop offset="0.204" stop-color="#118AFC"/>
<stop offset="0.435" stop-color="#5971FC"/>
<stop offset="0.627" stop-color="#8E5EFC"/>
<stop offset="0.77" stop-color="#AF52FC"/>
<stop offset="0.849" stop-color="#BB4EFC"/>
</linearGradient>
<linearGradient id="paint2_linear_1205_385" x1="4.51512" y1="26.6258" x2="26.3208" y2="12.6136" gradientUnits="userSpaceOnUse">
<stop stop-color="#078EFC"/>
<stop offset="0.106" stop-color="#15A7D3"/>
<stop offset="0.228" stop-color="#23BFAA"/>
<stop offset="0.348" stop-color="#2DD28B"/>
<stop offset="0.463" stop-color="#35DF74"/>
<stop offset="0.573" stop-color="#39E767"/>
<stop offset="0.67" stop-color="#3BEA62"/>
</linearGradient>
</defs>
</svg>
