<svg width="32" height="32" viewBox="0 0 32 32" fill="none" xmlns="http://www.w3.org/2000/svg">
<g clip-path="url(#clip0_1205_402)">
<path d="M27.6572 10.9716L4.38861 12.2973L4.25146 3.38298L25.2343 0.0915527L27.6572 10.9716Z" fill="url(#paint0_linear_1205_402)"/>
<path d="M9.28003 19.7484L16.7772 10.2399L8.64003 4.66273C7.22288 3.38273 5.07431 2.83416 2.88003 3.74844C1.78288 4.20559 0.914313 5.07416 0.45717 6.1713C-0.50283 8.45702 0.0914555 10.697 1.55431 12.0684L9.28003 19.7484Z" fill="url(#paint1_linear_1205_402)"/>
<path d="M9.28003 19.7486L20.8 31.1314L27.9772 17.7371L16.7772 10.24L9.28003 19.7486Z" fill="url(#paint2_linear_1205_402)"/>
<path d="M24.64 16.7315L5.48573 15.8172C4.7543 15.6801 3.93145 15.7258 3.06288 16.0915C2.24002 16.4572 1.60002 17.0515 1.28002 17.8743C0.320018 20.1143 1.46288 22.2629 3.33716 22.9943L20.48 31.0858C20.7086 31.2229 21.8514 31.5429 21.8514 31.5429C22.7657 31.8172 23.7714 31.9543 24.6857 31.9543C25.8286 31.9543 27.1086 31.6343 28.3886 30.9943C29.5772 30.4001 30.3086 29.4401 30.9486 28.2515C31.7257 26.8801 31.9543 25.6001 31.9543 24.3201C31.9086 20.3429 28.6172 17.0058 24.64 16.7315Z" fill="url(#paint3_linear_1205_402)"/>
<path d="M23.8171 0.502779C23.4971 0.639921 23.1771 0.822778 22.9028 1.00564L12.2971 9.00563L17.5543 16.6856L29.0743 10.2399C29.9428 9.82849 30.6285 9.09706 31.04 8.27421C33.6 3.33706 28.8457 -1.60008 23.8171 0.502779Z" fill="url(#paint4_linear_1205_402)"/>
<path d="M6.62856 22.7659L17.5543 16.6859L12.2971 9.00586L2.23999 16.5487L6.62856 22.7659Z" fill="#905CFB"/>
<path d="M9.32573 25.7829V16.0001L5.48573 15.8172C4.7543 15.6801 3.93145 15.7258 3.06288 16.0915C2.24002 16.4572 1.60002 17.0515 1.28002 17.8743C0.320018 20.1143 1.46288 22.2629 3.33716 22.9943H3.38288L9.32573 25.7829Z" fill="url(#paint5_linear_1205_402)"/>
<path d="M6.12567 6.12573H25.8742V25.8743H6.12567V6.12573Z" fill="black"/>
<path d="M8 13.4401V8.68579H9.82857V13.3944C9.82857 14.7658 10.5143 15.4515 11.6114 15.4515C12.7086 15.4515 13.3943 14.7658 13.3943 13.4401V8.68579H15.2229V13.3486C15.2229 15.8629 13.8057 17.0972 11.5657 17.0972C9.37143 17.1429 8 15.8629 8 13.4401Z" fill="white"/>
<path d="M16.1829 8.68579H19.5657C21.5314 8.68579 22.72 9.87436 22.72 11.5658V11.6115C22.72 13.5315 21.2114 14.5372 19.3829 14.5372H18.0114V17.0058H16.1829V8.68579ZM19.4743 12.8915C20.3886 12.8915 20.9371 12.3429 20.9371 11.6572V11.6115C20.9371 10.7886 20.3886 10.3772 19.4743 10.3772H18.0571V12.8915H19.4743Z" fill="white"/>
<path d="M8 22.1714H15.4057V23.4057H8V22.1714Z" fill="white"/>
</g>
<defs>
<linearGradient id="paint0_linear_1205_402" x1="29.6746" y1="5.03327" x2="8.00598" y2="8.28355" gradientUnits="userSpaceOnUse">
<stop stop-color="#FF8200"/>
<stop offset="0.973" stop-color="#905CFB"/>
</linearGradient>
<linearGradient id="paint1_linear_1205_402" x1="7.16574" y1="15.9094" x2="9.1854" y2="4.62616" gradientUnits="userSpaceOnUse">
<stop stop-color="#0CB0F2"/>
<stop offset="0.973" stop-color="#905CFB"/>
</linearGradient>
<linearGradient id="paint2_linear_1205_402" x1="26.6675" y1="24.533" x2="12.3328" y2="17.5323" gradientUnits="userSpaceOnUse">
<stop stop-color="#0CB0F2"/>
<stop offset="0.973" stop-color="#905CFB"/>
</linearGradient>
<linearGradient id="paint3_linear_1205_402" x1="27.7385" y1="25.6266" x2="3.36093" y2="16.8627" gradientUnits="userSpaceOnUse">
<stop stop-color="#0CB0F2"/>
<stop offset="0.973" stop-color="#905CFB"/>
</linearGradient>
<linearGradient id="paint4_linear_1205_402" x1="29.3458" y1="2.71306" x2="8.46809" y2="19.54" gradientUnits="userSpaceOnUse">
<stop stop-color="#FF8200"/>
<stop offset="0.973" stop-color="#905CFB"/>
</linearGradient>
<linearGradient id="paint5_linear_1205_402" x1="13.9191" y1="22.5111" x2="1.03545" y2="17.9324" gradientUnits="userSpaceOnUse">
<stop stop-color="#0CB0F2"/>
<stop offset="0.973" stop-color="#905CFB"/>
</linearGradient>
<clipPath id="clip0_1205_402">
<rect width="32" height="32" fill="white"/>
</clipPath>
</defs>
</svg>
