<svg width="32" height="32" viewBox="0 0 32 32" fill="none" xmlns="http://www.w3.org/2000/svg">
<g clip-path="url(#clip0_1205_389)">
<path d="M4.29714 28.9371L0 3.33708L8 0.0456543L13.0743 3.0628L17.7371 0.548511L27.4743 4.29708L21.9886 31.9999L4.29714 28.9371Z" fill="url(#paint0_linear_1205_389)"/>
<path d="M32 10.8343L27.8857 0.64L20.3886 0L8.82288 11.1086L11.9314 25.4171L17.7372 29.5314L32 21.0286L28.48 14.4914L32 10.8343Z" fill="url(#paint1_linear_1205_389)"/>
<path d="M25.6 9.32569L28.48 14.4914L32 10.8343L29.44 4.47998L25.6 9.32569Z" fill="url(#paint2_linear_1205_389)"/>
<path d="M6.12567 6.12573H25.8742V25.8743H6.12567V6.12573Z" fill="black"/>
<path d="M8 22.1714H15.4057V23.4057H8V22.1714Z" fill="white"/>
<path d="M17.6914 15.6801L18.7428 14.4001C19.4743 14.9944 20.2514 15.4058 21.1657 15.4058C21.8971 15.4058 22.3085 15.1315 22.3085 14.6286V14.5829C22.3085 14.1258 22.0343 13.8972 20.6628 13.5315C19.0171 13.1201 18.0114 12.6629 18.0114 11.0172V10.9715C18.0114 9.46293 19.2 8.50293 20.8457 8.50293C22.0343 8.50293 23.04 8.86864 23.8628 9.55436L22.9485 10.9258C22.2171 10.4229 21.5314 10.1029 20.8457 10.1029C20.16 10.1029 19.7943 10.4229 19.7943 10.8344V10.8801C19.7943 11.4286 20.16 11.6115 21.5314 11.9772C23.1771 12.4344 24.0914 13.0286 24.0914 14.4458V14.4915C24.0914 16.1372 22.8571 17.0515 21.12 17.0515C19.8857 17.0058 18.6514 16.5486 17.6914 15.6801Z" fill="white"/>
<path d="M16.0914 8.68579L14.8571 13.4401L13.4856 8.68579H12.1142L10.6971 13.4401L9.46279 8.68579H7.5885L9.91993 16.8686H11.4285L12.7999 12.1144L14.1256 16.8686H15.6799L18.0114 8.68579H16.0914Z" fill="white"/>
</g>
<defs>
<linearGradient id="paint0_linear_1205_389" x1="11.4597" y1="0.667369" x2="19.7408" y2="30.4799" gradientUnits="userSpaceOnUse">
<stop offset="0.285" stop-color="#00CDD7"/>
<stop offset="0.941" stop-color="#2086D7"/>
</linearGradient>
<linearGradient id="paint1_linear_1205_389" x1="14.0434" y1="4.44983" x2="28.0526" y2="24.9925" gradientUnits="userSpaceOnUse">
<stop offset="0.14" stop-color="#FFF045"/>
<stop offset="0.366" stop-color="#00CDD7"/>
</linearGradient>
<linearGradient id="paint2_linear_1205_389" x1="27.9232" y1="6.98969" x2="29.7627" y2="13.5058" gradientUnits="userSpaceOnUse">
<stop offset="0.285" stop-color="#00CDD7"/>
<stop offset="0.941" stop-color="#2086D7"/>
</linearGradient>
<clipPath id="clip0_1205_389">
<rect width="32" height="32" fill="white"/>
</clipPath>
</defs>
</svg>
