<svg width="32" height="32" viewBox="0 0 32 32" fill="none" xmlns="http://www.w3.org/2000/svg">
<path d="M31 22.5651C31 25.0095 28.9095 27 26.3423 27H1V9.43492C1 6.99048 3.09046 5 5.6577 5H31V22.5651Z" fill="white"/>
<path d="M24.4535 6.48438C22.6198 6.48438 21.1161 7.89866 21.1161 9.66215V12.9622H25.8288C25.9389 12.9622 26.0672 12.9622 26.1589 12.9796C27.2225 13.032 28.011 13.5558 28.011 14.4637C28.011 15.1796 27.4792 15.7907 26.489 15.9129V15.9479C27.5709 16.0177 28.3961 16.5939 28.3961 17.4844C28.3961 18.4447 27.4792 19.0733 26.2689 19.0733H21.0978V25.5336H25.9939C27.8276 25.5336 29.3313 24.1193 29.3313 22.3558V6.48438H24.4535Z" fill="url(#paint0_linear_1205_463)"/>
<path d="M22.7482 18.0606H24.6736C24.7011 18.0606 24.7469 18.0562 24.7928 18.0518C24.8386 18.0475 24.8845 18.0431 24.912 18.0431C25.2787 17.9733 25.5905 17.659 25.5905 17.2225C25.5905 16.8034 25.2787 16.4891 24.912 16.4018C24.857 16.3844 24.7469 16.3844 24.6736 16.3844H22.7482V18.0606Z" fill="url(#paint1_linear_1205_463)"/>
<path d="M24.6736 13.9224C25.0403 13.9748 25.3521 14.2541 25.3521 14.6732C25.3521 15.0922 25.0403 15.3716 24.6736 15.424C24.6553 15.4414 24.5452 15.4414 24.4902 15.4414H22.7482V13.9049H24.4902C24.5205 13.9049 24.5619 13.9102 24.5991 13.915C24.6295 13.9188 24.6571 13.9224 24.6736 13.9224Z" fill="url(#paint2_linear_1205_463)"/>
<path d="M6.00614 6.48438C4.1724 6.48438 2.66873 7.89866 2.66873 9.66215V17.5018C3.60394 17.9383 4.57582 18.2177 5.5477 18.2177C6.70296 18.2177 7.32643 17.5542 7.32643 16.6463V12.9447H10.1871V16.6288C10.1871 18.0606 9.25186 19.2304 6.07949 19.2304C4.15406 19.2304 2.65039 18.8288 2.65039 18.8288V25.5161H7.54648C9.38022 25.5161 10.8839 24.1018 10.8839 22.3383V6.48438H6.00614Z" fill="url(#paint3_linear_1205_463)"/>
<path d="M15.2299 6.48438C13.3961 6.48438 11.8925 7.89866 11.8925 9.66215V13.8177C12.736 13.1368 14.203 12.7002 16.5685 12.805C17.8338 12.8574 19.1907 13.1891 19.1907 13.1891V14.5336C18.5123 14.2018 17.7054 13.905 16.6602 13.8352C14.8631 13.7129 13.7812 14.551 13.7812 16.0177C13.7812 17.5018 14.8631 18.3399 16.6602 18.2002C17.7054 18.1304 18.5123 17.8161 19.1907 17.5018V18.8463C19.1907 18.8463 17.8521 19.178 16.5685 19.2304C14.203 19.3352 12.736 18.8987 11.8925 18.2177V25.551H16.7885C18.6223 25.551 20.126 24.1368 20.126 22.3733V6.48438H15.2299Z" fill="url(#paint4_linear_1205_463)"/>
<defs>
<linearGradient id="paint0_linear_1205_463" x1="21.1125" y1="14.6705" x2="29.3532" y2="14.6705" gradientUnits="userSpaceOnUse">
<stop stop-color="#007940"/>
<stop offset="0.2285" stop-color="#00873F"/>
<stop offset="0.7433" stop-color="#40A737"/>
<stop offset="1" stop-color="#5CB531"/>
</linearGradient>
<linearGradient id="paint1_linear_1205_463" x1="21.1125" y1="14.6705" x2="29.3532" y2="14.6705" gradientUnits="userSpaceOnUse">
<stop stop-color="#007940"/>
<stop offset="0.2285" stop-color="#00873F"/>
<stop offset="0.7433" stop-color="#40A737"/>
<stop offset="1" stop-color="#5CB531"/>
</linearGradient>
<linearGradient id="paint2_linear_1205_463" x1="21.1125" y1="14.6705" x2="29.3532" y2="14.6705" gradientUnits="userSpaceOnUse">
<stop stop-color="#007940"/>
<stop offset="0.2285" stop-color="#00873F"/>
<stop offset="0.7433" stop-color="#40A737"/>
<stop offset="1" stop-color="#5CB531"/>
</linearGradient>
<linearGradient id="paint3_linear_1205_463" x1="2.66456" y1="16.001" x2="11.0327" y2="16.001" gradientUnits="userSpaceOnUse">
<stop stop-color="#1F286F"/>
<stop offset="0.4751" stop-color="#004E94"/>
<stop offset="0.8261" stop-color="#0066B1"/>
<stop offset="1" stop-color="#006FBC"/>
</linearGradient>
<linearGradient id="paint4_linear_1205_463" x1="11.8448" y1="16.001" x2="19.9719" y2="16.001" gradientUnits="userSpaceOnUse">
<stop stop-color="#6C2C2F"/>
<stop offset="0.1735" stop-color="#882730"/>
<stop offset="0.5731" stop-color="#BE1833"/>
<stop offset="0.8585" stop-color="#DC0436"/>
<stop offset="1" stop-color="#E60039"/>
</linearGradient>
</defs>
</svg>
