<svg width="32" height="32" viewBox="0 0 32 32" fill="none" xmlns="http://www.w3.org/2000/svg">
<path d="M15.9947 3C8.26662 3 2 7.97177 2 14.1072C2 18.074 4.6181 21.5489 8.56102 23.5218L7.14157 28.6258C7.14157 28.6258 7.11528 28.8638 7.26774 28.9537C7.4202 29.0436 7.60421 28.9749 7.60421 28.9749C8.04581 28.9114 12.7037 25.6163 13.5186 25.045C14.3229 25.1614 15.1588 25.2196 16.0053 25.2196C23.7334 25.2196 30 20.2478 30 14.1124C30 7.97706 23.7229 3 15.9947 3Z" fill="black"/>
<path d="M8.25605 17.9788C7.80919 17.9788 7.44644 17.6297 7.44644 17.2013V12.3723H6.1847C5.74835 12.3723 5.39612 12.0179 5.39612 11.5789C5.39612 11.1399 5.75361 10.7856 6.1847 10.7856H10.3221C10.7585 10.7856 11.1107 11.1399 11.1107 11.5789C11.1107 12.0179 10.7532 12.3723 10.3221 12.3723H9.06041V17.2013C9.06041 17.6244 8.6924 17.9788 8.25079 17.9788H8.25605ZM15.3375 17.9682C15.0011 17.9682 14.7435 17.8307 14.6646 17.6085L14.2651 16.5507H11.8047L11.4051 17.6085C11.3263 17.8307 11.0687 17.9682 10.7322 17.9682C10.5535 17.9682 10.38 17.9312 10.217 17.8624C9.99619 17.7566 9.78065 17.4763 10.0277 16.7094L11.9571 11.5948C12.0938 11.2034 12.5091 10.8014 13.0349 10.7909C13.5606 10.7803 13.9812 11.2034 14.1126 11.5948L16.042 16.7094C16.2891 17.4763 16.0735 17.7672 15.8527 17.8624C15.695 17.9365 15.5163 17.9682 15.3375 17.9682ZM13.8392 15.1121L13.0349 12.806L12.2305 15.1121H13.8392ZM17.3405 17.8624C16.92 17.8624 16.5677 17.5292 16.5677 17.1219V11.5948C16.5677 11.1452 16.9357 10.7803 17.3931 10.7803C17.8505 10.7803 18.2185 11.1505 18.2185 11.5948V16.3656H19.9324C20.3529 16.3656 20.7052 16.6988 20.7052 17.1061C20.7052 17.5133 20.3582 17.8465 19.9324 17.8465L17.3405 17.8624ZM21.0153 17.1537V11.6001C21.0153 11.1505 21.3833 10.7856 21.825 10.7856C22.2666 10.7856 22.6346 11.1558 22.6346 11.6001V13.3455L24.8952 11.0712C25.144 10.8208 25.6144 10.8428 25.8993 11.1294C26.1669 11.3986 26.2365 11.8536 25.9571 12.1396L24.1066 13.9908L26.0938 16.6353C26.3609 16.9792 26.2961 17.5148 25.9361 17.7672C25.5812 18.0317 25.0599 17.9435 24.8058 17.6085L22.9132 15.0856L22.6346 15.3659V17.1378C22.6346 18.1932 21.0153 18.2338 21.0153 17.1537Z" fill="#FFE812"/>
</svg>
