<svg width="32" height="32" viewBox="0 0 32 32" fill="none" xmlns="http://www.w3.org/2000/svg">
<mask id="mask0_1205_352" style="mask-type:alpha" maskUnits="userSpaceOnUse" x="0" y="6" width="32" height="20">
<path d="M7.82979 26C3.50549 26 0 22.5675 0 18.3333C0 14.1921 3.35322 10.8179 7.54613 10.6716C9.27535 7.87166 12.4144 6 16 6C20.6308 6 24.5169 9.12183 25.5829 13.3335C29.1316 13.3603 32 16.1855 32 19.6667C32 23.0527 29 26 25.8723 25.9914L7.82979 26Z" fill="#C4C4C4"/>
</mask>
<g mask="url(#mask0_1205_352)">
<path d="M7.82981 26.0001C5.37788 26.0001 3.1892 24.8966 1.75354 23.1691L18.0425 16.3335L30.7085 23.4647C29.5922 24.9211 27.9063 26.0001 26 25.9915C23.125 26.0001 12.0625 26.0001 7.82981 26.0001Z" fill="url(#paint0_linear_1205_352)"/>
<path d="M25.578 13.3147L18.0425 16.3332L30.7085 23.4644C31.5194 22.4063 31.9999 21.0914 31.9999 19.6666C31.9999 16.1855 29.1316 13.3602 25.5828 13.3334C25.5812 13.3272 25.5796 13.3209 25.578 13.3147Z" fill="url(#paint1_linear_1205_352)"/>
<path d="M7.0647 10.7028L18.0425 16.3333L25.5781 13.3148C24.5054 9.11261 20.624 6 16 6C12.4144 6 9.27533 7.87166 7.54611 10.6716C7.38434 10.6773 7.22382 10.6877 7.0647 10.7028Z" fill="url(#paint2_linear_1205_352)"/>
<path d="M1.7535 23.169L18.0425 16.3334L7.06471 10.7029C3.09947 11.0794 0 14.352 0 18.3334C0 20.1667 0.657197 21.8498 1.7535 23.169Z" fill="url(#paint3_linear_1205_352)"/>
</g>
<defs>
<linearGradient id="paint0_linear_1205_352" x1="4.42554" y1="24.6668" x2="27.2306" y2="23.2764" gradientUnits="userSpaceOnUse">
<stop stop-color="#2086B8"/>
<stop offset="1" stop-color="#46D3F6"/>
</linearGradient>
<linearGradient id="paint1_linear_1205_352" x1="23.8297" y1="19.6665" x2="30.2103" y2="15.208" gradientUnits="userSpaceOnUse">
<stop stop-color="#1694DB"/>
<stop offset="1" stop-color="#62C3FE"/>
</linearGradient>
<linearGradient id="paint2_linear_1205_352" x1="8.51062" y1="7.33333" x2="23.3338" y2="15.9348" gradientUnits="userSpaceOnUse">
<stop stop-color="#0D3D78"/>
<stop offset="1" stop-color="#063B83"/>
</linearGradient>
<linearGradient id="paint3_linear_1205_352" x1="-0.340429" y1="20.0001" x2="14.5634" y2="14.4652" gradientUnits="userSpaceOnUse">
<stop stop-color="#16589B"/>
<stop offset="1" stop-color="#1464B7"/>
</linearGradient>
</defs>
</svg>
