<svg width="32" height="32" viewBox="0 0 32 32" fill="none" xmlns="http://www.w3.org/2000/svg">
<path d="M25.5738 2.00049C27.4664 2.97099 29.0921 5.51778 29.0106 8.97363C28.7632 13.2317 25.6952 16.9015 22.3571 20.2826C22.1701 16.1592 21.2792 13.5315 19.888 9.83621C18.5745 6.11239 22.4146 2.11968 25.5738 2.00049V2.00049Z" fill="url(#paint0_linear_1205_399)"/>
<path d="M17.5205 16.8196C17.0207 17.814 16.3159 18.9111 15.336 20.1377C13.6311 22.3002 11.9118 25.8465 12.4406 30.004C20.0806 29.1561 22.0208 22.9688 21.883 20.2924C21.878 20.2327 21.8727 20.1728 21.8671 20.1127C21.8668 20.1123 21.8665 20.112 21.8662 20.1116C21.872 20.1717 21.8777 20.2322 21.883 20.2924C20.6806 18.7342 19.2441 17.6598 17.5205 16.8196Z" fill="url(#paint1_linear_1205_399)"/>
<path d="M18.4472 10.3228C20.3637 13.3172 21.5708 16.7481 21.8828 20.2922C20.6802 18.7338 19.2436 17.6597 17.5198 16.8194C18.911 14.0517 18.7156 12.0795 18.4472 10.3228Z" fill="url(#paint2_linear_1205_399)"/>
<path d="M17.7252 9.26444C14.3431 4.6381 8.48464 2.41765 3.04118 4.58527C2.79127 7.83786 4.17363 12.6746 9.77919 14.214C10.3967 14.398 10.9658 14.5635 11.5016 14.7194C13.0141 15.1592 14.2614 15.522 15.5838 16.0054C16.2666 16.255 16.9112 16.5226 17.5198 16.8194C18.911 14.0517 18.7157 12.0796 18.4472 10.3228C18.4472 10.3228 17.8569 9.44451 17.7252 9.26444Z" fill="url(#paint3_linear_1205_399)"/>
<defs>
<linearGradient id="paint0_linear_1205_399" x1="24.3184" y1="2.00049" x2="24.3184" y2="20.2826" gradientUnits="userSpaceOnUse">
<stop stop-color="#73B723"/>
<stop offset="1" stop-color="#D8EE61"/>
</linearGradient>
<linearGradient id="paint1_linear_1205_399" x1="20.4442" y1="20.1992" x2="11.3664" y2="26.9439" gradientUnits="userSpaceOnUse">
<stop stop-color="#98C9EA"/>
<stop offset="0.68865" stop-color="#026FB2"/>
<stop offset="1" stop-color="#086EB6"/>
</linearGradient>
<linearGradient id="paint2_linear_1205_399" x1="18.8706" y1="13.4126" x2="22.711" y2="14.941" gradientUnits="userSpaceOnUse">
<stop stop-color="#D4C883"/>
<stop offset="1" stop-color="#A1D1A7"/>
</linearGradient>
<linearGradient id="paint3_linear_1205_399" x1="3.01355" y1="4.58283" x2="14.7744" y2="15.0706" gradientUnits="userSpaceOnUse">
<stop stop-color="#D73721"/>
<stop offset="1" stop-color="#F7D768"/>
</linearGradient>
</defs>
</svg>
