<svg width="32" height="32" viewBox="0 0 32 32" fill="none" xmlns="http://www.w3.org/2000/svg">
<path fill-rule="evenodd" clip-rule="evenodd" d="M6.31576 20.1682L4.85099 20.6942L4.77234 24.9775L9.84291 23.1567C8.10376 22.5825 6.83373 21.5722 6.31576 20.1682" fill="#FDBD39"/>
<path fill-rule="evenodd" clip-rule="evenodd" d="M7.0823 15.6379L2 17.4629L4.85096 20.6942L6.31574 20.1683C5.79929 18.7684 6.11778 17.186 7.0823 15.6379" fill="#F69833"/>
<path fill-rule="evenodd" clip-rule="evenodd" d="M15.6349 9.45743C9.16309 11.7813 4.99074 16.5768 6.31575 20.1683L29.7523 11.7526C28.4273 8.16108 22.1067 7.1335 15.6349 9.45743Z" fill="#FECF33"/>
<path fill-rule="evenodd" clip-rule="evenodd" d="M20.4332 22.4636C26.905 20.1396 31.0852 15.3655 29.7524 11.7527L6.3158 20.1684C7.64863 23.7812 13.9614 24.7875 20.4332 22.4636Z" fill="#EE6723"/>
<path fill-rule="evenodd" clip-rule="evenodd" d="M29.7524 11.7527L6.3158 20.1684C6.77472 21.4123 8.52477 22.0252 10.9803 22.0252C13.3742 22.0252 16.4387 21.4431 19.6335 20.2959C26.1053 17.972 30.6587 14.2094 29.7524 11.7527" fill="#F69833"/>
<path fill-rule="evenodd" clip-rule="evenodd" d="M25.0879 9.89575C22.6939 9.89575 19.6295 10.4778 16.4346 11.625C9.96279 13.949 5.40942 17.7115 6.31576 20.1682L29.7523 11.7526C29.2934 10.5086 27.5434 9.89575 25.0879 9.89575" fill="#FDBD39"/>
<path fill-rule="evenodd" clip-rule="evenodd" d="M23.7935 25.2043H23.7934C23.1038 25.2043 22.0866 24.5921 20.7697 23.3846C19.2119 21.9561 17.4274 19.8638 15.7448 17.4932C14.0624 15.1227 12.6799 12.7527 11.852 10.8198C10.95 8.71341 10.8214 7.41828 11.4697 6.97033C11.6119 6.87222 11.7833 6.82251 11.979 6.82251C12.5064 6.82251 13.534 7.20845 15.4341 9.04717L15.4757 9.08736L15.4701 9.14451C15.4571 9.2766 15.4451 9.40988 15.4344 9.54069L15.4132 9.80044L15.2268 9.61582C13.1795 7.5884 12.2782 7.36952 11.9857 7.36952C11.9023 7.36952 11.8359 7.38619 11.7883 7.41909C11.5071 7.61332 11.489 8.56463 12.3635 10.6065C13.1765 12.505 14.5389 14.8391 16.1997 17.1789C17.8605 19.519 19.6177 21.5804 21.1477 22.9833C22.7976 24.4962 23.5411 24.6595 23.7842 24.6595C23.8681 24.6595 23.9363 24.6418 23.9869 24.6068C24.2835 24.4019 24.2839 23.3828 23.3087 21.1851L23.2639 21.0842L23.3619 21.0315C23.46 20.9787 23.5547 20.9268 23.6436 20.8771L23.761 20.8115L23.8152 20.9334C24.5066 22.4907 25.153 24.47 24.3054 25.0556C24.1625 25.1543 23.9903 25.2043 23.7935 25.2043V25.2043ZM23.7934 24.9641H23.7936L23.7934 25.0842L23.7934 24.9641Z" fill="#EE6723"/>
<path fill-rule="evenodd" clip-rule="evenodd" d="M20.5902 22.398L20.5804 22.5177C20.4168 24.5077 19.986 26.9002 18.8627 26.997C18.8401 26.999 18.8167 27 18.7932 27C18.0302 27 17.3082 25.9253 16.6476 23.8058C16.0224 21.8006 15.5374 19.1084 15.2817 16.225C15.026 13.3422 15.0298 10.6077 15.2925 8.52535C15.5788 6.25623 16.1238 5.07122 16.9124 5.0032C16.9357 5.00109 16.9598 5 16.9837 5C17.5373 5 18.3715 5.61611 19.2256 8.48587L18.6679 8.59167C18.3828 7.63267 18.072 6.8527 17.7635 6.31674C17.4781 5.821 17.2006 5.548 16.9821 5.548C16.9749 5.548 16.9677 5.54829 16.9606 5.54889C16.6188 5.5784 16.121 6.39336 15.8435 8.59302C15.5855 10.638 15.5824 13.3315 15.8347 16.1773C16.0872 19.0235 16.5644 21.6756 17.1783 23.6448C17.4532 24.5268 17.7547 25.2537 18.0503 25.7469C18.3229 26.2017 18.5867 26.4522 18.7931 26.4522C18.8002 26.4522 18.8072 26.4519 18.8143 26.4513C19.1413 26.4231 19.7576 25.5751 20.017 22.5913L20.5902 22.398" fill="#EE6723"/>
</svg>
